<svg width="200" height="38" fill="none" xmlns="http://www.w3.org/2000/svg"><g clip-path="url('#clip0_1_832')" stroke="#EB1700"><path d="M25.909 12.86v24.614M22.55 1.032v9.313c0 1.082 2.146 3.42 3.512 3.42 1.367 0 3.925-2.141 3.925-3.42V1.032M29.987 9.009h-7.436" stroke-width="1.914"/><path d="M26.27 8.966V1.013" stroke-width="1.808"/><path d="M15.59 25.007c.632 0 1.503.548 2.282 1.83.746 1.227 1.248 2.894 1.248 4.572 0 1.734-.375 3.028-.976 3.862-.573.794-1.402 1.245-2.554 1.245-1.13 0-1.938-.463-2.502-1.289-.595-.87-.954-2.204-.954-3.946 0-1.683.486-3.318 1.21-4.508.754-1.238 1.605-1.766 2.246-1.766ZM15.426 1.178v24.358M6.34.893v36.441M5.784 1.761S1.646 3.657 1.646 8.887s4.255 7.959 4.255 7.959" stroke-width="1.914"/></g><defs><clipPath id="clip0_1_832"><path fill="#fff" transform="translate(0 .07)" d="M0 0h200v37.86H0z"/></clipPath></defs></svg>