<svg width="214" height="215" fill="none" xmlns="http://www.w3.org/2000/svg"><g filter="url('#filter0_d_1_407')"><g clip-path="url('#clip0_1_407')"><g clip-path="url('#clip1_1_407')"><path d="M172 28.86H42v130h130v-130Z" fill="#EB1700"/><mask id="mask0_1_407" style="mask-type:alpha" maskUnits="userSpaceOnUse" x="42" y="28" width="130" height="131"><path d="M107 158.86c35.899 0 65-29.102 65-65 0-35.898-29.101-65-65-65-35.898 0-65 29.102-65 65 0 35.898 29.102 65 65 65Z" fill="#FF7629"/></mask><g mask="url('#mask0_1_407')"><path d="M172.16 28.86H41.915v130.244H172.16V28.86Z" fill="#EB1700"/><path d="M126.163 81.857v47.848M119.635 58.864v18.103c0 2.103 4.17 6.65 6.826 6.65 2.657 0 7.63-4.163 7.63-6.65V58.864M134.091 74.37h-14.455" stroke="#fff" stroke-width="3.721"/><path d="M126.864 74.286v-15.46" stroke="#fff" stroke-width="3.515"/><path d="M106.103 105.47c1.229 0 2.922 1.065 4.436 3.556 1.45 2.386 2.427 5.628 2.427 8.889 0 3.372-.728 5.887-1.898 7.508-1.114 1.544-2.725 2.421-4.965 2.421-2.196 0-3.768-.902-4.865-2.507-1.155-1.69-1.854-4.284-1.854-7.671 0-3.271.947-6.45 2.355-8.764 1.464-2.405 3.118-3.432 4.364-3.432ZM105.786 59.147v47.351M88.121 58.593v70.841M87.042 60.281s-8.044 3.686-8.044 13.853 8.27 15.471 8.27 15.471" stroke="#fff" stroke-width="3.721"/></g></g></g><rect x="45" y="31.86" width="124" height="124" rx="62" stroke="#fff" stroke-width="6" shape-rendering="crispEdges"/></g><defs><clipPath id="clip0_1_407"><rect x="42" y="28.86" width="130" height="130" rx="65" fill="#fff"/></clipPath><clipPath id="clip1_1_407"><path fill="#fff" transform="translate(42 28.86)" d="M0 0h130v130H0z"/></clipPath><filter id="filter0_d_1_407" x="0" y=".86" width="214" height="214" filterUnits="userSpaceOnUse" color-interpolation-filters="sRGB"><feFlood flood-opacity="0" result="BackgroundImageFix"/><feColorMatrix in="SourceAlpha" values="0 0 0 0 0 0 0 0 0 0 0 0 0 0 0 0 0 0 127 0" result="hardAlpha"/><feOffset dy="14"/><feGaussianBlur stdDeviation="21"/><feComposite in2="hardAlpha" operator="out"/><feColorMatrix values="0 0 0 0 0.0745098 0 0 0 0 0.0745098 0 0 0 0 0.0745098 0 0 0 0.06 0"/><feBlend in2="BackgroundImageFix" result="effect1_dropShadow_1_407"/><feBlend in="SourceGraphic" in2="effect1_dropShadow_1_407" result="shape"/></filter></defs></svg>