<svg width="240" height="46" fill="none" xmlns="http://www.w3.org/2000/svg"><g clip-path="url('#clip0_1_353')"><path d="M67.13 13.133c1.763 0 3.383.423 4.858 1.268a9.243 9.243 0 0 1 3.535 3.427c.863 1.44 1.295 3.04 1.295 4.804 0 1.763-.432 3.364-1.295 4.803-.864 1.421-2.042 2.546-3.535 3.373-1.475.81-3.095 1.215-4.858 1.215h-7.205v-18.89h7.205Zm0 16.056a6.774 6.774 0 0 0 3.374-.863 6.412 6.412 0 0 0 2.428-2.375c.594-1.008.89-2.123.89-3.346 0-1.224-.296-2.339-.89-3.346a6.355 6.355 0 0 0-2.428-2.402 6.614 6.614 0 0 0-3.374-.89h-4.21v13.222h4.21ZM88.377 18.53h2.833v13.493h-2.833v-1.35a6.176 6.176 0 0 1-1.7 1.242 4.63 4.63 0 0 1-2.051.459c-.792 0-1.601-.162-2.429-.486-.81-.342-1.511-.945-2.105-1.808-.593-.864-.89-2.024-.89-3.481V18.53h2.833v8.069c0 1.151.315 1.979.945 2.482.647.504 1.403.756 2.266.756a3.03 3.03 0 0 0 2.186-.89c.63-.594.945-1.557.945-2.888V18.53Zm14.043-.324c1.35 0 2.537.306 3.563.918a6.21 6.21 0 0 1 2.375 2.536c.575 1.08.864 2.285.864 3.616 0 1.332-.289 2.537-.864 3.616a6.394 6.394 0 0 1-2.375 2.564c-1.026.612-2.213.918-3.563.918-.88 0-1.735-.171-2.563-.513a7.116 7.116 0 0 1-2.159-1.484v7.043h-2.833V18.53h2.833v1.646a6.953 6.953 0 0 1 2.16-1.43 6.37 6.37 0 0 1 2.562-.54Zm-.35 11.415c.81 0 1.538-.189 2.186-.567a4.144 4.144 0 0 0 1.565-1.538c.378-.665.567-1.412.567-2.24 0-.827-.189-1.574-.567-2.24a4.087 4.087 0 0 0-1.565-1.565c-.648-.377-1.376-.566-2.186-.566s-1.547.189-2.213.566a4.228 4.228 0 0 0-1.592 1.593c-.378.665-.567 1.412-.567 2.24 0 .827.19 1.574.567 2.24.396.647.927 1.16 1.592 1.537.666.36 1.403.54 2.213.54Zm15.816-11.442c1.313 0 2.482.324 3.508.972a6.54 6.54 0 0 1 2.402 2.59c.575 1.08.863 2.267.863 3.562 0 .216-.035.558-.107 1.026h-10.903c.234 1.08.738 1.943 1.512 2.59.791.648 1.79.972 2.995.972.737 0 1.439-.162 2.105-.486.684-.324 1.188-.747 1.511-1.268l2.213 1.295a6.333 6.333 0 0 1-2.429 2.186c-1.007.504-2.158.756-3.454.756-1.439 0-2.716-.306-3.832-.918a6.548 6.548 0 0 1-2.563-2.537c-.595-1.079-.891-2.293-.891-3.643 0-1.331.296-2.536.891-3.616a6.654 6.654 0 0 1 2.509-2.536c1.079-.63 2.302-.945 3.67-.945Zm4.075 5.91c-.144-1.061-.585-1.898-1.322-2.51-.72-.611-1.637-.917-2.753-.917-.773 0-1.484.162-2.132.486-.648.305-1.16.728-1.538 1.268-.377.522-.576 1.08-.594 1.673h8.339Zm12.046-5.856c.199 0 .352.01.459.027l-.216 2.699a2.144 2.144 0 0 0-.567-.081c-1.114 0-2.051.341-2.806 1.025-.755.666-1.133 1.61-1.133 2.834v7.286h-2.834V18.53h2.834v2.294c.306-.72.827-1.332 1.565-1.835.756-.504 1.655-.756 2.698-.756Zm21.507 3.805a5.143 5.143 0 0 1 1.593 1.916c.396.774.594 1.601.594 2.483a5.48 5.48 0 0 1-.729 2.78 5.599 5.599 0 0 1-1.97 2.023 5.094 5.094 0 0 1-2.698.756h-5.343v.027h-2.996v-18.89h7.934c.917 0 1.763.234 2.536.702a5.078 5.078 0 0 1 1.836 1.915c.467.792.701 1.647.701 2.564 0 .684-.134 1.35-.405 1.997a5.617 5.617 0 0 1-1.053 1.727Zm-8.553-6.045v4.966l4.938-.027c.612 0 1.151-.243 1.619-.729a2.53 2.53 0 0 0 .702-1.78c0-.685-.234-1.26-.702-1.728-.45-.468-.989-.702-1.619-.702h-4.938Zm5.343 13.142c.702 0 1.295-.27 1.781-.81.503-.539.755-1.178.755-1.915 0-.738-.252-1.377-.755-1.916-.486-.54-1.079-.81-1.781-.81h-5.343v5.451h5.343ZM168.78 18.53h2.833v13.493h-2.833v-1.35a6.176 6.176 0 0 1-1.7 1.242 4.63 4.63 0 0 1-2.051.459c-.792 0-1.602-.162-2.429-.486-.81-.342-1.511-.945-2.105-1.808-.594-.864-.89-2.024-.89-3.481V18.53h2.833v8.069c0 1.151.315 1.979.945 2.482.648.504 1.403.756 2.267.756.845 0 1.574-.297 2.185-.89.63-.594.945-1.557.945-2.888V18.53Zm13.586-.297c.197 0 .35.01.458.027l-.215 2.699a2.167 2.167 0 0 0-.567-.081c-1.116 0-2.051.341-2.807 1.025-.756.666-1.134 1.61-1.134 2.834v7.286h-2.833V18.53h2.833v2.294c.306-.72.828-1.332 1.566-1.835.755-.504 1.655-.756 2.699-.756Zm13.185.297h2.834v12.818c0 1.277-.315 2.402-.945 3.373-.63.972-1.502 1.718-2.617 2.24-1.097.54-2.34.81-3.724.81-1.566 0-2.969-.297-4.21-.89-1.224-.595-2.096-1.386-2.618-2.376l2.429-1.403c.288.576.819 1.062 1.592 1.457.792.396 1.755.594 2.888.594 1.277 0 2.32-.35 3.13-1.052.828-.702 1.241-1.62 1.241-2.753v-.944a7.264 7.264 0 0 1-2.186 1.457 6.46 6.46 0 0 1-2.536.512c-1.349 0-2.537-.305-3.562-.917a6.632 6.632 0 0 1-2.402-2.537c-.558-1.079-.837-2.284-.837-3.616 0-1.33.279-2.536.837-3.616a6.388 6.388 0 0 1 2.402-2.536c1.025-.63 2.213-.945 3.562-.945.881 0 1.726.18 2.536.54a6.654 6.654 0 0 1 2.186 1.457V18.53Zm-4.371 11.118a4.41 4.41 0 0 0 2.213-.567 4.093 4.093 0 0 0 1.565-1.565c.396-.665.593-1.412.593-2.24 0-.827-.197-1.565-.593-2.212a3.907 3.907 0 0 0-1.565-1.539 4.41 4.41 0 0 0-2.213-.566c-.81 0-1.547.189-2.214.566-.646.36-1.16.873-1.537 1.539-.378.665-.567 1.412-.567 2.24 0 .827.189 1.574.567 2.24a4.149 4.149 0 0 0 1.537 1.564c.667.36 1.404.54 2.214.54Zm16.596-11.469c1.313 0 2.483.324 3.508.972a6.54 6.54 0 0 1 2.402 2.59c.575 1.08.864 2.267.864 3.562 0 .216-.036.558-.108 1.026h-10.903c.234 1.08.738 1.943 1.512 2.59.791.648 1.79.972 2.995.972.737 0 1.439-.162 2.105-.486.684-.324 1.188-.747 1.511-1.268l2.213 1.295a6.333 6.333 0 0 1-2.429 2.186c-1.007.504-2.158.756-3.454.756-1.439 0-2.716-.306-3.832-.918a6.548 6.548 0 0 1-2.563-2.537c-.594-1.079-.891-2.293-.891-3.643 0-1.331.297-2.536.891-3.616a6.66 6.66 0 0 1 2.509-2.536c1.079-.63 2.303-.945 3.67-.945Zm4.075 5.91c-.144-1.061-.584-1.898-1.322-2.51-.72-.611-1.637-.917-2.753-.917-.773 0-1.484.162-2.132.486-.647.305-1.16.728-1.538 1.268-.377.522-.576 1.08-.593 1.673h8.338Zm12.046-5.856c.199 0 .352.01.459.027l-.216 2.699a2.144 2.144 0 0 0-.567-.081c-1.114 0-2.05.341-2.806 1.025-.755.666-1.133 1.61-1.133 2.834v7.286h-2.833V18.53h2.833v2.294c.306-.72.827-1.332 1.565-1.835.756-.504 1.656-.756 2.698-.756Zm4.528 4.02c0 .45.225.784.675 1 .468.197 1.214.422 2.239.674 1.044.234 1.908.486 2.591.756a4.24 4.24 0 0 1 1.754 1.214c.504.558.756 1.313.756 2.267 0 .863-.252 1.619-.756 2.267-.504.63-1.187 1.115-2.051 1.457-.845.324-1.781.485-2.806.485-1.386 0-2.573-.27-3.563-.81-.989-.557-1.709-1.33-2.158-2.32l2.32-1.214c.271.683.693 1.196 1.269 1.538.593.324 1.304.486 2.132.486.773 0 1.439-.162 1.996-.486.576-.324.864-.783.864-1.376 0-.522-.26-.9-.783-1.134-.503-.252-1.304-.512-2.401-.782-1.062-.27-1.916-.522-2.563-.756a4.506 4.506 0 0 1-1.647-1.133c-.467-.522-.701-1.206-.701-2.051 0-.828.234-1.556.701-2.186.468-.63 1.098-1.115 1.89-1.457.79-.342 1.672-.513 2.644-.513 1.151 0 2.177.252 3.076.756a5.032 5.032 0 0 1 2.105 2.05l-2.321 1.161c-.503-1.097-1.457-1.646-2.86-1.646-.738 0-1.322.162-1.755.486-.431.305-.647.728-.647 1.268Z" fill="#131313"/><path d="M31.114 15.344v29.529M27.085 1.154v11.173c0 1.297 2.574 4.104 4.213 4.104 1.64 0 4.709-2.57 4.709-4.104V1.154M36.007 10.724h-8.921" stroke="#FF7629" stroke-width="2.297"/><path d="M31.547 10.672v-9.54" stroke="#FF7629" stroke-width="2.169"/><path d="M18.735 29.916c.758 0 1.803.657 2.737 2.195.895 1.472 1.498 3.473 1.498 5.486 0 2.08-.45 3.633-1.172 4.633-.687.953-1.68 1.494-3.063 1.494-1.356 0-2.326-.556-3.002-1.547-.713-1.043-1.145-2.644-1.145-4.734 0-2.019.584-3.98 1.453-5.408.904-1.485 1.925-2.118 2.694-2.118ZM18.538 1.329V30.55M7.637.987v43.719M6.971 2.029s-4.964 2.275-4.964 8.55c0 6.274 5.104 9.547 5.104 9.547" stroke="#FF7629" stroke-width="2.297"/></g><defs><clipPath id="clip0_1_353"><path fill="#fff" transform="translate(.032)" d="M0 0h239.936v45.42H0z"/></clipPath></defs></svg>