<svg width="148" height="33" fill="none" xmlns="http://www.w3.org/2000/svg"><g clip-path="url('#clip0_1_750')"><path d="M4.366.38h3.057a1.084 1.084 0 1 1 0 2.167H4.366a2.157 2.157 0 0 0-2.157 2.157v3.512a1.084 1.084 0 1 1-2.168 0V4.704A4.325 4.325 0 0 1 4.366.38ZM1.125 24.744c-.598 0-1.084.485-1.084 1.084v2.602a4.325 4.325 0 0 0 4.325 4.325h3.057a1.084 1.084 0 1 0 0-2.168H4.366a2.157 2.157 0 0 1-2.157-2.157v-2.602c0-.599-.485-1.084-1.084-1.084ZM31.332 24.744c-.598 0-1.083.485-1.083 1.084v2.602a2.157 2.157 0 0 1-2.157 2.157h-3.057a1.084 1.084 0 0 0 0 2.168h3.057a4.325 4.325 0 0 0 4.324-4.325v-2.602c0-.599-.485-1.084-1.084-1.084ZM31.332 9.3c.599 0 1.084-.486 1.084-1.084V4.704A4.325 4.325 0 0 0 28.092.38h-3.057a1.084 1.084 0 1 0 0 2.167h3.057c1.19 0 2.157.966 2.157 2.157v3.512c0 .598.485 1.083 1.083 1.083Z" fill="#FF7629"/><path d="M6.805 17.824c0-1.041.844-1.885 1.885-1.885h15.078a1.885 1.885 0 1 1 0 3.77H8.69a1.885 1.885 0 0 1-1.885-1.885Z" stroke="#FF7629" stroke-width="1.824" stroke-linecap="round" stroke-linejoin="round"/><path d="M24.396 16.047v-1.206a5.184 5.184 0 0 0-5.185-5.184h-5.964A5.184 5.184 0 0 0 8.06 14.84v1.206M24.396 19.601v1.364a2.513 2.513 0 0 1-2.513 2.513H10.574a2.513 2.513 0 0 1-2.513-2.513V19.6" stroke="#FF7629" stroke-width="1.824" stroke-linecap="round" stroke-linejoin="round"/><path d="M56.117 16.473c0 .915-.147 1.792-.442 2.633a8.348 8.348 0 0 1-1.261 2.301l1.593 1.594-2.036 2.057-1.726-1.726c-1.298.753-2.67 1.129-4.116 1.129a7.86 7.86 0 0 1-4.005-1.062 8.152 8.152 0 0 1-2.92-2.92 7.862 7.862 0 0 1-1.063-4.006c0-1.446.354-2.78 1.062-4.005a7.978 7.978 0 0 1 2.921-2.899 7.737 7.737 0 0 1 4.005-1.084c1.446 0 2.781.361 4.005 1.084a7.81 7.81 0 0 1 2.899 2.899 7.737 7.737 0 0 1 1.084 4.005Zm-7.988 5.09a4.69 4.69 0 0 0 1.947-.399l-1.792-1.792 2.058-2.058 2.014 2.013c.575-.885.863-1.836.863-2.854 0-.915-.229-1.763-.686-2.545a5.106 5.106 0 0 0-1.86-1.859 4.953 4.953 0 0 0-2.544-.685c-.914 0-1.77.228-2.567.685a5.106 5.106 0 0 0-1.858 1.86 4.952 4.952 0 0 0-.686 2.544c0 .915.228 1.763.686 2.545a5.104 5.104 0 0 0 4.425 2.544Zm19.593 2.61L64.69 18.82h-2.876v5.354h-2.9V8.684H65.2c.915 0 1.763.229 2.545.686a4.779 4.779 0 0 1 1.837 1.837c.457.781.686 1.63.686 2.544 0 .944-.237 1.807-.708 2.59a5.058 5.058 0 0 1-1.904 1.836l3.364 5.996h-3.297Zm-5.908-12.745v4.624h3.385c.635 0 1.18-.22 1.638-.663a2.235 2.235 0 0 0 .686-1.638c0-.649-.23-1.195-.686-1.637a2.188 2.188 0 0 0-1.638-.686h-3.385Zm10.46 5.045a7.86 7.86 0 0 1 1.062-4.005 7.974 7.974 0 0 1 2.921-2.899 7.735 7.735 0 0 1 4.005-1.084c1.475 0 2.84.383 4.094 1.15a7.782 7.782 0 0 1 2.898 3.01l-2.544 1.35a5.052 5.052 0 0 0-1.859-1.881 4.875 4.875 0 0 0-2.589-.73 5.103 5.103 0 0 0-4.426 2.545 4.948 4.948 0 0 0-.685 2.544c0 .915.228 1.763.686 2.545a5.101 5.101 0 0 0 4.425 2.544c.959 0 1.83-.243 2.611-.73a5.12 5.12 0 0 0 1.859-1.947l2.545 1.394a7.895 7.895 0 0 1-7.015 4.182 7.858 7.858 0 0 1-4.005-1.062 8.147 8.147 0 0 1-2.92-2.92 7.86 7.86 0 0 1-1.063-4.006Zm21.722 8.01a5.769 5.769 0 0 1-2.92-.774 6.103 6.103 0 0 1-2.125-2.125 5.768 5.768 0 0 1-.774-2.92 5.65 5.65 0 0 1 .774-2.9 5.866 5.866 0 0 1 2.125-2.123 5.645 5.645 0 0 1 2.92-.797 5.53 5.53 0 0 1 2.9.797 5.65 5.65 0 0 1 2.123 2.124 5.53 5.53 0 0 1 .797 2.899 5.646 5.646 0 0 1-.797 2.92 5.869 5.869 0 0 1-2.124 2.125 5.65 5.65 0 0 1-2.898.774Zm-.022-2.744c.561 0 1.077-.132 1.55-.398.472-.28.848-.656 1.128-1.129.28-.471.42-.988.42-1.548s-.14-1.077-.42-1.55a3.178 3.178 0 0 0-1.129-1.128 2.98 2.98 0 0 0-1.549-.42c-.56 0-1.076.14-1.549.42-.472.28-.848.657-1.128 1.129a3.106 3.106 0 0 0-.398 1.549c0 .56.132 1.076.398 1.548.28.473.656.849 1.129 1.129.472.266.988.398 1.548.398ZM110.22 8.684h2.743v15.49h-2.743V23.11a5.473 5.473 0 0 1-1.682 1.018 5.362 5.362 0 0 1-1.925.354c-1.121 0-2.102-.25-2.943-.752a5.09 5.09 0 0 1-1.947-2.08c-.443-.885-.664-1.881-.664-2.987 0-1.107.221-2.103.664-2.988a5.09 5.09 0 0 1 1.947-2.08c.841-.516 1.822-.774 2.943-.774a4.92 4.92 0 0 1 1.903.376 6.022 6.022 0 0 1 1.704.996v-5.51Zm-3.253 13.166c.605 0 1.15-.133 1.637-.398.502-.28.893-.664 1.173-1.151.295-.487.443-1.04.443-1.66 0-.929-.318-1.689-.952-2.279-.62-.59-1.386-.885-2.301-.885-.93 0-1.696.303-2.301.907-.59.59-.886 1.35-.886 2.28 0 .929.296 1.696.886 2.3.605.591 1.371.886 2.301.886Zm13.587-9.028c1.062 0 2.013.265 2.854.796a5.35 5.35 0 0 1 1.992 2.103c.472.885.708 1.866.708 2.943 0 .354-.029.678-.089.973h-8.541c.221.782.613 1.394 1.173 1.837.561.428 1.276.642 2.146.642a3.46 3.46 0 0 0 1.527-.354c.502-.236.878-.539 1.129-.908l2.102 1.24a5.18 5.18 0 0 1-2.014 1.77c-.811.398-1.748.597-2.81.597-1.18 0-2.227-.25-3.142-.752a5.353 5.353 0 0 1-2.125-2.08c-.486-.885-.73-1.881-.73-2.988 0-1.091.244-2.08.73-2.965a5.43 5.43 0 0 1 2.08-2.08c.886-.516 1.889-.774 3.01-.774Zm2.987 4.669c-.117-.708-.449-1.261-.996-1.66-.531-.413-1.201-.62-2.013-.62-.56 0-1.077.104-1.549.31a2.917 2.917 0 0 0-1.107.841c-.28.354-.427.73-.442 1.129h6.107Zm18.473-1.084 5.023 7.766h-3.452l-3.584-5.554-3.585 5.554h-3.452l5.023-7.766-5.001-7.723h3.452l3.563 5.51 3.562-5.51h3.452l-5.001 7.723Z" fill="#131313"/></g><defs><clipPath id="clip0_1_750"><path fill="#fff" transform="translate(.01 .38)" d="M0 0h147.979v32.5H0z"/></clipPath></defs></svg>