<svg width="310" height="310" fill="none" xmlns="http://www.w3.org/2000/svg"><g filter="url('#filter0_d_1_9')"><g clip-path="url('#clip0_1_9')"><g clip-path="url('#clip1_1_9')"><path d="M267.5 28.42h-225v225h225v-225Z" fill="#FF7629"/><mask id="mask0_1_9" style="mask-type:alpha" maskUnits="userSpaceOnUse" x="42" y="28" width="226" height="226"><path d="M155 253.42c62.132 0 112.5-50.368 112.5-112.5S217.132 28.42 155 28.42 42.5 78.788 42.5 140.92s50.368 112.5 112.5 112.5Z" fill="#FF7629"/></mask><g mask="url('#mask0_1_9')"><path d="M267.777 28.42H42.354v225.423h225.423V28.42Z" fill="#FF7629"/><path d="M188.166 120.146v82.813M176.868 80.35v31.333c0 3.639 7.217 11.51 11.815 11.51s13.205-7.206 13.205-11.51V80.35M201.888 107.188l-25.018-.001" stroke="#fff" stroke-width="6.441"/><path d="M189.379 107.042V80.284" stroke="#fff" stroke-width="6.083"/><path d="M153.448 161.014c2.127 0 5.057 1.843 7.678 6.155 2.509 4.129 4.2 9.741 4.2 15.385 0 5.835-1.261 10.189-3.286 12.994-1.928 2.672-4.715 4.19-8.592 4.19-3.802 0-6.522-1.561-8.42-4.338-1.999-2.925-3.209-7.415-3.209-13.277 0-5.662 1.638-11.163 4.075-15.168 2.534-4.164 5.397-5.941 7.554-5.941ZM152.898 80.84v81.954M122.325 79.882V202.49M120.457 82.803s-13.921 6.38-13.921 23.977c0 17.596 14.313 26.776 14.313 26.776" stroke="#fff" stroke-width="6.441"/></g></g></g><rect x="48" y="33.92" width="214" height="214" rx="107" stroke="#fff" stroke-width="11" shape-rendering="crispEdges"/></g><defs><clipPath id="clip0_1_9"><rect x="42.5" y="28.42" width="225" height="225" rx="112.5" fill="#fff"/></clipPath><clipPath id="clip1_1_9"><path fill="#fff" transform="translate(42.5 28.42)" d="M0 0h225v225H0z"/></clipPath><filter id="filter0_d_1_9" x=".5" y=".42" width="309" height="309" filterUnits="userSpaceOnUse" color-interpolation-filters="sRGB"><feFlood flood-opacity="0" result="BackgroundImageFix"/><feColorMatrix in="SourceAlpha" values="0 0 0 0 0 0 0 0 0 0 0 0 0 0 0 0 0 0 127 0" result="hardAlpha"/><feOffset dy="14"/><feGaussianBlur stdDeviation="21"/><feComposite in2="hardAlpha" operator="out"/><feColorMatrix values="0 0 0 0 0.0745098 0 0 0 0 0.0745098 0 0 0 0 0.0745098 0 0 0 0.06 0"/><feBlend in2="BackgroundImageFix" result="effect1_dropShadow_1_9"/><feBlend in="SourceGraphic" in2="effect1_dropShadow_1_9" result="shape"/></filter></defs></svg>