<svg width="350" height="256" fill="none" xmlns="http://www.w3.org/2000/svg"><g clip-path="url('#clip0_1_585')"><mask id="mask0_1_585" style="mask-type:alpha" maskUnits="userSpaceOnUse" x="0" y="0" width="350" height="256"><path d="M350 .852H0v254.546h350V.852Z" fill="#D0D0D0"/></mask><g mask="url('#mask0_1_585')"><path d="M350 .852H0v254.546h350V.852Z" fill="#FFF6F1"/></g><path d="M129.129 77.547a12.199 12.199 0 0 1-24.394 0c0-6.708 12.197-24.394 12.197-24.394s12.197 17.655 12.197 24.394ZM226.705 190.37h-27.444l7.416-29.664a9.15 9.15 0 0 1 8.873-6.927h13.161a9.153 9.153 0 0 1 7.21 3.518 9.147 9.147 0 0 1 1.663 7.85l-1.732 6.928M139.804 135.483l-12.807-32.017M107.784 103.466l21.906 54.764M155.411 151.101l-15.612-15.618-15.338 34.505a9.157 9.157 0 0 0 2.872 11.033l12.466 9.349M194.752 149.393l-25.608 40.976M194.867 100.862a9.15 9.15 0 0 1 6.294 8.702v25.918a18.296 18.296 0 1 1-36.591 0v-25.918a9.144 9.144 0 0 1 6.294-8.69 37.516 37.516 0 0 1 24.003-.012Z" stroke="#FF7629" stroke-width="8.485" stroke-linecap="round" stroke-linejoin="round"/><path d="M164.57 121.761a38.89 38.89 0 0 1 36.591 0M182.865 80.597v18.295M159.997 88.622l10.05 12.55M148.949 103.466l15.624 6.318M205.739 88.622l-10.044 12.55M216.79 103.466l-15.545 6.287M225.179 172.074h15.248v18.296h-15.248a3.048 3.048 0 0 1-3.048-3.05v-12.197a3.048 3.048 0 0 1 3.048-3.049ZM103.21 103.466h32.017" stroke="#FF7629" stroke-width="8.485" stroke-linecap="round" stroke-linejoin="round"/></g><defs><clipPath id="clip0_1_585"><path fill="#fff" transform="translate(0 .852)" d="M0 0h350v254.545H0z"/></clipPath></defs></svg>