<svg width="350" height="255" fill="none" xmlns="http://www.w3.org/2000/svg"><g clip-path="url('#clip0_1_627')"><mask id="mask0_1_627" style="mask-type:alpha" maskUnits="userSpaceOnUse" x="0" y="0" width="350" height="255"><path d="M350 .402H0v254.546h350V.402Z" fill="#D0D0D0"/></mask><g mask="url('#mask0_1_627')"><path d="M350 .402H0v254.546h350V.402Z" fill="#FFF6F1"/></g><path d="M247.616 96.948a38.445 38.445 0 0 1-33.608-38.146 38.44 38.44 0 0 1-11.262 27.186 38.444 38.444 0 0 1-54.372 0 38.447 38.447 0 0 1-11.26-27.186 38.446 38.446 0 0 1-33.641 38.152M103.442 135.695h144.177M189.948 135.695V94.467M213.977 135.695l.032-76.893M238.006 135.696V94.442M161.144 135.695V94.467M137.115 135.695l-.032-76.893M113.085 135.696V94.442M204.366 159.725v-24.03h19.223v24.03M146.695 159.725v-24.03h-19.223v24.03M247.619 193.366a16.357 16.357 0 0 1-15.86-14.417c0 7.965-8.394 14.417-18.743 14.417-10.349 0-18.743-6.452-18.743-14.417 0 7.965-8.394 14.417-18.743 14.417-10.348 0-18.743-6.452-18.743-14.417 0 7.965-8.393 14.417-18.743 14.417-10.348 0-18.743-6.452-18.743-14.417a16.356 16.356 0 0 1-15.859 14.417" stroke="#FF7629" stroke-width="8.485" stroke-linecap="round" stroke-linejoin="round"/></g><defs><clipPath id="clip0_1_627"><path fill="#fff" transform="translate(0 .402)" d="M0 0h350v254.545H0z"/></clipPath></defs></svg>