<svg width="330" height="241" fill="none" xmlns="http://www.w3.org/2000/svg"><g clip-path="url('#clip0_1_234')"><mask id="mask0_1_234" style="mask-type:alpha" maskUnits="userSpaceOnUse" x="0" y="0" width="330" height="241"><path d="M330 .3H0v240h330V.3Z" fill="#D0D0D0"/></mask><g mask="url('#mask0_1_234')"><path d="M330 .3H0v240h330V.3Z" fill="#FFF6F1"/></g><path d="M233.467 91.328a36.25 36.25 0 0 1-31.688-35.966 36.247 36.247 0 0 1-36.25 36.25 36.25 36.25 0 0 1-36.25-36.25A36.25 36.25 0 0 1 97.56 91.334M97.531 127.862H233.47M179.094 127.862V88.99M201.75 127.862l.03-72.5M224.406 127.863V88.966M151.936 127.862V88.99M129.28 127.862l-.03-72.5M106.623 127.863V88.966M192.688 150.519v-22.657h18.124v22.657M138.312 150.519v-22.657h-18.124v22.657M233.469 182.237a15.423 15.423 0 0 1-14.953-13.593c0 7.51-7.915 13.593-17.672 13.593-9.758 0-17.672-6.083-17.672-13.593 0 7.51-7.915 13.593-17.672 13.593-9.757 0-17.672-6.083-17.672-13.593 0 7.51-7.914 13.593-17.672 13.593-9.757 0-17.672-6.083-17.672-13.593a15.423 15.423 0 0 1-14.953 13.593" stroke="#FF7629" stroke-width="8" stroke-linecap="round" stroke-linejoin="round"/></g><defs><clipPath id="clip0_1_234"><path fill="#fff" transform="translate(0 .3)" d="M0 0h330v240H0z"/></clipPath></defs></svg>