<svg width="330" height="241" fill="none" xmlns="http://www.w3.org/2000/svg"><g clip-path="url('#clip0_1_192')"><mask id="mask0_1_192" style="mask-type:alpha" maskUnits="userSpaceOnUse" x="0" y="0" width="330" height="241"><path d="M330 .3H0v240h330V.3Z" fill="#D0D0D0"/></mask><g mask="url('#mask0_1_192')"><path d="M330 .3H0v240h330V.3Z" fill="#FFF6F1"/></g><path d="M121.75 72.612a11.502 11.502 0 0 1-11.5 11.5 11.501 11.501 0 0 1-11.5-11.5c0-6.325 11.5-23 11.5-23s11.5 16.646 11.5 23ZM213.75 178.988h-25.875l6.992-27.969a8.627 8.627 0 0 1 8.366-6.531h12.409a8.633 8.633 0 0 1 8.436 6.836 8.626 8.626 0 0 1-.07 3.882l-1.633 6.532M131.815 127.238 119.74 97.05M101.625 97.05l20.654 51.635M146.53 141.963l-14.72-14.725-14.461 32.533a8.627 8.627 0 0 0 2.708 10.402l11.753 8.815M183.623 140.353l-24.144 38.634M183.732 94.594a8.626 8.626 0 0 1 5.934 8.206v24.437a17.25 17.25 0 1 1-34.5 0V102.8a8.621 8.621 0 0 1 5.934-8.194 35.374 35.374 0 0 1 22.632-.011Z" stroke="#FF7629" stroke-width="8" stroke-linecap="round" stroke-linejoin="round"/><path d="M155.166 114.3a36.66 36.66 0 0 1 34.5 0M172.416 75.487v17.25M150.854 83.054l9.476 11.833M140.438 97.05l14.731 5.957M193.982 83.054l-9.47 11.833M204.402 97.05l-14.657 5.928M212.312 161.738h14.376v17.25h-14.376a2.87 2.87 0 0 1-2.032-.843 2.87 2.87 0 0 1-.842-2.033v-11.5c0-.762.302-1.493.842-2.032a2.87 2.87 0 0 1 2.032-.842ZM97.313 97.05H127.5" stroke="#FF7629" stroke-width="8" stroke-linecap="round" stroke-linejoin="round"/></g><defs><clipPath id="clip0_1_192"><path fill="#fff" transform="translate(0 .3)" d="M0 0h330v240H0z"/></clipPath></defs></svg>