<svg width="350" height="256" fill="none" xmlns="http://www.w3.org/2000/svg"><g clip-path="url('#clip0_1_665')"><mask id="mask0_1_665" style="mask-type:alpha" maskUnits="userSpaceOnUse" x="0" y="0" width="350" height="256"><path d="M350 .942H0v254.546h350V.942Z" fill="#D0D0D0"/></mask><g mask="url('#mask0_1_665')"><path d="M350 .942H0v254.546h350V.942Z" fill="#FFF6F1"/></g><path d="M229.091 167.581A121.418 121.418 0 0 0 175 156.762a121.418 121.418 0 0 0-54.091 10.819M197.552 107.042l-4.61 50.683M156.406 157.797l29.726-54.494M186.128 103.303l49.74 16.282a4.504 4.504 0 0 0 5.707-2.859c.25-.753.296-1.558.135-2.334a28.43 28.43 0 0 0-21.636-24.136 40.958 40.958 0 0 0-14.425-.493" stroke="#FF7629" stroke-width="8.485" stroke-linecap="round" stroke-linejoin="round"/><path d="m186.132 103.303-45.286 12.291a4.53 4.53 0 0 1-2.275.032 4.498 4.498 0 0 1-3.215-3.007 4.503 4.503 0 0 1-.123-2.272 28.582 28.582 0 0 1 21.739-24.581 38.14 38.14 0 0 1 18.702.475M215.266 89.552l18.632-18.728a4.486 4.486 0 0 0-1.263-7.278 29.273 29.273 0 0 0-30.585 3.065 22.241 22.241 0 0 0-7.705 12.08" stroke="#FF7629" stroke-width="8.485" stroke-linecap="round" stroke-linejoin="round"/><path d="M164.785 84.846 153.054 72.13a4.491 4.491 0 0 1 2.356-7.465 79.126 79.126 0 0 1 15.086-1.436 30.553 30.553 0 0 1 23.847 15.464M107.386 195.829a33.115 33.115 0 0 0 27.046-9.016 27.307 27.307 0 0 0 9.186 6.66 27.318 27.318 0 0 0 31.382-6.66 27.325 27.325 0 0 0 40.568 0 33.115 33.115 0 0 0 27.046 9.016" stroke="#FF7629" stroke-width="8.485" stroke-linecap="round" stroke-linejoin="round"/></g><defs><clipPath id="clip0_1_665"><path fill="#fff" transform="translate(0 .942)" d="M0 0h350v254.545H0z"/></clipPath></defs></svg>