<svg width="72" height="73" fill="none" xmlns="http://www.w3.org/2000/svg"><g clip-path="url('#clip0_1_816')"><path d="M72 .19H0v72h72v-72Z" fill="#FF7629"/><path d="M52.453 27.963v16.453a4.113 4.113 0 0 1-4.113 4.113H23.66a4.113 4.113 0 0 1-4.113-4.113V27.963" stroke="#fff" stroke-width="2.5" stroke-linecap="round" stroke-linejoin="round"/><path d="M52.453 27.963a4.113 4.113 0 0 0-4.113-4.113H23.66a4.114 4.114 0 0 0-4.113 4.113l14.273 8.912a4.113 4.113 0 0 0 4.36 0l14.273-8.912Z" stroke="#fff" stroke-width="2.5" stroke-linecap="round" stroke-linejoin="round"/></g><defs><clipPath id="clip0_1_816"><path fill="#fff" transform="translate(0 .19)" d="M0 0h72v72H0z"/></clipPath></defs></svg>