<svg width="72" height="73" fill="none" xmlns="http://www.w3.org/2000/svg"><g clip-path="url('#clip0_1_825')"><path d="M72 .19H0v72h72v-72Z" fill="#FF7629"/><path d="m40.566 51.78.018.01a8.311 8.311 0 0 0 10.34-1.134l1.163-1.163a2.772 2.772 0 0 0 0-3.919l-4.898-4.895a2.773 2.773 0 0 0-3.92 0 2.77 2.77 0 0 1-3.916 0l-7.838-7.84a2.773 2.773 0 0 1 0-3.918 2.77 2.77 0 0 0 0-3.918l-4.897-4.902a2.773 2.773 0 0 0-3.919 0l-1.163 1.162a8.314 8.314 0 0 0-1.135 10.34l.012.018A75.006 75.006 0 0 0 40.566 51.78Z" stroke="#fff" stroke-width="2.5" stroke-linecap="round" stroke-linejoin="round"/></g><defs><clipPath id="clip0_1_825"><path fill="#fff" transform="translate(0 .19)" d="M0 0h72v72H0z"/></clipPath></defs></svg>