<svg width="330" height="241" fill="none" xmlns="http://www.w3.org/2000/svg"><g clip-path="url('#clip0_1_272')"><mask id="mask0_1_272" style="mask-type:alpha" maskUnits="userSpaceOnUse" x="0" y="0" width="330" height="241"><path d="M330 .3H0v240h330V.3Z" fill="#D0D0D0"/></mask><g mask="url('#mask0_1_272')"><path d="M330 .3H0v240h330V.3Z" fill="#FFF6F1"/></g><path d="M216 157.416a114.476 114.476 0 0 0-51-10.2 114.476 114.476 0 0 0-51 10.2M186.263 100.337l-4.346 47.787M147.469 148.191l28.027-51.38M175.492 96.811l46.898 15.352a4.255 4.255 0 0 0 4.17-.855 4.25 4.25 0 0 0 1.338-4.041 26.808 26.808 0 0 0-20.4-22.758 38.614 38.614 0 0 0-13.6-.465" stroke="#FF7629" stroke-width="8" stroke-linecap="round" stroke-linejoin="round"/><path d="M175.496 96.812 132.798 108.4a4.26 4.26 0 0 1-2.145.03 4.244 4.244 0 0 1-3.032-2.835 4.253 4.253 0 0 1-.116-2.142 26.954 26.954 0 0 1 20.497-23.176 35.965 35.965 0 0 1 17.634.447M202.965 83.846l17.567-17.657a4.231 4.231 0 0 0-1.19-6.862 27.602 27.602 0 0 0-28.838 2.89 20.967 20.967 0 0 0-7.264 11.39" stroke="#FF7629" stroke-width="8" stroke-linecap="round" stroke-linejoin="round"/><path d="m155.369 79.41-11.061-11.991a4.235 4.235 0 0 1 2.221-7.038 74.606 74.606 0 0 1 14.224-1.355 28.807 28.807 0 0 1 22.485 14.58M101.25 184.05a31.238 31.238 0 0 0 25.5-8.5 25.76 25.76 0 0 0 19.125 8.5 25.766 25.766 0 0 0 19.125-8.5 25.76 25.76 0 0 0 19.125 8.5 25.766 25.766 0 0 0 19.125-8.5 31.231 31.231 0 0 0 25.5 8.5" stroke="#FF7629" stroke-width="8" stroke-linecap="round" stroke-linejoin="round"/></g><defs><clipPath id="clip0_1_272"><path fill="#fff" transform="translate(0 .3)" d="M0 0h330v240H0z"/></clipPath></defs></svg>