<svg width="40" height="41" fill="none" xmlns="http://www.w3.org/2000/svg"><rect y=".09" width="40" height="40" rx="20" fill="#E7DEFF"/><path fill-rule="evenodd" clip-rule="evenodd" d="M25.833 12.59H14.167c-.921 0-1.667.746-1.667 1.667v11.666c0 .921.746 1.667 1.667 1.667h6.35v-5.801h-1.952v-2.27h1.952v-1.672c0-1.936 1.185-2.992 2.913-2.992.582-.002 1.164.028 1.743.087v2.025h-1.19c-.941 0-1.125.445-1.125 1.102v1.446h2.25l-.292 2.27h-1.971v5.805h2.988c.921 0 1.667-.746 1.667-1.667V14.257c0-.921-.746-1.667-1.667-1.667Z" fill="#151515"/></svg>