<svg width="40" height="41" fill="none" xmlns="http://www.w3.org/2000/svg"><rect y=".09" width="40" height="40" rx="20" fill="#E7DEFF"/><g clip-path="url('#clip0_7_1799')"><path d="M24.055 10.229c5.39 0 5.806.416 5.806 5.805v8.111c0 5.39-.417 5.806-5.806 5.806h-8.11c-5.39 0-5.806-.417-5.806-5.806v-8.11c0-5.39.416-5.806 5.805-5.806h8.111ZM16.57 25.52v-8.027h-2.5v8.027h2.5Zm-1.25-9.18a1.458 1.458 0 1 0 0-2.917 1.458 1.458 0 0 0 0 2.917Zm10.597 9.18v-4.402c0-2.167-.472-3.82-2.986-3.82-1.208 0-2.027.667-2.36 1.292h-.029v-1.097H18.14v8.027h2.486v-3.972c0-1.041.194-2.055 1.5-2.055 1.278 0 1.291 1.194 1.291 2.125v3.902h2.5Z" fill="#000"/></g><defs><clipPath id="clip0_7_1799"><path fill="#fff" transform="translate(10 10.09)" d="M0 0h20v20H0z"/></clipPath></defs></svg>