<svg width="40" height="41" fill="none" xmlns="http://www.w3.org/2000/svg"><rect y=".09" width="40" height="40" rx="20" fill="#E7DEFF"/><path fill-rule="evenodd" clip-rule="evenodd" d="M16.667 12.59a4.167 4.167 0 0 0-4.167 4.166v6.667c0 2.301 1.866 4.167 4.167 4.167h6.666c2.301 0 4.167-1.866 4.167-4.167v-6.666c0-2.301-1.866-4.167-4.167-4.167h-6.666ZM25 14.257a.834.834 0 1 1 0 1.667.834.834 0 0 1 0-1.667Zm-5 1.666a4.167 4.167 0 1 1 0 8.334 4.167 4.167 0 0 1 0-8.334Zm0 1.667a2.5 2.5 0 1 0 0 5 2.5 2.5 0 0 0 0-5Z" fill="#151515"/></svg>