<svg width="40" height="41" fill="none" xmlns="http://www.w3.org/2000/svg"><rect y=".09" width="40" height="40" rx="20" fill="#E7DEFF"/><path fill-rule="evenodd" clip-rule="evenodd" d="M28.334 13.422c-.65.386-1.954.912-2.721 1.064-.023.005-.041.013-.063.019a3.75 3.75 0 0 0-6.383 2.668c0 .108-.01.31 0 .416-2.794 0-4.92-1.463-6.446-3.333-.166.416-.238 1.075-.238 1.693 0 1.167.912 2.314 2.333 3.025-.261.067-.55.116-.85.116-.484 0-.996-.128-1.466-.514v.042c0 1.632 1.732 2.743 3.272 3.052-.313.184-.943.202-1.25.202-.217 0-.983-.099-1.188-.137.428 1.337 1.973 2.089 3.445 2.116-1.151.903-1.95 1.238-4.309 1.238h-.803c1.49.955 3.388 1.668 5.29 1.668 6.19 0 9.71-4.72 9.71-9.168l-.004-.372c0-.015.004-.03.004-.045 0-.022-.007-.044-.007-.066l-.007-.275a6.847 6.847 0 0 0 1.68-1.742 6.72 6.72 0 0 1-1.933.53c.695-.417 1.683-1.41 1.934-2.197Z" fill="#151515"/></svg>