<svg width="130" height="130" fill="none" xmlns="http://www.w3.org/2000/svg"><g clip-path="url('#clip0_7_1612')" fill="#5019DA"><path d="m28.754 97.157 1.435-.756c-.75 2.003-.512 3.203.408 3.932.99.916 2.074.938 2.756.466 2.092-1.864-2.883-5.364-.367-7.818 1.222-1.32 3.083-.947 4.475.463 1.321 1.222 1.488 2.235 1.796 3.624l-1.364.944c.515-1.485.441-3.392-.88-4.614-.92-.729-2.073-.938-2.756-.466-2.28 1.935 2.695 5.435.18 7.888-.8.732-2.377 1.111-4.029-.416-.99-.917-1.416-2.047-1.654-3.247ZM26.588 83.996c1.648-.19 3.51.183 4.926 2.229C33 88.46 32.56 91.85 30.137 93.41c-2.423 1.559-5.58.599-7.068-1.636-.873-1.176-1.04-2.188-.972-3.72l1.506-.567c-.82 1.815-.935 3.793.457 5.204 1.722 1.716 4.617.84 6.262-1.071 1.834-1.982 1.735-4.525.013-6.24-.803-.989-2.099-1.575-3.747-1.384ZM26.172 74.907l.78 2.07c-.518-.234-.753.285-1.552 1.016l-1.95 2.24c.07.19.141.377.212.566l.497 1.318 3.389-1.278c.377-.142.753-.284.682-.472l.639 1.694c-.26-.117-.519-.234-.895-.092l-7.602 2.65c-.565.213-.753.284-.682.473l-.188.07-.994-2.635c-.78-2.071-.738-4.238 1.216-4.76 1.318-.496 2.238.232 3.111 1.408l1.716-1.722c1.034-1.25 1.457-1.84 1.62-2.546Zm-6.022 3.99c-.941.355-2.306 1.3-1.383 3.747l.497 1.318 4.707-1.774-.497-1.318c-.923-2.448-2.383-2.328-3.324-1.973ZM19.892 65.663c2.66-.358 5.348 1.64 5.706 4.3.358 2.66-1.639 5.348-4.3 5.706-2.848.429-5.348-1.639-5.706-4.3-.358-2.66 1.45-5.277 4.3-5.706ZM19 67.29c-2.377 1.11-3.88 3.397-2.84 5.586 1.04 2.188 3.796 2.654 6.173 1.543 2.376-1.11 3.88-3.398 2.84-5.586S21.375 66.179 19 67.29ZM23.74 58.191l1.673.444L25 64.382c-.071-.188-.33-.305-.778-.352l-7.985-.645c-.635.025-.753.284-.941.355l-.188.071.185-1.79.188-.071c.071.188.33.305.778.352l8.88.738.138-1.343c-.12-1.46-.734-2.518-1.536-3.506ZM25.519 51.5l1.555.704-1.497 5.725c-.071-.189-.142-.377-.66-.611L17.07 55.33c-.448-.047-.707-.164-.824.095l.444-1.672c.071.188.142.376.85.54l8.363 2.222.21-1.154c.445-1.673-.052-2.99-.595-3.861ZM30.695 35.571c2.287 1.503 2.67 4.8.861 7.417l-1.926 2.876c-.071-.188-.142-.376-.472-.682l-6.673-4.58c-.33-.306-.59-.423-.966-.281l1.926-2.877c1.809-2.617 4.963-3.376 7.25-1.873Zm-.728.92c-2.099-1.574-5.019-1.334-6.522.953l-1.268 1.769 7.851 5.426 1.269-1.769c1.762-2.17.957-4.876-1.33-6.38ZM39.488 27.525c1.864 2.093 1.54 5.226-.553 7.09-2.092 1.864-5.413 1.61-7.277-.482-1.864-2.093-1.54-5.225.552-7.09 2.164-1.675 5.414-1.61 7.278.482Zm-1.907.074c-2.216-1.314-5.019-1.333-6.216.624-1.386 2.027-.204 4.592 2.012 5.907 2.216 1.315 5.018 1.334 6.216-.623 1.386-2.028.204-4.593-2.012-5.908ZM50.896 19.57l.623 6.215.99.917-1.129.426-5.496-5.454s-.26-.117-.33-.306l.576 6.664.991.916-.941.355-5.497-5.454c-1.062-1.104-1.58-1.339-2.358-1.69l-.07-.19 2-.968.07.188c-.235.519.096.824.827 1.623l4.836 4.843-.552-6.027c-.07-.189-.142-.377-.025-.636-.92-.729-1.25-1.034-2.027-1.386l-.071-.188 2-.97.07.189c-.234.518.096.824.828 1.623l4.836 4.843-.151-5.534c-.238-1.2-.522-1.954-1.3-2.305l-.07-.189 1.506-.568.07.189c-.351.777-.515 1.484-.206 2.873ZM62.686 14.91c-.493.4-.845 1.178-.633 1.743l1.145 8.17-.188.07-7.808-7.592.836 6.78c.025.636.685 1.247 1.204 1.482l-1.837.262c.494-.4.658-1.108.633-1.743l-.907-6.97-1.062-1.104 1.46-.12 7.219 7.17-.883-6.334c-.024-.636-.685-1.247-1.203-1.482l-.071-.188 2.095-.145ZM99.994 31.163l-1.247.686c.562-1.933.324-3.133-.407-3.933-.991-.916-2.075-.938-2.686-.277-2.092 1.864 3.071 5.293.627 7.935-1.034 1.25-3.013 1.135-4.593-.204-1.25-1.034-1.676-2.164-1.984-3.553l1.364-.944c-.516 1.484-.253 3.32 1.068 4.543.92.729 2.074.938 2.873.207 2.281-1.935-2.882-5.364-.438-8.006.728-.92 2.306-1.3 4.145.157.614 1.06 1.111 2.377 1.278 3.39ZM102.536 44.182c-1.836.262-3.51-.183-5.114-2.158-1.487-2.234-1.234-5.555 1.189-7.114 2.234-1.487 5.509-.787 7.185 1.377.873 1.176 1.04 2.188 1.16 3.648l-1.506.568c.821-1.815.676-3.91-.645-5.133-1.722-1.716-4.617-.84-6.191 1.26-1.575 2.098-1.547 4.453.246 6.357.803.988 2.028 1.386 3.676 1.195ZM103.212 53.389l-.969-2c.518.234.753-.284 1.481-1.204l1.88-2.43-.213-.564-.497-1.318-3.389 1.278c-.376.142-.494.401-.611.66l-.639-1.694c.259.117.448.046.824-.096l7.46-3.027c.565-.213.494-.401.611-.66l.189-.072.993 2.636c.781 2.071.738 4.238-.957 4.877-1.318.496-2.426-.161-3.299-1.337l-1.574 2.099-1.29 2.852Zm5.879-4.367c.942-.355 2.306-1.3 1.195-3.676l-.497-1.318-4.636 1.962.497 1.318c1.04 2.189 2.5 2.068 3.441 1.714ZM109.797 62.302c-2.848.43-5.277-1.45-5.894-4.228-.429-2.85 1.379-5.466 4.04-5.824 2.849-.43 5.277 1.45 5.895 4.228.617 2.778-1.192 5.395-4.041 5.824Zm.963-1.438c2.377-1.111 3.809-3.586 2.581-5.704-1.04-2.188-3.725-2.466-6.102-1.355-2.376 1.111-3.809 3.587-2.58 5.704 1.04 2.188 3.725 2.466 6.101 1.355ZM106.208 69.891l-1.673-.444.343-5.935c.071.188.33.305.777.352l7.914.457c.447.046.636-.025.753-.284l.188-.071.003 1.719-.188.071c-.071-.188-.33-.306-.778-.352l-8.737-.361-.139 1.342c-.068 1.531.617 2.778 1.537 3.506ZM104.689 76.7l-1.555-.704 1.309-5.654c.071.188.33.306.849.54l7.774 1.8c.448.046.636-.025.824-.096l-.444 1.673c-.071-.188-.331-.306-.849-.54l-8.67-1.892-.21 1.154c-.256 1.602.429 2.849.972 3.719ZM99.843 92.934c-2.287-1.503-2.858-4.728-1.05-7.346l1.926-2.876c.071.188.142.377.473.682l6.79 4.321c.33.306.589.423.895.093l-1.926 2.876c-1.738 2.806-4.633 3.682-7.108 2.25Zm.657-1.108c2.216 1.315 4.947 1.145 6.451-1.142l1.268-1.768-8.228-5.284-1.08 1.697c-1.62 2.547-.627 5.182 1.589 6.497ZM91.309 101.097c-1.864-2.092-1.8-5.342.293-7.206 2.093-1.865 5.343-1.8 7.207.293 1.864 2.093 1.799 5.343-.293 7.207-2.093 1.864-5.155 1.728-7.207-.294Zm1.907-.074c2.216 1.315 4.948 1.146 6.333-.882 1.386-2.028.016-4.522-2.2-5.837-2.216-1.314-4.947-1.145-6.333.883-1.386 2.028-.016 4.521 2.2 5.836ZM80.232 109.359l-.812-6.145-.99-.917 1.13-.425 5.613 5.194s.26.117.33.306l-.765-6.593-.99-.917.94-.355 5.615 5.195c.99.917 1.509 1.151 2.287 1.503l.07.189-2 .969-.07-.189c.234-.518-.096-.824-1.016-1.552l-5.024-4.772.74 5.957c.071.188.142.376.025.636.92.728 1.438.963 2.028 1.386l.07.188-2 .969-.07-.188c.234-.519-.096-.825-1.016-1.553l-5.024-4.772.929 5.886c.237 1.201.521 1.954 1.299 2.306l.07.188-1.505.568-.071-.188c.352-.778.327-1.414.207-2.874ZM68.584 114.396c.493-.402.657-1.108.632-1.744l-1.333-8.099.189-.071 7.925 7.334-1.095-6.898c-.142-.377-.615-1.059-1.133-1.294l1.836-.262c-.493.401-.657 1.108-.632 1.744l1.095 6.898 1.179.846-1.389.308-7.595-7.028 1.07 6.263c.025.635.686 1.247 1.204 1.481l.071.188-2.025.334ZM49.028 109.296l-.216-2.284-2.145-1.126 2.188-1.04.42-2.309 1.534 1.787 2.284-.216-1.198 1.957 1.04 2.188-2.38-.608-1.527 1.651ZM76.478 24.116l1.457-1.84-.78-2.07 2.19.679 1.859-1.346.027 2.355 1.84 1.457-2.33.664-.75 2.003-1.346-1.858-2.167-.044Z"/></g><rect x="59.98" y="52" width="20" height="30" rx="10" fill="#D1BEFF"/><rect x="68.981" y="57" width="2" height="8" rx="1" fill="#5019DA"/><defs><clipPath id="clip0_7_1612"><path fill="#fff" transform="rotate(-110.657 62.645 52.05)" d="M0 0h100v99.195H0z"/></clipPath></defs></svg>