<svg width="900" height="21" fill="none" xmlns="http://www.w3.org/2000/svg"><g clip-path="url('#clip0_7_2012')"><path d="M0 14.69c0-7.732 6.268-14 14-14h872c7.732 0 14 6.268 14 14v6H0v-6Z" fill="#6B30FF"/><g clip-path="url('#clip1_7_2012')" fill="#fff"><path d="M847.163 20.69H750v-37.234l97.163-29.433V20.69Z"/><path opacity=".85" d="M852.128-17.608V20.69h21.631v-44.68l-21.631 6.382Z"/><path opacity=".65" d="M880.496-5.55v26.24H900v-31.915L880.496-5.55Z"/></g><g clip-path="url('#clip2_7_2012')"><g clip-path="url('#clip3_7_2012')" fill="#fff"><path d="M52.482.69H150v37.234L52.482 67.357V.69Z"/><path opacity=".85" d="M47.872 38.988V.69h-21.63v44.68l21.63-6.382Z"/><path opacity=".65" d="M19.503 26.931V.69H0v31.915l19.503-5.674Z"/></g><path fill="#5019DA" fill-opacity=".81" d="M0 .69h900v20H0z"/></g></g><defs><clipPath id="clip0_7_2012"><path d="M0 14.69c0-7.732 6.268-14 14-14h872c7.732 0 14 6.268 14 14v6H0v-6Z" fill="#fff"/></clipPath><clipPath id="clip1_7_2012"><path fill="#fff" transform="translate(750 -45.977)" d="M0 0h150v66.667H0z"/></clipPath><clipPath id="clip2_7_2012"><path fill="#fff" transform="translate(0 .69)" d="M0 0h900v20H0z"/></clipPath><clipPath id="clip3_7_2012"><path fill="#fff" transform="translate(0 .69)" d="M0 0h150v66.667H0z"/></clipPath></defs></svg>