<svg width="165" height="166" fill="none" xmlns="http://www.w3.org/2000/svg"><g clip-path="url('#clip0_1_516')"><g clip-path="url('#clip1_1_516')"><mask id="mask0_1_516" style="mask-type:alpha" maskUnits="userSpaceOnUse" x="0" y="0" width="165" height="166"><path d="M165 .42H0v165h165V.42Z" fill="#FFF6F1"/></mask><g mask="url('#mask0_1_516')"><path d="M165 .42H0v165h165V.42Z" fill="#FFF6F1"/><path d="M63.89 66.668c0 3.078 1.228 6.031 3.411 8.208a11.663 11.663 0 0 0 8.233 3.4c3.089 0 6.05-1.222 8.234-3.4a11.591 11.591 0 0 0 3.41-8.209 11.59 11.59 0 0 0-3.41-8.208 11.661 11.661 0 0 0-8.234-3.4c-3.088 0-6.049 1.223-8.233 3.4a11.592 11.592 0 0 0-3.41 8.209Z" stroke="#FF7629" stroke-width="4" stroke-linecap="round" stroke-linejoin="round"/><path d="M64.263 63.742c-11.7 3.465-17.258 12.18-16.674 26.143v23.217c0 1.232.49 2.413 1.364 3.284a4.664 4.664 0 0 0 3.293 1.36h60.549c1.235 0 2.42-.489 3.294-1.36a4.639 4.639 0 0 0 1.364-3.284V92.29a4.643 4.643 0 0 0-1.956-3.799l-28.462-20.01M116.78 89.885H47.59M116.78 103.816H47.59M77.73 55.266a15.635 15.635 0 0 1 5.053-4.95 15.684 15.684 0 0 1 6.725-2.223" stroke="#FF7629" stroke-width="4" stroke-linecap="round" stroke-linejoin="round"/></g></g></g><defs><clipPath id="clip0_1_516"><rect y=".42" width="165" height="165" rx="16" fill="#fff"/></clipPath><clipPath id="clip1_1_516"><path fill="#fff" transform="translate(0 .42)" d="M0 0h165v165H0z"/></clipPath></defs></svg>