<svg width="329" height="330" fill="none" xmlns="http://www.w3.org/2000/svg"><g clip-path="url('#clip0_1_67')"><g clip-path="url('#clip1_1_67')"><mask id="mask0_1_67" style="mask-type:alpha" maskUnits="userSpaceOnUse" x="0" y="0" width="329" height="330"><path d="M329 .34H0v329h329V.34Z" fill="#FFF6F1"/></mask><g mask="url('#mask0_1_67')"><path d="M329 .34H0v329h329V.34Z" fill="#FFF6F1"/><path d="M125.034 130.741c.52 0 1.03.153 1.463.441a2.623 2.623 0 0 1-.955 4.755 2.621 2.621 0 0 1-1.52-.153 2.622 2.622 0 0 1-1.619-2.427 2.621 2.621 0 0 1 .769-1.858 2.632 2.632 0 0 1 1.862-.765" stroke="#FF7629" stroke-width="7.976" stroke-linecap="round" stroke-linejoin="round"/><path d="M153.273 138.61a2.632 2.632 0 0 1 2.431 1.619 2.612 2.612 0 0 1-.571 2.858 2.63 2.63 0 0 1-2.867.569 2.618 2.618 0 0 1-1.425-3.428 2.607 2.607 0 0 1 1.424-1.421 2.616 2.616 0 0 1 1.008-.197ZM203.966 138.61a2.625 2.625 0 0 1 2.581 3.134 2.624 2.624 0 0 1-2.068 2.061 2.629 2.629 0 0 1-2.946-3.577c.133-.319.326-.608.571-.853a2.62 2.62 0 0 1 1.862-.765ZM179.599 128.118a2.632 2.632 0 0 1 2.432 1.619 2.618 2.618 0 0 1-.572 2.858 2.64 2.64 0 0 1-4.047-.398 2.616 2.616 0 0 1-.246-2.461c.133-.319.326-.608.571-.853a2.624 2.624 0 0 1 1.862-.765Z" fill="#FF7629" stroke="#FF7629" stroke-width="7.976" stroke-linecap="round" stroke-linejoin="round"/><path d="M85.569 159.594H243.43v31.477H85.568v-31.477ZM232.906 159.098v-8.674a43.173 43.173 0 0 0-3.306-16.569 43.28 43.28 0 0 0-9.414-14.045 43.429 43.429 0 0 0-14.089-9.384 43.546 43.546 0 0 0-16.62-3.294h-49.955a43.543 43.543 0 0 0-16.62 3.294 43.429 43.429 0 0 0-14.089 9.384 43.277 43.277 0 0 0-9.415 14.045 43.179 43.179 0 0 0-3.306 16.569v7.796M232.906 192.214v9.349a20.952 20.952 0 0 1-6.164 14.838 21.082 21.082 0 0 1-14.884 6.147h-94.717a21.079 21.079 0 0 1-14.884-6.147 20.952 20.952 0 0 1-6.165-14.838v-8.08" stroke="#FF7629" stroke-width="7.976" stroke-linecap="round" stroke-linejoin="round"/></g></g></g><defs><clipPath id="clip0_1_67"><rect y=".34" width="329" height="329" rx="26" fill="#fff"/></clipPath><clipPath id="clip1_1_67"><path fill="#fff" transform="translate(0 .34)" d="M0 0h329v329H0z"/></clipPath></defs></svg>