<svg width="329" height="330" fill="none" xmlns="http://www.w3.org/2000/svg"><g clip-path="url('#clip0_1_114')"><g clip-path="url('#clip1_1_114')"><mask id="mask0_1_114" style="mask-type:alpha" maskUnits="userSpaceOnUse" x="0" y="0" width="329" height="330"><path d="M329 .34H0v329h329V.34Z" fill="#FFF6F1"/></mask><g mask="url('#mask0_1_114')"><path d="M329 .34H0v329h329V.34Z" fill="#FFF6F1"/><path d="M127.394 132.434a23.115 23.115 0 0 0 6.8 16.368 23.255 23.255 0 0 0 16.417 6.779 23.25 23.25 0 0 0 16.417-6.779 23.112 23.112 0 0 0 6.801-16.368 23.11 23.11 0 0 0-6.801-16.368 23.25 23.25 0 0 0-16.417-6.779 23.255 23.255 0 0 0-16.417 6.779 23.113 23.113 0 0 0-6.8 16.368Z" stroke="#FF7629" stroke-width="7.976" stroke-linecap="round" stroke-linejoin="round"/><path d="M128.137 126.601c-23.33 6.909-34.412 24.284-33.248 52.127v46.294c0 2.456.979 4.811 2.72 6.547a9.299 9.299 0 0 0 6.567 2.712h120.731a9.298 9.298 0 0 0 6.567-2.712 9.242 9.242 0 0 0 2.72-6.547v-41.498a9.269 9.269 0 0 0-3.9-7.574l-56.75-39.9M232.851 178.729H94.89M232.851 206.505H94.89M154.989 109.7a31.18 31.18 0 0 1 10.076-9.87 31.277 31.277 0 0 1 13.409-4.432" stroke="#FF7629" stroke-width="7.976" stroke-linecap="round" stroke-linejoin="round"/></g></g></g><defs><clipPath id="clip0_1_114"><rect y=".34" width="329" height="329" rx="26" fill="#fff"/></clipPath><clipPath id="clip1_1_114"><path fill="#fff" transform="translate(0 .34)" d="M0 0h329v329H0z"/></clipPath></defs></svg>