<svg width="165" height="166" fill="none" xmlns="http://www.w3.org/2000/svg"><g clip-path="url('#clip0_1_441')"><g clip-path="url('#clip1_1_441')"><mask id="mask0_1_441" style="mask-type:alpha" maskUnits="userSpaceOnUse" x="0" y="0" width="165" height="166"><path d="M165 .56H0v165h165V.56Z" fill="#FFF6F1"/></mask><g mask="url('#mask0_1_441')"><path d="M165 .56H0v165h165V.56Z" fill="#FFF6F1"/><path d="M100.773 53.178h3.183c2.323-.117 4.6.68 6.339 2.221a8.83 8.83 0 0 1 2.958 6.015 8.83 8.83 0 0 1-2.946 6.038 8.883 8.883 0 0 1-6.351 2.233h-3.112M92.405 88.972a3.14 3.14 0 0 0-2.754-1.996H75.349a3.147 3.147 0 0 0-2.897 1.996l-7.831 20.322a3.093 3.093 0 0 0 1.358 3.743 30.21 30.21 0 0 0 16.325 4.788c5.79 0 11.457-1.662 16.324-4.788a3.093 3.093 0 0 0 1.359-3.743l-7.581-20.322Z" stroke="#FF7629" stroke-width="4" stroke-linecap="round" stroke-linejoin="round"/><path d="m72.13 89.543-9.476-3.565a2.37 2.37 0 0 0-2.611.642L49.029 98.812a2.172 2.172 0 0 0 0 2.996 26.965 26.965 0 0 0 15.984 6.88" stroke="#FF7629" stroke-width="4" stroke-linecap="round" stroke-linejoin="round"/><path d="M49.243 98.599a22.021 22.021 0 0 1-5.97-9.659 21.968 21.968 0 0 1-.36-11.34 2.743 2.743 0 0 1 1.896-2.032 2.397 2.397 0 0 1 2.682.714A22.428 22.428 0 0 0 59.15 87.51M92.656 89.615l9.691-3.744a2.37 2.37 0 0 1 2.611.642l11.014 12.3a2.172 2.172 0 0 1 0 2.994 26.76 26.76 0 0 1-16.235 6.881" stroke="#FF7629" stroke-width="4" stroke-linecap="round" stroke-linejoin="round"/><path d="M115.757 98.599a22.016 22.016 0 0 0 5.971-9.659 21.978 21.978 0 0 0 .359-11.34 2.754 2.754 0 0 0-1.896-2.032 2.407 2.407 0 0 0-2.682.713 22.43 22.43 0 0 1-11.657 11.23M100.773 77.707V53.642a5.34 5.34 0 0 0-1.571-3.781 5.373 5.373 0 0 0-3.793-1.567h-26.82a5.373 5.373 0 0 0-3.793 1.567 5.34 5.34 0 0 0-1.571 3.781v23.78" stroke="#FF7629" stroke-width="4" stroke-linecap="round" stroke-linejoin="round"/></g></g></g><defs><clipPath id="clip0_1_441"><rect y=".56" width="165" height="165" rx="16" fill="#fff"/></clipPath><clipPath id="clip1_1_441"><path fill="#fff" transform="translate(0 .56)" d="M0 0h165v165H0z"/></clipPath></defs></svg>