<svg width="329" height="330" fill="none" xmlns="http://www.w3.org/2000/svg"><g clip-path="url('#clip0_1_42')"><g clip-path="url('#clip1_1_42')"><mask id="mask0_1_42" style="mask-type:alpha" maskUnits="userSpaceOnUse" x="0" y="0" width="329" height="330"><path d="M329 .34H0v329h329V.34Z" fill="#FFF6F1"/></mask><g mask="url('#mask0_1_42')"><path d="M329 .34H0v329h329V.34Z" fill="#FFF6F1"/><path d="M200.935 105.258h6.347a17.72 17.72 0 0 1 12.641 4.428 17.611 17.611 0 0 1 5.898 11.993 17.604 17.604 0 0 1-5.876 12.039 17.71 17.71 0 0 1-12.663 4.453h-6.204M184.25 176.629a6.254 6.254 0 0 0-2.158-2.794 6.287 6.287 0 0 0-3.332-1.186h-28.522a6.274 6.274 0 0 0-5.775 3.98l-15.616 40.52a6.173 6.173 0 0 0 2.71 7.464 60.239 60.239 0 0 0 32.55 9.547 60.233 60.233 0 0 0 32.549-9.547 6.188 6.188 0 0 0 2.715-3.241 6.161 6.161 0 0 0-.005-4.223l-15.116-40.52Z" stroke="#FF7629" stroke-width="7.976" stroke-linecap="round" stroke-linejoin="round"/><path d="m143.823 177.767-18.896-7.109a4.718 4.718 0 0 0-5.205 1.28l-21.961 24.311a4.33 4.33 0 0 0 0 5.972 53.777 53.777 0 0 0 31.872 13.72" stroke="#FF7629" stroke-width="7.976" stroke-linecap="round" stroke-linejoin="round"/><path d="M98.188 195.823a43.909 43.909 0 0 1-11.906-19.259 43.802 43.802 0 0 1-.715-22.611 5.47 5.47 0 0 1 1.339-2.537 5.507 5.507 0 0 1 2.44-1.516 4.802 4.802 0 0 1 2.902-.139c.958.255 1.813.8 2.446 1.562a44.722 44.722 0 0 0 23.246 22.392M184.751 177.909l19.324-7.464a4.715 4.715 0 0 1 5.205 1.28l21.961 24.524a4.325 4.325 0 0 1 0 5.972 53.348 53.348 0 0 1-32.371 13.72" stroke="#FF7629" stroke-width="7.976" stroke-linecap="round" stroke-linejoin="round"/><path d="M230.812 195.823a43.904 43.904 0 0 0 11.905-19.259 43.789 43.789 0 0 0 .716-22.611 5.461 5.461 0 0 0-1.339-2.537 5.504 5.504 0 0 0-2.44-1.516 4.805 4.805 0 0 0-2.902-.139c-.958.255-1.813.8-2.446 1.562a44.726 44.726 0 0 1-23.245 22.392M200.935 154.166v-47.984c0-2.827-1.126-5.54-3.132-7.54a10.714 10.714 0 0 0-7.563-3.123h-53.478a10.714 10.714 0 0 0-7.563 3.124 10.645 10.645 0 0 0-3.132 7.539v47.415" stroke="#FF7629" stroke-width="7.976" stroke-linecap="round" stroke-linejoin="round"/></g></g></g><defs><clipPath id="clip0_1_42"><rect y=".34" width="329" height="329" rx="26" fill="#fff"/></clipPath><clipPath id="clip1_1_42"><path fill="#fff" transform="translate(0 .34)" d="M0 0h329v329H0z"/></clipPath></defs></svg>