<svg width="165" height="166" fill="none" xmlns="http://www.w3.org/2000/svg"><g clip-path="url('#clip0_1_467')"><g clip-path="url('#clip1_1_467')"><mask id="mask0_1_467" style="mask-type:alpha" maskUnits="userSpaceOnUse" x="0" y="0" width="165" height="166"><path d="M165 .56H0v165h165V.56Z" fill="#FFF6F1"/></mask><g mask="url('#mask0_1_467')"><path d="M165 .56H0v165h165V.56Z" fill="#FFF6F1"/><path d="M62.707 65.959a1.324 1.324 0 0 1 1.22.812 1.316 1.316 0 0 1-1.727 1.717 1.317 1.317 0 0 1 .507-2.533" stroke="#FF7629" stroke-width="4" stroke-linecap="round" stroke-linejoin="round"/><path d="M76.87 69.905a1.322 1.322 0 0 1 1.219.812 1.31 1.31 0 0 1-.287 1.433 1.32 1.32 0 0 1-2.153-1.434 1.306 1.306 0 0 1 .715-.712c.16-.066.332-.1.506-.099ZM102.293 69.905a1.32 1.32 0 0 1 1.295 1.572 1.315 1.315 0 0 1-1.037 1.033 1.324 1.324 0 0 1-1.355-.559 1.314 1.314 0 0 1 1.097-2.046ZM90.072 64.643a1.324 1.324 0 0 1 1.22.812 1.313 1.313 0 0 1-.962 1.793 1.323 1.323 0 0 1-1.355-.56 1.311 1.311 0 0 1 .163-1.661 1.323 1.323 0 0 1 .934-.384Z" fill="#FF7629" stroke="#FF7629" stroke-width="4" stroke-linecap="round" stroke-linejoin="round"/><path d="M42.914 80.429h79.172v15.787H42.914V80.428ZM116.807 80.18v-4.35c0-2.852-.563-5.675-1.658-8.31a21.704 21.704 0 0 0-4.722-7.043 21.765 21.765 0 0 0-7.066-4.706 21.832 21.832 0 0 0-8.335-1.653H69.974c-2.86 0-5.692.561-8.335 1.652a21.776 21.776 0 0 0-7.066 4.706 21.7 21.7 0 0 0-4.722 7.044 21.654 21.654 0 0 0-1.658 8.31v3.91M116.807 96.788v4.689c0 2.791-1.112 5.468-3.092 7.442a10.572 10.572 0 0 1-7.464 3.082H58.748a10.57 10.57 0 0 1-7.464-3.082 10.51 10.51 0 0 1-3.092-7.442v-4.052" stroke="#FF7629" stroke-width="4" stroke-linecap="round" stroke-linejoin="round"/></g></g></g><defs><clipPath id="clip0_1_467"><rect y=".56" width="165" height="165" rx="16" fill="#fff"/></clipPath><clipPath id="clip1_1_467"><path fill="#fff" transform="translate(0 .56)" d="M0 0h165v165H0z"/></clipPath></defs></svg>