<svg width="329" height="330" fill="none" xmlns="http://www.w3.org/2000/svg"><g clip-path="url('#clip0_1_92')"><g clip-path="url('#clip1_1_92')"><mask id="mask0_1_92" style="mask-type:alpha" maskUnits="userSpaceOnUse" x="0" y="0" width="329" height="330"><path d="M329 .34H0v329h329V.34Z" fill="#FFF6F1"/></mask><g mask="url('#mask0_1_92')"><path d="M329 .34H0v329h329V.34Z" fill="#FFF6F1"/><path d="M217.114 224.003a12.906 12.906 0 0 1-4.137 8.43 12.976 12.976 0 0 1-8.77 3.414h-77.802a12.974 12.974 0 0 1-8.767-3.414 12.9 12.9 0 0 1-4.134-8.43L94.073 100.811a6.479 6.479 0 0 1 1.538-4.721 6.517 6.517 0 0 1 4.434-2.258h128.423a6.49 6.49 0 0 1 4.57 1.888 6.45 6.45 0 0 1 1.902 4.552c.01.178.01.355 0 .532l-17.826 123.199Z" stroke="#FF7629" stroke-width="7.976" stroke-linecap="round" stroke-linejoin="round"/><path d="m202.781 193.214-18.026-10.035c-2.914-1.622-6.595-.582-8.222 2.323l-8.962 16.004a6.014 6.014 0 0 0 2.33 8.197l18.025 10.033c2.914 1.622 6.595.582 8.222-2.322l8.963-16.003a6.015 6.015 0 0 0-2.33-8.197ZM156.161 180.477l-7.193-17.256c-1.161-2.789-4.372-4.11-7.168-2.951l-15.411 6.385a5.46 5.46 0 0 0-2.96 7.147l7.192 17.256c1.162 2.789 4.372 4.11 7.169 2.951l15.411-6.384a5.462 5.462 0 0 0 2.96-7.148ZM101.092 145.31h127.395" stroke="#FF7629" stroke-width="7.976" stroke-linecap="round" stroke-linejoin="round"/></g></g></g><defs><clipPath id="clip0_1_92"><rect y=".34" width="329" height="329" rx="26" fill="#fff"/></clipPath><clipPath id="clip1_1_92"><path fill="#fff" transform="translate(0 .34)" d="M0 0h329v329H0z"/></clipPath></defs></svg>