<svg width="165" height="166" fill="none" xmlns="http://www.w3.org/2000/svg"><g clip-path="url('#clip0_1_493')"><g clip-path="url('#clip1_1_493')"><mask id="mask0_1_493" style="mask-type:alpha" maskUnits="userSpaceOnUse" x="0" y="0" width="165" height="166"><path d="M165 .42H0v165h165V.42Z" fill="#FFF6F1"/></mask><g mask="url('#mask0_1_493')"><path d="M165 .42H0v165h165V.42Z" fill="#FFF6F1"/><path d="M108.887 112.591a6.477 6.477 0 0 1-2.075 4.228 6.503 6.503 0 0 1-4.398 1.712h-39.02a6.507 6.507 0 0 1-4.396-1.712 6.468 6.468 0 0 1-2.073-4.228l-9.746-61.783c-.067-.86.21-1.712.772-2.368a3.269 3.269 0 0 1 2.224-1.132h64.406c.859.001 1.683.341 2.292.947.608.605.951 1.426.954 2.283a2.37 2.37 0 0 1 0 .266l-8.94 61.787Z" stroke="#FF7629" stroke-width="4" stroke-linecap="round" stroke-linejoin="round"/><path d="m101.699 97.15-9.04-5.032a3.035 3.035 0 0 0-4.124 1.165l-4.495 8.025a3.016 3.016 0 0 0 1.169 4.111l9.04 5.032a3.036 3.036 0 0 0 4.123-1.164l4.495-8.026a3.017 3.017 0 0 0-1.168-4.111ZM78.318 90.762l-3.608-8.654a2.753 2.753 0 0 0-3.594-1.48l-7.73 3.202a2.738 2.738 0 0 0-1.484 3.584l3.607 8.655a2.754 2.754 0 0 0 3.596 1.48l7.728-3.202a2.74 2.74 0 0 0 1.485-3.585ZM50.7 73.125h63.89" stroke="#FF7629" stroke-width="4" stroke-linecap="round" stroke-linejoin="round"/></g></g></g><defs><clipPath id="clip0_1_493"><rect y=".42" width="165" height="165" rx="16" fill="#fff"/></clipPath><clipPath id="clip1_1_493"><path fill="#fff" transform="translate(0 .42)" d="M0 0h165v165H0z"/></clipPath></defs></svg>