<svg width="710" height="221" fill="none" xmlns="http://www.w3.org/2000/svg"><g clip-path="url('#clip0_1_309')"><g clip-path="url('#clip1_1_309')"><path d="M226 .766H0V102.11h226V.766Z" fill="#F0FBF6"/><path d="M149.475 54.915c0-2.925-2.344-5.223-5.3-5.223-2.916 0-5.302 2.298-5.302 5.223s2.386 5.223 5.302 5.223c2.956 0 5.3-2.298 5.3-5.223Zm4.325-8.552v17.118h-4.409v-1.546c-1.534 1.268-3.473 1.978-5.579 1.978-5.217 0-9.29-3.997-9.29-8.998 0-4.986 4.087-8.998 9.29-8.998 2.106 0 4.045.71 5.579 1.978v-1.532h4.409Zm14.646 13.232h-3.32c-1.004 0-1.66-.431-1.66-1.35v-8.01h4.966v-3.872h-4.966v-4.875h-4.45v4.875h-3.348v3.886h3.348v9.096c0 2.298 1.66 4.122 4.646 4.122h4.77v-3.872h.014Zm10.043 4.318c5.091 0 7.965-2.382 7.965-5.669 0-2.34-1.702-4.08-5.259-4.833l-3.766-.752c-2.177-.39-2.874-.794-2.874-1.588 0-1.03 1.047-1.657 2.986-1.657 2.106 0 3.64.557 4.087 2.451h4.407c-.237-3.566-2.873-5.948-8.201-5.948-4.603 0-7.84 1.867-7.84 5.474 0 2.494 1.785 4.123 5.621 4.917l4.199.947c1.66.32 2.107.752 2.107 1.421 0 1.072-1.256 1.741-3.279 1.741-2.538 0-4.003-.557-4.561-2.451h-4.449c.655 3.565 3.361 5.947 8.857 5.947Zm-61.752-23.622h16.613v3.955h-12.122v5.669h11.801v3.844h-11.801v5.739h12.122v3.955h-16.613V40.29Z" fill="#06C167"/><path d="M108.841 49.553v-3.106h-1.186c-1.883 0-3.278.863-4.116 2.214v-2.089h-3.375V63.44h3.404v-9.582c0-2.619 1.618-4.304 3.85-4.304h1.423Zm-24.495 3.9c.614-2.577 2.734-4.304 5.259-4.304 2.525 0 4.659 1.713 5.23 4.304H84.347Zm5.329-7.201c-5.022 0-8.844 3.997-8.844 8.76 0 5.029 3.975 8.804 9.15 8.804 3.139 0 5.706-1.351 7.421-3.608l-2.469-1.783c-1.283 1.686-2.97 2.48-4.966 2.48a5.739 5.739 0 0 1-5.705-4.792h14.005v-1.086c.014-5.042-3.627-8.775-8.592-8.775ZM70.202 60.905c-3.306 0-5.943-2.619-5.943-5.85 0-3.273 2.665-5.85 5.943-5.85 3.236 0 5.9 2.577 5.9 5.85.014 3.231-2.65 5.85-5.9 5.85Zm-9.276 2.548H64.3v-2.117c1.549 1.56 3.753 2.508 6.138 2.508 5.063 0 9.039-3.942 9.039-8.803 0-4.89-3.976-8.83-9.04-8.83-2.398 0-4.56.96-6.109 2.506v-8.426h-3.403v23.163Zm-11.983-2.716c3.278 0 5.803-2.479 5.803-6.156v-14.29h3.543V63.44h-3.515v-2.145c-1.59 1.615-3.78 2.548-6.25 2.548-5.063 0-8.94-3.607-8.94-9.067V40.29h3.557v14.291c0 3.747 2.496 6.156 5.802 6.156Z" fill="#142328"/></g></g><g clip-path="url('#clip2_1_309')"><g clip-path="url('#clip3_1_309')"><path d="M468 .607H242v101.346h226V.607Z" fill="#F6F6F6"/><path d="M276.508 64.09V39.12h10.4c4.483 0 7.388 3.296 7.388 7.589 0 4.358-2.913 7.584-7.388 7.584h-6.422v9.799h-3.978Zm3.974-21.59v8.472h6.255c1.989 0 3.586-2.035 3.586-4.252 0-2.218-1.597-4.22-3.586-4.22h-6.255Zm33.884 16.3c1.28-.247 2.523-.495 3.766-.711.248 1.42 1.1 3.12 3.973 3.12.64 0 3.802-.247 3.802-2.514 0-4.293-11.003.139-11.003-7.552 0-3.052 3.053-5.355 6.887-5.355 3.835 0 7.103 1.595 7.633 5.603-1.275.212-2.518.46-3.761.708-.249-2.234-1.63-3.048-3.766-3.048-1.882 0-3.158.993-3.158 2.092 0 1.453 1.349 1.843 3.48 2.055 4.047.427 7.49 1.31 7.49 5.497 0 3.756-3.301 5.742-7.6 5.742-4.613 0-7.241-2.41-7.743-5.636Zm16.342-9.765v-2.91h3.089v-5.163h3.838v5.176h3.729v2.897h-3.729v10.173c0 1.42.428 1.843 1.671 1.843.53 0 1.704-.069 1.704-.069v3.109s-1.374.142-2.735.142c-3.374 0-4.482-1.81-4.482-5.249v-9.949h-3.085Zm24.006 5.046c0-2.73-.603-5.034-3.48-5.034-2.734 0-3.48 2.303-3.48 5.034v10.01h-3.835V46.138h3.496l.355 1.949c.534-.993 2.665-2.303 4.76-2.303 2.979 0 4.402 1.627 5.005 2.694.957-1.596 3.3-2.694 5.395-2.694 4.89 0 6.394 2.979 6.394 8.297v10.01h-3.814V54.08c0-2.694-.746-5.07-3.481-5.07-2.877 0-3.48 2.303-3.48 5.07v10.01h-3.835V54.08Zm21.553-1.79c-1.222-.212-2.518-.497-3.797-.709.407-3.971 3.668-5.814 7.42-5.814 5.078 0 7.707 2.482 7.707 7.373v6.242c0 1.062.212 1.664.957 1.664.313-.003.623-.051.922-.142v3.12c-.74.2-1.504.297-2.27.285a2.966 2.966 0 0 1-2.066-.661 2.955 2.955 0 0 1-1.06-1.89 7.472 7.472 0 0 1-5.611 2.657c-4.154 0-6.639-2.303-6.639-5.697 0-2.799 2.592-5.35 7.335-5.35h4.617V52.29c0-1.383-.571-3.255-3.871-3.255-2.201 0-3.549 1.099-3.622 3.255h-.022Zm7.515 4.821v-.887h-4.246c-3.162 0-3.798 1.595-3.798 2.482 0 1.221.815 2.483 3.158 2.483 3.126 0 4.866-2.129 4.866-4.07l.02-.008Zm-80.141 7.353a9.354 9.354 0 0 1-5.192-1.573 9.318 9.318 0 0 1-1.414-14.357 9.356 9.356 0 0 1 14.377 1.418 9.322 9.322 0 0 1 1.573 5.186 9.327 9.327 0 0 1-2.74 6.593 9.353 9.353 0 0 1-6.604 2.733Zm0-15.104a5.79 5.79 0 0 0-5.347 3.567 5.772 5.772 0 0 0 1.255 6.296 5.786 5.786 0 0 0 6.306 1.253 5.77 5.77 0 0 0 1.876-9.423 5.794 5.794 0 0 0-4.09-1.693Zm109.698 8.48c1.17.317 2.344.671 3.513 1.03-.815 2.587-3.26 5.566-8.15 5.566-4.89 0-8.448-3.797-8.448-9.327 0-5.53 3.26-9.326 8.273-9.326 5.012 0 8.093 3.333 8.093 8.76.01.569-.013 1.136-.069 1.702h-12.336c.069 2.624 1.878 4.964 4.483 4.964 1.883 0 3.728-.887 4.654-3.37h-.013Zm-.802-4.476c-.107-2.657-1.382-4.362-4.01-4.362-2.559 0-4.015 2.128-4.12 4.362h8.13Zm5.737 5.436c1.28-.248 2.518-.497 3.762-.708.248 1.416 1.105 3.121 3.977 3.121.64 0 3.802-.248 3.802-2.519 0-4.289-11.003.142-11.003-7.552 0-3.048 3.053-5.355 6.887-5.355 3.835 0 7.099 1.6 7.633 5.603-1.279.212-2.523.46-3.761.708-.249-2.234-1.631-3.048-3.766-3.048-1.882 0-3.158.993-3.158 2.092 0 1.453 1.349 1.843 3.476 2.055 4.051.427 7.495 1.314 7.495 5.497 0 3.76-3.305 5.742-7.601 5.742-4.613 0-7.241-2.41-7.743-5.636Zm-29.365-9.766v-2.91h3.089v-5.163h3.835v5.176h3.745v2.897h-3.729v10.173c0 1.42.428 1.843 1.67 1.843.53 0 1.704-.069 1.704-.069v3.109s-1.373.142-2.734.142c-3.375 0-4.483-1.81-4.483-5.249v-9.949h-3.097Z" fill="#000"/></g></g><g clip-path="url('#clip4_1_309')"><g clip-path="url('#clip5_1_309')"><path d="M711.109.3H482.891v102.34h228.218V.3Z" fill="#FFE6E3"/><path d="M562.351 47.784v8.564h2.139a4.09 4.09 0 0 0 2.908-1.279 4.28 4.28 0 0 0 1.172-3.01 4.203 4.203 0 0 0-1.155-3.024 4.019 4.019 0 0 0-2.925-1.252h-2.139Zm2.139-2.685c3.986 0 7.001 3.083 7.001 6.96 0 3.876-3.015 6.977-7.001 6.977h-4.717a.339.339 0 0 1-.24-.103.347.347 0 0 1-.098-.243V45.459c0-.192.152-.347.338-.347l4.717-.013Zm17.274 11.547c1.811.006 3.445-1.106 4.142-2.817a4.662 4.662 0 0 0-.957-4.994 4.396 4.396 0 0 0-4.875-1.004c-1.673.705-2.765 2.374-2.769 4.228 0 2.526 1.993 4.575 4.459 4.587Zm.001-11.863c4.196 0 7.403 3.301 7.403 7.276 0 3.974-3.207 7.276-7.404 7.276-4.195 0-7.375-3.285-7.375-7.276 0-3.991 3.208-7.276 7.376-7.276Zm17.593 11.863c2.468-.006 4.465-2.058 4.463-4.584-.004-2.528-2.005-4.575-4.471-4.577-2.47 0-4.471 2.046-4.475 4.574 0 1.217.472 2.384 1.313 3.245a4.424 4.424 0 0 0 3.17 1.342Zm-.001-11.863c4.183 0 7.39 3.285 7.39 7.276 0 3.99-3.221 7.276-7.39 7.276-4.167 0-7.402-3.285-7.402-7.276 0-3.991 3.207-7.276 7.402-7.276Zm17.172 3h-3.016v3.687h3.016a1.74 1.74 0 0 0 1.294-.493 1.83 1.83 0 0 0 .553-1.298 1.866 1.866 0 0 0-.524-1.357 1.76 1.76 0 0 0-1.323-.535v-.003Zm-5.933-2.324c0-.192.152-.347.339-.347h5.677c2.706 0 4.665 2.03 4.665 4.58.021 1.725-.922 3.31-2.428 4.082l2.618 4.74a.353.353 0 0 1 .013.37.332.332 0 0 1-.321.17h-2.297a.338.338 0 0 1-.308-.188l-2.523-4.69h-2.529v4.503a.34.34 0 0 1-.338.347h-2.214a.346.346 0 0 1-.314-.215.33.33 0 0 1-.024-.132l-.015-13.219-.001-.001Zm18.284 2.39v8.565h2.138a4.083 4.083 0 0 0 2.909-1.274 4.28 4.28 0 0 0 1.174-3.008 4.214 4.214 0 0 0-1.152-3.03 4.005 4.005 0 0 0-2.93-1.252h-2.139Zm2.138-2.688c3.985 0 7.001 3.087 7.001 6.97 0 3.885-3.016 6.972-7.001 6.972h-4.703a.34.34 0 0 1-.337-.348v-13.23c0-.192.151-.348.337-.348l4.703-.016Zm15.894 3.406-1.654 4.58h3.306l-1.652-4.58Zm-2.625 7.168-1.083 3.049a.333.333 0 0 1-.337.24h-2.349a.339.339 0 0 1-.309-.146.355.355 0 0 1-.029-.347l5.075-13.218a.342.342 0 0 1 .338-.229h2.628a.338.338 0 0 1 .339.23l5.075 13.217a.35.35 0 0 1-.165.46.333.333 0 0 1-.174.031h-2.347a.336.336 0 0 1-.338-.24l-1.084-3.048h-5.24Zm12.071-6.871c0-2.189 1.847-4.081 4.765-4.081a5.957 5.957 0 0 1 4.231 1.632.346.346 0 0 1 .109.255.348.348 0 0 1-.109.255l-1.301 1.323a.343.343 0 0 1-.24.101.334.334 0 0 1-.24-.101 3.379 3.379 0 0 0-2.257-.912c-1.167 0-2.03.694-2.03 1.494 0 2.587 6.896 1.095 6.896 6.073-.004 2.523-1.865 4.432-5.156 4.432a6.828 6.828 0 0 1-4.92-2.023.344.344 0 0 1-.08-.116.333.333 0 0 1-.029-.14c0-.047.009-.094.029-.138a.345.345 0 0 1 .08-.116l1.259-1.29a.33.33 0 0 1 .49 0 4.297 4.297 0 0 0 2.974 1.242c1.459 0 2.419-.797 2.419-1.796 0-2.588-6.892-1.094-6.892-6.073l.002-.021Zm22.327-3.422v5.23h-5.836v-5.23a.367.367 0 0 0-.024-.132.373.373 0 0 0-.073-.111.342.342 0 0 0-.241-.103h-2.214a.346.346 0 0 0-.241.103.335.335 0 0 0-.072.111.313.313 0 0 0-.025.132v13.215c0 .192.153.348.338.348h2.214a.344.344 0 0 0 .338-.348v-5.313h5.832v5.313c0 .192.152.348.337.348h2.215a.343.343 0 0 0 .338-.348V45.442a.347.347 0 0 0-.208-.319.34.34 0 0 0-.13-.028h-2.215a.345.345 0 0 0-.333.346Zm-131.676 1.417c-1.535-2.842-4.54-4.611-7.807-4.6h-24.719a.853.853 0 0 0-.781.52.832.832 0 0 0 .183.91l5.385 5.336a2.552 2.552 0 0 0 1.798.737h17.426c1.242-.013 2.257.97 2.27 2.192.013 1.223-.983 2.225-2.225 2.237h-12.014a.849.849 0 0 0-.783.518.827.827 0 0 0 .183.913l5.388 5.34a2.552 2.552 0 0 0 1.797.735h5.434c7.069 0 12.415-7.447 8.465-14.84" fill="#EB1700"/></g></g><g clip-path="url('#clip6_1_309')"><g clip-path="url('#clip7_1_309')"><path d="M226 119.185H0V220.53h226V119.185Z" fill="#FFF0ED"/><path d="M144.033 158.567a3.915 3.915 0 0 1 2.629.928 4.834 4.834 0 0 1 1.482 2.526 10.47 10.47 0 0 1 .166 3.755 20.548 20.548 0 0 1-1.259 4.852 23.53 23.53 0 0 1-2.17 4.402 22.942 22.942 0 0 1-1.195 1.693.08.08 0 0 0 .004.096.082.082 0 0 0 .097.019c.236-.128.467-.266.692-.412.533-.34 1.046-.707 1.537-1.1a8.279 8.279 0 0 0 2.768-4.152 47.44 47.44 0 0 1 .937-2.911 50.003 50.003 0 0 1 1.778-4.381 30.371 30.371 0 0 1 1.523-2.945 2.825 2.825 0 0 1 1.869-1.334 4.52 4.52 0 0 1 2.104.031 3.19 3.19 0 0 1 1.62.971c.439.455.55 1.127.276 1.693-.08.207-.267.664-.613 1.386-.347.721-.709 1.595-1.121 2.566a98.61 98.61 0 0 0-1.259 3.126 25.588 25.588 0 0 0-.963 3.003 7.061 7.061 0 0 0-.255 2.188c.045.542.257.542.366.542.337-.042.647-.194.883-.432.469-.385.913-.8 1.328-1.241.469-.491.909-1.006 1.316-1.545.373-.494.695-.93.955-1.3.11-.157.258-.286.43-.373a1.27 1.27 0 0 1 1.597.404l-.062.02a.918.918 0 0 1-.017 1.039c-.277.427-.762 1.146-1.481 2.194a31.001 31.001 0 0 1-2.537 3.181 20.239 20.239 0 0 1-3.2 2.874 6.181 6.181 0 0 1-3.602 1.297c-1.076 0-1.876-.365-2.385-1.093a4.594 4.594 0 0 1-.692-2.649v-.173a.157.157 0 0 0-.021-.084.158.158 0 0 0-.153-.072.146.146 0 0 0-.081.035c-.23.178-.462.356-.693.531a20.722 20.722 0 0 1-4.792 2.591 14.351 14.351 0 0 1-5.22.934c-.25 0-.505-.016-.762-.016-1.273-.004-2.219-.401-2.811-1.176a4.181 4.181 0 0 1-.286-.423.15.15 0 0 0-.066-.063.153.153 0 0 0-.09-.016.152.152 0 0 0-.083.036.162.162 0 0 0-.049.077c-.196.629-.373 1.243-.543 1.825-.366 1.256-.688 2.353-.948 3.322-.259.968-.505 1.906-.693 2.661a21.957 21.957 0 0 0-.386 1.825v.018a1.52 1.52 0 0 1-1.228 1.269 3.037 3.037 0 0 1-.644.068 3.79 3.79 0 0 1-1.239-.224 4.267 4.267 0 0 1-1.731-1.165 3.009 3.009 0 0 1-.784-2.109 9.954 9.954 0 0 1 .38-1.896 99.788 99.788 0 0 1 1.004-3.725c.27-.989.615-2.066.962-3.217a.15.15 0 0 0-.055-.171.152.152 0 0 0-.184 0 21.193 21.193 0 0 1-4.153 2.148 14.33 14.33 0 0 1-5.221.936c-.248 0-.504-.018-.76-.018-1.275-.002-2.218-.399-2.81-1.175a4.326 4.326 0 0 1-.289-.423.155.155 0 0 0-.155-.078.154.154 0 0 0-.131.111c-.196.634-.375 1.243-.544 1.827a408.678 408.678 0 0 0-.948 3.321 85.9 85.9 0 0 0-.708 2.665 21.842 21.842 0 0 0-.388 1.825v.017a1.523 1.523 0 0 1-1.229 1.27c-.21.045-.425.068-.64.067a3.809 3.809 0 0 1-1.238-.223 4.287 4.287 0 0 1-1.731-1.165 3.016 3.016 0 0 1-.785-2.109c.065-.643.193-1.278.38-1.897a141.04 141.04 0 0 1 1.827-6.498.14.14 0 0 0-.003-.099.149.149 0 0 0-.161-.097.153.153 0 0 0-.091.041c-.514.464-1.052.902-1.613 1.31a6.059 6.059 0 0 1-3.564 1.31c-1.073 0-1.875-.365-2.384-1.093a3.595 3.595 0 0 1-.482-1.016.47.47 0 0 0-.584-.311.47.47 0 0 0-.207.125c-.35.36-.735.687-1.149.974a8.13 8.13 0 0 1-1.786.936 6.117 6.117 0 0 1-2.152.376 4.134 4.134 0 0 1-2.675-.918 5.123 5.123 0 0 1-1.626-2.476 10.427 10.427 0 0 1-.345-3.755c.132-1.646.469-3.272 1.004-4.839 1.21-3.646 2.75-6.308 4.688-8.034 1.937-1.728 3.906-2.605 5.848-2.605a4.031 4.031 0 0 1 2.074.485c.522.297.95.729 1.236 1.248.188.348.326.72.409 1.106a.077.077 0 0 0 .025.038.083.083 0 0 0 .121-.018c.096-.174.19-.329.279-.472a2.76 2.76 0 0 1 .776-.856c.317-.23.68-.391 1.065-.474a4.52 4.52 0 0 1 2.104.027c.64.151 1.216.492 1.651.975.44.455.55 1.127.275 1.693-.078.203-.286.67-.61 1.385a99.142 99.142 0 0 0-2.389 5.696 25.583 25.583 0 0 0-.962 3.003 7.03 7.03 0 0 0-.256 2.187c.045.542.256.542.368.542.335-.041.646-.194.881-.431.243-.209.496-.431.751-.677a7.946 7.946 0 0 0 2.114-3.28c.591-1.711 1.218-3.4 1.858-5.028a77.537 77.537 0 0 1 1.986-4.626 2.531 2.531 0 0 1 1.551-1.381 4.024 4.024 0 0 1 1.981-.133 3.8 3.8 0 0 1 1.714.769c.199.156.371.342.509.552.034.037.073.043.12 0a13.12 13.12 0 0 1 1.862-1.412 6.132 6.132 0 0 1 3.319-.928c.964-.022 1.9.309 2.628.928a4.831 4.831 0 0 1 1.476 2.526c.281 1.232.338 2.504.165 3.755a20.454 20.454 0 0 1-1.26 4.852 23.4 23.4 0 0 1-2.168 4.402 22.045 22.045 0 0 1-1.19 1.693.074.074 0 0 0-.016.049.08.08 0 0 0 .116.066c.23-.125.461-.263.691-.412.384-.247.744-.502 1.084-.766a8.298 8.298 0 0 0 2.876-3.955 124.478 124.478 0 0 1 2.187-5.996 75.701 75.701 0 0 1 1.985-4.626c.29-.657.854-1.16 1.551-1.382a4.01 4.01 0 0 1 1.981-.132 3.81 3.81 0 0 1 1.713.768c.206.162.385.353.527.57.034.037.073.043.121 0a13.008 13.008 0 0 1 1.862-1.412 6.119 6.119 0 0 1 3.314-.928Zm-64.441-8.669a19.386 19.386 0 0 1 4.4.5c1.372.306 2.688.818 3.9 1.518a9.03 9.03 0 0 1 2.816 2.535 6 6 0 0 1 1.097 3.558 8.578 8.578 0 0 1-.962 4.024 11.708 11.708 0 0 1-2.587 3.298 16.981 16.981 0 0 1-3.786 2.534 25.182 25.182 0 0 1-3.754 1.492.139.139 0 0 0-.087.054.132.132 0 0 0-.024.099c.027.64.077 1.267.137 1.876.075.697.175 1.377.292 2.031.194 1.069.474 2.121.838 3.146a14.4 14.4 0 0 0 1.732 3.381c.256.354.534.694.835 1.014.279.297.578.576.896.833.297.24.614.459.944.654a6.71 6.71 0 0 0 2.026.787c.35.079.708.128 1.069.15.371.027.743.027 1.114 0 .39-.032.779-.094 1.162-.182.41-.094.811-.216 1.203-.363.427-.157.841-.341 1.243-.548.16-.081.315-.166.475-.254.247-.143.54-.19.822-.132.282.058.53.217.698.446a1.109 1.109 0 0 1-.186 1.512 26.09 26.09 0 0 1-2.232 1.713c-.479.328-.974.634-1.483.916-.251.144-.508.28-.769.407-.495.247-1.004.468-1.526.661-.494.18-1 .33-1.512.45-.822.199-1.665.301-2.511.302h-.409a9.584 9.584 0 0 1-2.055-.318 9.364 9.364 0 0 1-3.027-1.48 10.25 10.25 0 0 1-1.821-1.728 12.076 12.076 0 0 1-.857-1.145 15.306 15.306 0 0 1-1.416-2.678 21.62 21.62 0 0 1-1.007-3.151 25.671 25.671 0 0 1-.346-1.742 25.382 25.382 0 0 1-.214-1.614.157.157 0 0 0-.142-.149.156.156 0 0 0-.167.122h-.006a37.943 37.943 0 0 0-.553 2.078 83.224 83.224 0 0 0-.592 2.289c-.174.678-.294 1.206-.347 1.598a1.563 1.563 0 0 1-1.348 1.281c-.69.119-1.4.06-2.06-.17a4.806 4.806 0 0 1-1.882-1.144 2.888 2.888 0 0 1-.665-.975 2.834 2.834 0 0 1-.215-1.152 16.44 16.44 0 0 1 .534-3.308c.346-1.503.857-3.292 1.508-5.307a129.968 129.968 0 0 1 2.326-6.55 87.804 87.804 0 0 1 2.573-6.046 2.11 2.11 0 0 1 1.675-1.188 12.896 12.896 0 0 1 4.312.138 1.186 1.186 0 0 1 .8.623 1.156 1.156 0 0 1 .02 1 94.472 94.472 0 0 0-2.155 5.099c-.523 1.355-1.039 2.689-1.5 3.986a.155.155 0 0 0 .043.166c.046.04.115.051.173.024a15.654 15.654 0 0 0 1.864-1.016 13.626 13.626 0 0 0 2.707-2.232 11.039 11.039 0 0 0 1.917-2.834 7.788 7.788 0 0 0 .733-3.325c0-1.52-.43-2.642-1.277-3.336s-2.07-1.066-3.609-1.066a8.8 8.8 0 0 0-4.415 1.12 13.146 13.146 0 0 0-3.443 2.79 13.544 13.544 0 0 0-2.23 3.482 8.171 8.171 0 0 0-.783 3.135 1.25 1.25 0 0 1-.248.805c-.174.232-.423.4-.707.475-.57.168-1.18.14-1.731-.078a3.712 3.712 0 0 1-1.618-1.256 3.958 3.958 0 0 1-.742-2.499c0-.907.347-1.977 1.073-3.267a13.751 13.751 0 0 1 3.08-3.644 18.46 18.46 0 0 1 5.05-2.98c2.199-.859 4.55-1.282 6.918-1.244l.001-.001Zm42.28 12.697-.033.004a.971.971 0 0 0-.504.226 6.804 6.804 0 0 0-1.284 1.27 18.611 18.611 0 0 0-1.495 2.184 25.025 25.025 0 0 0-1.453 2.861 28.428 28.428 0 0 0-1.104 3.021 22.51 22.51 0 0 0-.648 2.607 6.191 6.191 0 0 0-.102 1.842c.068.518.231.627.279.647a.13.13 0 0 0 .068 0 .97.97 0 0 0 .507-.224c.486-.367.916-.8 1.279-1.285a18.65 18.65 0 0 0 1.473-2.206c.5-.87.999-1.838 1.483-2.875.427-.982.798-1.988 1.114-3.009.265-.85.481-1.714.647-2.588l-.013-.006c.126-.598.161-1.21.103-1.819-.072-.514-.234-.626-.284-.647a.183.183 0 0 0-.066 0l.033-.003Zm19.61 0a1.007 1.007 0 0 0-.505.226c-.48.364-.908.788-1.273 1.261-.55.691-1.05 1.422-1.495 2.183a25.142 25.142 0 0 0-1.449 2.889 28.336 28.336 0 0 0-1.117 3.007 21.862 21.862 0 0 0-.647 2.607 6.029 6.029 0 0 0-.104 1.842c.069.518.231.627.28.647a.135.135 0 0 0 .069 0 .964.964 0 0 0 .505-.224 6.63 6.63 0 0 0 1.28-1.285 18.36 18.36 0 0 0 1.467-2.206 36.256 36.256 0 0 0 1.488-2.875c.423-.984.79-1.992 1.101-3.016.264-.849.481-1.713.646-2.588.124-.6.16-1.213.101-1.821-.069-.515-.232-.627-.281-.647a.183.183 0 0 0-.066 0Zm-41.064-.092a.893.893 0 0 0-.474.221c-.463.367-.867.8-1.2 1.283-.504.699-.95 1.435-1.336 2.202-.48.937-.914 1.897-1.302 2.875a23.47 23.47 0 0 0-.985 2.999 17.03 17.03 0 0 0-.464 2.574 7.345 7.345 0 0 0 .024 1.839c.09.521.26.636.308.656a.184.184 0 0 0 .066 0 .881.881 0 0 0 .473-.22c.461-.364.867-.788 1.204-1.263.507-.687.952-1.415 1.336-2.174.454-.88.89-1.86 1.302-2.875a23.99 23.99 0 0 0 .985-3c.22-.852.381-1.717.484-2.591a5.904 5.904 0 0 0-.013-1.848c-.117-.539-.293-.653-.346-.678a.162.162 0 0 0-.062 0Zm57.728-13.441c.576 0 1.147.111 1.679.326a4.405 4.405 0 0 1 1.423.93 4.274 4.274 0 0 1 1.287 3.037 4.21 4.21 0 0 1-.335 1.644 4.286 4.286 0 0 1-.952 1.394c-.407.399-.89.715-1.422.93a4.479 4.479 0 0 1-1.68.327 4.475 4.475 0 0 1-1.701-.305 4.417 4.417 0 0 1-1.449-.925 4.297 4.297 0 0 1-.97-1.403 4.216 4.216 0 0 1 0-3.321 4.294 4.294 0 0 1 .969-1.403 4.42 4.42 0 0 1 3.151-1.231Z" fill="#FF441F"/></g></g><g clip-path="url('#clip8_1_309')"><g clip-path="url('#clip9_1_309')"><path d="M468.319 119.495H242.36v101.326h225.959V119.495Z" fill="#FFF0F1"/><path d="M381.676 156.422h-4.713a.48.48 0 0 0-.333.135.455.455 0 0 0-.137.328v10.138h-4.782v-10.138a.458.458 0 0 0-.29-.428.48.48 0 0 0-.179-.035h-4.697a.485.485 0 0 0-.332.135.466.466 0 0 0-.137.328v26.114c0 .258.209.463.469.463h4.714a.476.476 0 0 0 .434-.285.474.474 0 0 0 .035-.178v-10.497h4.783v10.497c0 .258.208.463.47.463h4.712a.467.467 0 0 0 .471-.463v-26.114a.466.466 0 0 0-.471-.463h-.017Zm-40.018 0h-4.818a.457.457 0 0 0-.469.411v18.631a3.198 3.198 0 0 1-.661 2.124l.017-.017a2.152 2.152 0 0 1-1.472.687 2.154 2.154 0 0 1-1.536-.533.638.638 0 0 1-.157-.154 3.185 3.185 0 0 1-.626-2.072v-18.666a.42.42 0 0 0-.282-.389.445.445 0 0 0-.17-.022h-4.836a.446.446 0 0 0-.319.1.422.422 0 0 0-.15.294v18.7-.051a8.57 8.57 0 0 0 2.034 6.164l-.017-.017a7.927 7.927 0 0 0 2.713 1.757 8.031 8.031 0 0 0 3.2.538h.07a8.031 8.031 0 0 0 3.2-.538 7.927 7.927 0 0 0 2.713-1.757l-.017.017a8.57 8.57 0 0 0 2.035-6.164v-18.632a.448.448 0 0 0-.145-.292.463.463 0 0 0-.307-.119Zm-46.592-.444h-.035a8.056 8.056 0 0 0-3.201.537 7.958 7.958 0 0 0-2.713 1.756l.053-.067a8.586 8.586 0 0 0-2.14 6.147v11.182-.051a8.58 8.58 0 0 0 2.035 6.165l-.017-.018a7.927 7.927 0 0 0 2.713 1.757 8.032 8.032 0 0 0 3.2.539h.087a8.04 8.04 0 0 0 3.201-.539 7.946 7.946 0 0 0 2.713-1.757 8.57 8.57 0 0 0 2.034-6.164v-6.08a.485.485 0 0 0-.487-.462h-6.957a.512.512 0 0 0-.504.462v4.555c.018.274.226.48.504.48h1.914v1.044a3.416 3.416 0 0 1-.661 2.193l.017-.018a2.03 2.03 0 0 1-1.722.754h-.034a2.005 2.005 0 0 1-1.722-.72 3.268 3.268 0 0 1-.696-2.174v-11.08.017a3.345 3.345 0 0 1 .731-2.225 2.025 2.025 0 0 1 1.721-.753h.035a2.003 2.003 0 0 1 1.722.719l.035.034c.439.652.641 1.43.574 2.209v1.027c.017.241.226.412.469.412h4.714a.457.457 0 0 0 .469-.412v-1.078.034a8.49 8.49 0 0 0-2.156-6.13h.017a8.005 8.005 0 0 0-2.715-1.752 8.102 8.102 0 0 0-3.198-.543Zm64.749 13.528.034-.035a7.157 7.157 0 0 0 1.66-2.369 7.09 7.09 0 0 0 .584-2.819v.068a7.995 7.995 0 0 0-2.018-5.445v.017a7.617 7.617 0 0 0-2.627-1.872 7.733 7.733 0 0 0-3.181-.629h-7.514a.48.48 0 0 0-.332.135.446.446 0 0 0-.138.328v26.114c0 .258.21.463.47.463h7.897c2.383.034 4.66-.976 6.191-2.774l-.017.017a8.446 8.446 0 0 0 1.739-5.6v.069a7.232 7.232 0 0 0-2.748-5.668Zm-7.914-7.587h2.384-.019a2.02 2.02 0 0 1 1.584.6l.034.034c.415.552.613 1.233.557 1.918v-.035c.07.72-.157 1.456-.591 2.055v-.017c-.192.22-.435.393-.706.506a1.946 1.946 0 0 1-.859.145h-2.384v-5.206Zm4.418 15.412.017-.017a2.092 2.092 0 0 1-1.757.719h-2.678v-5.65h2.714-.018c.33-.027.661.024.967.149.306.125.577.321.79.57l-.018-.017c.466.584.7 1.314.661 2.055v.017c.035.77-.226 1.524-.696 2.14l.018.034Zm-36.922-5.514.017-.016c.487-.326.922-.72 1.322-1.148l-.018.034a8.529 8.529 0 0 0 2.122-5.925v-.051a8.368 8.368 0 0 0-2.209-5.805l.087.102a7.876 7.876 0 0 0-2.567-1.89 8.004 8.004 0 0 0-3.12-.73h-7.913a.48.48 0 0 0-.333.135.461.461 0 0 0-.137.328v26.148c0 .258.209.463.47.463h4.713a.48.48 0 0 0 .333-.135.464.464 0 0 0 .137-.328v-9.674h1.739l2.974 9.864a.469.469 0 0 0 .452.325h5.009a.485.485 0 0 0 .383-.189.43.43 0 0 0 0-.41l-3.461-11.098Zm-2.905-4.811c-.239.251-.53.449-.855.579-.324.13-.673.189-1.023.174h-2.313v-5.84h2.295c.35-.016.699.044 1.024.174.324.13.616.328.854.58v-.017c.49.58.744 1.318.714 2.071v.035a3.17 3.17 0 0 1-.714 2.243l.018.001Zm103.481 2.499.034-.034a7.186 7.186 0 0 0 1.66-2.369c.386-.891.585-1.85.584-2.819v.102a7.981 7.981 0 0 0-2.017-5.582l.035.051a7.621 7.621 0 0 0-2.629-1.872 7.715 7.715 0 0 0-3.18-.628h-7.548a.47.47 0 0 0-.435.285.466.466 0 0 0-.035.177v26.183c0 .258.208.463.47.463h7.86c2.384.034 4.662-.976 6.193-2.774l-.019.017a8.442 8.442 0 0 0 1.74-5.6v.035a7.204 7.204 0 0 0-2.748-5.652l.035.017Zm-7.913-7.586h2.382-.017a2.039 2.039 0 0 1 1.582.6l.035.034c.415.552.612 1.233.557 1.918v-.035c.069.72-.157 1.456-.592 2.055v-.017c-.192.22-.434.393-.705.506a1.945 1.945 0 0 1-.86.145h-2.382v-5.206Zm4.417 15.412.017-.017a2.09 2.09 0 0 1-1.756.719h-2.678v-5.65h2.713-.018a2.1 2.1 0 0 1 .967.149c.306.125.577.321.79.57l-.018-.017c.465.584.7 1.314.662 2.055v.017a3.302 3.302 0 0 1-.696 2.14l.017.034Zm-14.661-20.909h-4.853a.446.446 0 0 0-.319.1.439.439 0 0 0-.15.294v18.649a3.2 3.2 0 0 1-.626 2.089c-.38.411-.909.658-1.472.687a2.157 2.157 0 0 1-1.536-.533.638.638 0 0 1-.157-.154 3.186 3.186 0 0 1-.627-2.072v-18.649c-.017-.239-.226-.411-.47-.411h-4.834c-.243 0-.452.172-.469.411v18.683c-.157 2.192.573 4.401 2.034 6.113l.052.052c3.392 2.997 8.557 2.962 11.896-.102l-.069.05a8.57 8.57 0 0 0 2.035-6.164v-18.632a.45.45 0 0 0-.435-.411Z" fill="#F2333D"/></g></g><g clip-path="url('#clip10_1_309')"><g clip-path="url('#clip11_1_309')"><path d="M710 119.485H484v101.346h226V119.485Z" fill="#FFF2ED"/><path d="M611.725 165.883h-2.465v12.88h2.465v-12.88ZM590.955 178.763v-18.309h6.291c5.723 0 8.789 4.04 8.789 9.154 0 5.209-3.192 9.155-8.82 9.155h-6.26Zm5.817-2.178c4.427 0 6.797-2.305 6.797-6.977 0-4.766-2.528-6.976-6.702-6.976h-3.447v13.953h3.352ZM608.916 161.59c0-.883.696-1.578 1.581-1.578.886 0 1.581.694 1.581 1.578 0 .884-.695 1.579-1.581 1.579a1.585 1.585 0 0 1-1.581-1.579ZM586.688 165.883h-2.466v12.88h2.466v-12.88ZM565.823 178.762v-18.309h6.291c5.723 0 8.789 4.04 8.789 9.154 0 5.209-3.193 9.155-8.82 9.155h-6.26Zm5.817-2.178c4.426 0 6.797-2.305 6.797-6.977 0-4.766-2.529-6.976-6.702-6.976h-3.446v13.953h3.351ZM583.876 161.59c0-.883.695-1.578 1.581-1.578.885 0 1.58.694 1.58 1.578 0 .884-.695 1.579-1.58 1.579-.854 0-1.581-.726-1.581-1.579ZM636.041 165.504c-4.142 0-6.418 2.368-6.418 6.63 0 4.293 2.276 6.629 6.418 6.629 4.141 0 6.417-2.368 6.417-6.629-.031-4.294-2.307-6.63-6.417-6.63Zm0 11.744c-3.288 0-4.901-1.673-4.901-5.146s1.613-5.146 4.901-5.146 4.9 1.673 4.9 5.146-1.612 5.146-4.9 5.146ZM650.142 165.504c-4.141 0-6.418 2.368-6.418 6.63 0 4.293 2.277 6.629 6.418 6.629 4.142 0 6.419-2.368 6.419-6.629-.033-4.294-2.309-6.63-6.419-6.63Zm0 11.744c-3.287 0-4.9-1.673-4.9-5.146s1.613-5.146 4.9-5.146c3.289 0 4.9 1.673 4.9 5.146s-1.612 5.146-4.9 5.146ZM620.328 161.495h9.611v-1.421h-11.16v18.689h1.549v-8.303h7.967v-1.452h-7.967v-7.513ZM668.635 160.327v7.04c-1.043-1.231-2.624-1.894-4.711-1.894-3.951 0-6.133 2.368-6.133 6.661 0 4.293 2.182 6.661 6.133 6.661 2.056 0 3.637-.663 4.679-1.863l.127 1.642h1.359v-18.562l-1.454.315Zm-4.679 16.921c-3.098 0-4.615-1.673-4.615-5.146 0-3.472 1.517-5.146 4.615-5.146 3.099 0 4.616 1.674 4.616 5.146 0 3.473-1.517 5.146-4.616 5.146Z" fill="#363636"/><path d="M541.292 176.9c5.659-.19 10.18-4.672 10.243-10.291v-4.799h6.228v5.335c-.127 8.65-7.651 15.5-16.472 15.69-8.978-.063-16.565-6.945-16.692-15.69v-9.565c0-.979.632-1.61 1.581-1.61h25.323v5.84h-19.854c-.506 0-.822.316-.822.821v3.883c.063 5.682 4.648 10.323 10.465 10.386Z" fill="#F47C46"/></g></g><defs><clipPath id="clip0_1_309"><rect y=".3" width="226" height="102.34" rx="11" fill="#fff"/></clipPath><clipPath id="clip1_1_309"><path fill="#fff" transform="translate(0 .29)" d="M0 0h226v102.359H0z"/></clipPath><clipPath id="clip2_1_309"><rect x="242" y=".3" width="226" height="102.34" rx="11" fill="#fff"/></clipPath><clipPath id="clip3_1_309"><path fill="#fff" transform="translate(242 .29)" d="M0 0h226v102.359H0z"/></clipPath><clipPath id="clip4_1_309"><rect x="484" y=".3" width="226" height="102.34" rx="11" fill="#fff"/></clipPath><clipPath id="clip5_1_309"><path fill="#fff" transform="translate(482.891 .3)" d="M0 0h228.218v102.34H0z"/></clipPath><clipPath id="clip6_1_309"><rect y="118.64" width="226" height="102.34" rx="11" fill="#fff"/></clipPath><clipPath id="clip7_1_309"><path fill="#fff" transform="translate(0 118.63)" d="M0 0h226v102.359H0z"/></clipPath><clipPath id="clip8_1_309"><rect x="242" y="118.64" width="226" height="102.34" rx="11" fill="#fff"/></clipPath><clipPath id="clip9_1_309"><path fill="#fff" transform="translate(241.514 118.64)" d="M0 0h226.972v102.34H0z"/></clipPath><clipPath id="clip10_1_309"><rect x="484" y="118.64" width="226" height="102.34" rx="11" fill="#fff"/></clipPath><clipPath id="clip11_1_309"><path fill="#fff" transform="translate(484 118.63)" d="M0 0h226v102.359H0z"/></clipPath></defs></svg>