<svg width="310" height="31" fill="none" xmlns="http://www.w3.org/2000/svg"><rect y=".22" width="30" height="30" rx="6" fill="#FFF6F1"/><g clip-path="url('#clip0_1_762')"><path d="M12.732 20.936v-5.67h2.156l.322-2.213h-2.478V11.64c0-.354.08-.615.238-.784.187-.196.523-.293 1.008-.293h1.316V8.588c-.15-.02-.383-.038-.7-.056-.41-.02-.821-.028-1.232-.028-.635 0-1.195.112-1.68.336a2.517 2.517 0 0 0-1.127.994c-.266.438-.399.966-.399 1.582v1.637H8v2.212h2.156v5.67h2.576Z" fill="#FF7629"/></g><rect x="46" y=".22" width="30" height="30" rx="6" fill="#FFF6F1"/><g clip-path="url('#clip1_1_762')"><path d="M63.352 9.274h.658l.238.042.098.028c.159.037.27.07.336.098.14.056.27.114.392.175.121.06.229.128.322.203.065.046.154.116.266.21.075.074.196.098.364.07l.532-.154.126-.042c.196-.075.34-.136.434-.182.187-.084.299-.14.336-.168l.07-.028v-.014h.014l.014-.014h.014l.028-.028h.014v.042l-.014.014v.028h-.014v.014l-.014.028a.154.154 0 0 1-.007.049 4.805 4.805 0 0 1-.112.23c-.07.14-.166.295-.287.463a4.243 4.243 0 0 1-.308.336 1.391 1.391 0 0 0-.175.147.373.373 0 0 1-.119.09l-.07.057h-.014v.014h-.014l-.014.014h-.014v.014h-.014v.014h-.014.07l.35-.084c.243-.047.467-.103.672-.168l.35-.112.056-.028h.014l.014-.014h.014l.028-.014H68v.028h-.014v.014h-.014v.014h-.014v.014h-.014v.014c0 .009-.056.084-.168.224l-.084.112c-.047.065-.075.098-.084.098-.01 0-.014.004-.014.014l-.014.014a3.4 3.4 0 0 1-.28.28c-.112.121-.27.266-.476.434-.159.13-.238.284-.238.462 0 .102-.01.284-.028.546v.084c-.01.13-.037.34-.084.63l-.014.126a8.468 8.468 0 0 1-.574 1.904c-.112.289-.257.578-.434.868-.13.242-.266.462-.406.658l-.392.504a7.22 7.22 0 0 1-.49.532l-.336.322-.238.196-.378.294-.224.154c-.15.102-.257.172-.322.21l-.504.266a5.616 5.616 0 0 1-.644.28 8.881 8.881 0 0 1-.546.196l-.168.056c-.261.074-.504.13-.728.168a7.717 7.717 0 0 1-.798.112l-.448.042h-.826l-.112-.014a.638.638 0 0 1-.168-.014l-.532-.056c-.29-.047-.527-.089-.714-.126a5.377 5.377 0 0 1-.574-.182l-.196-.056c-.41-.15-.7-.266-.868-.35-.261-.131-.415-.206-.462-.224l-.084-.056a2.832 2.832 0 0 1-.112-.07l-.112-.07h-.014l-.014-.014h-.014v-.014h-.014v-.014H54V19.2h.084c.019.009.07.014.154.014l.154.014h.532c.261-.019.457-.038.588-.056a9.57 9.57 0 0 0 .7-.154c.28-.075.527-.159.742-.252l.476-.21c.121-.066.266-.154.434-.266l.294-.196v-.014h.014l.014-.014h.014v-.014l.014-.014-.098-.014c-.084 0-.15-.005-.196-.014a.947.947 0 0 1-.294-.056 5.595 5.595 0 0 1-.364-.112l-.07-.028a7.828 7.828 0 0 1-.462-.238l-.098-.07a1.655 1.655 0 0 1-.224-.168l-.252-.252a2.852 2.852 0 0 1-.21-.252l-.056-.084a3.18 3.18 0 0 1-.21-.406l-.112-.224v-.014l-.014-.014v-.028h.042l.14.028c.056.009.2.014.434.014l.21-.014a.81.81 0 0 0 .196-.014l.168-.028.028-.014h.028v-.014h.014l-.028-.014h-.014l-.028-.014h-.056c-.01-.01-.023-.014-.042-.014l-.042-.014a13.209 13.209 0 0 0-.35-.14 5.542 5.542 0 0 1-.434-.224 6.553 6.553 0 0 1-.308-.252 3.72 3.72 0 0 1-.308-.322L55.176 15a2.3 2.3 0 0 1-.308-.49 2.52 2.52 0 0 1-.21-.532 3.377 3.377 0 0 1-.098-.518l-.014-.252h.028l.014.014h.014l.014.014.196.084c.177.074.34.126.49.154l.35.07h.168-.014v-.014h-.014v-.014h-.014l-.014-.014h-.014l-.126-.098a3.195 3.195 0 0 1-.224-.21l-.224-.252a2.918 2.918 0 0 1-.14-.196l-.07-.098a54.109 54.109 0 0 1-.182-.406 2.925 2.925 0 0 1-.14-.476 1.852 1.852 0 0 1-.056-.476 1.53 1.53 0 0 1 0-.294v-.112c.019-.112.047-.238.084-.378l.014-.042c.056-.178.107-.313.154-.406l.098-.238.014-.014v-.028h.028v.014h.014v.014l.014.014v.014l.168.182c.075.084.21.224.406.42.14.14.229.219.266.238.01 0 .019.009.028.028l.028.028c.028.028.112.098.252.21.075.065.22.172.434.322l.126.084c.261.168.518.322.77.462.392.186.695.322.91.406l.07.028c.336.112.541.177.616.196.159.056.383.107.672.154.13.028.299.056.504.084l.21.028.322.028h.084v-.042l-.028-.154a3.077 3.077 0 0 1-.028-.434c0-.206.016-.378.049-.518a5.25 5.25 0 0 1 .133-.462c.056-.168.112-.304.168-.406.037-.066.112-.17.224-.315s.233-.278.364-.4c.187-.149.355-.265.504-.35a3.7 3.7 0 0 1 .518-.237 1.82 1.82 0 0 1 .406-.112l.168-.028Z" fill="#FF7629"/></g><rect x="92" y=".22" width="30" height="30" rx="6" fill="#FFF6F1"/><g clip-path="url('#clip2_1_762')"><path d="M103.906 8.266c-.709 0-1.367.177-1.974.532a3.87 3.87 0 0 0-1.4 1.4 3.84 3.84 0 0 0-.532 1.974v5.096c0 .71.177 1.367.532 1.974a3.869 3.869 0 0 0 1.4 1.4 3.845 3.845 0 0 0 1.974.532h5.096c.709 0 1.367-.177 1.974-.532a3.869 3.869 0 0 0 1.4-1.4 3.84 3.84 0 0 0 .532-1.974v-5.096a3.84 3.84 0 0 0-.532-1.974 3.87 3.87 0 0 0-1.4-1.4 3.845 3.845 0 0 0-1.974-.532h-5.096Zm5.95 2.38c.187 0 .345.065.476.196.131.13.196.29.196.476a.67.67 0 0 1-.196.483.637.637 0 0 1-.476.203.658.658 0 0 1-.483-.203.66.66 0 0 1-.203-.483c0-.187.068-.345.203-.476a.67.67 0 0 1 .483-.196Zm-3.402.672c.616 0 1.185.152 1.708.455.523.303.936.716 1.239 1.239.303.522.455 1.092.455 1.708a3.368 3.368 0 0 1-1.694 2.933 3.343 3.343 0 0 1-1.708.455 3.387 3.387 0 0 1-3.388-3.388c0-.616.152-1.185.455-1.708a3.372 3.372 0 0 1 2.933-1.694Zm0 1.022c-.289 0-.593.06-.91.182-.308.14-.567.315-.777.525-.21.21-.38.464-.511.763-.121.317-.182.62-.182.91 0 .29.061.592.182.91.14.308.313.565.518.77.205.205.462.378.77.518.317.121.621.182.91.182.289 0 .593-.06.91-.182.299-.13.553-.301.763-.511.21-.21.385-.47.525-.777.121-.318.182-.62.182-.91 0-.29-.061-.593-.182-.91a2.322 2.322 0 0 0-.511-.777 2.316 2.316 0 0 0-.777-.511 2.547 2.547 0 0 0-.91-.182Z" fill="#FF7629"/></g><rect x="138" y=".22" width="30" height="30" rx="6" fill="#FFF6F1"/><g clip-path="url('#clip3_1_762')"><path d="M146 9.96c0-.43.145-.78.434-1.05.289-.27.677-.406 1.162-.406.485 0 .873.138 1.162.413.289.275.434.637.434 1.085 0 .401-.149.74-.448 1.015-.299.275-.686.413-1.162.413h-.014c-.476 0-.856-.14-1.141-.42A1.411 1.411 0 0 1 146 9.96Zm.168 11.13v-8.498h2.828v8.498h-2.828Zm4.396 0h2.842v-4.746c0-.299.033-.528.098-.686.112-.29.294-.534.546-.735.252-.2.555-.301.91-.301.952 0 1.428.644 1.428 1.932v4.536h2.828v-4.872c0-1.27-.296-2.224-.889-2.863-.593-.64-1.379-.96-2.359-.96-1.111 0-1.965.468-2.562 1.4v.029h-.014l.014-.028v-1.204h-2.842c.019.354.028 1.2.028 2.534 0 .719-.005 2.133-.014 4.242l-.014 1.722Z" fill="#FF7629"/></g><rect x="184" y=".22" width="30" height="30" rx="6" fill="#FFF6F1"/><g clip-path="url('#clip4_1_762')"><path d="m199.311 19.872-2.87-.042-.63-.014c-.476-.01-.835-.019-1.078-.028a7.797 7.797 0 0 1-1.064-.14c-.42-.093-.751-.294-.994-.602-.196-.252-.341-.593-.434-1.022a10.696 10.696 0 0 1-.154-1.19l-.014-.084a21.089 21.089 0 0 1 .182-5.04c.075-.467.257-.833.546-1.1.289-.265.663-.417 1.12-.454 2.707-.187 5.815-.215 9.324-.084.215 0 .537.037.966.112.476.084.845.294 1.106.63.215.28.369.658.462 1.134.065.28.117.714.154 1.302l.014.182a17.906 17.906 0 0 1-.14 4.102c-.056.439-.135.789-.238 1.05-.121.326-.289.583-.504.77-.252.205-.579.322-.98.35-.98.065-1.773.112-2.38.14-.868.037-1.661.051-2.38.042 0-.01-.005-.014-.014-.014Zm-1.68-2.842c.532-.318 1.325-.784 2.38-1.4l1.19-.7-3.57-2.1v4.2Z" fill="#FF7629"/></g><rect x="230" y=".22" width="30" height="30" rx="6" fill="#FFF6F1"/><g clip-path="url('#clip5_1_762')"><path d="M238.924 17.94 238 21.328l3.472-.91c.98.532 2.025.798 3.136.798a6.411 6.411 0 0 0 3.304-.896 6.463 6.463 0 0 0 2.352-2.352 6.415 6.415 0 0 0 .896-3.304c0-.878-.166-1.715-.497-2.513a6.49 6.49 0 0 0-1.421-2.121 6.496 6.496 0 0 0-2.121-1.421 6.49 6.49 0 0 0-2.513-.497 6.412 6.412 0 0 0-3.304.896 6.464 6.464 0 0 0-2.352 2.352 6.416 6.416 0 0 0-.896 3.304c0 .578.072 1.145.217 1.7.145.556.362 1.081.651 1.576Zm3.612-6.426c.084 0 .145.014.182.042.075.037.14.121.196.252.112.252.229.532.35.84l.168.42a.3.3 0 0 1 .014.294l-.014.042a2.118 2.118 0 0 1-.154.238l-.126.154a.67.67 0 0 1-.126.14.344.344 0 0 0-.098.14c-.028.065-.019.135.028.21.28.476.593.868.938 1.176a4.14 4.14 0 0 0 1.26.784l.112.056a.447.447 0 0 0 .21.049c.056-.005.107-.035.154-.091.271-.308.448-.532.532-.672.047-.075.098-.117.154-.126a.477.477 0 0 1 .224.035c.093.032.448.207 1.064.525l.196.084c.131.065.21.119.238.16.028.043.033.134.014.274a2.349 2.349 0 0 1-.126.525c-.065.182-.233.361-.504.539-.243.158-.453.247-.63.266l-.112.014a2.479 2.479 0 0 1-.588-.014c-.327-.056-.775-.196-1.344-.42-.681-.271-1.33-.728-1.946-1.372a7.45 7.45 0 0 1-.91-1.134.206.206 0 0 0-.042-.056l-.028-.042c-.439-.626-.658-1.195-.658-1.708 0-.336.07-.64.21-.91.075-.15.191-.308.35-.476l.014-.014c0-.01.005-.014.014-.014a.597.597 0 0 1 .462-.224h.014c.14 0 .243.004.308.014Z" fill="#FF7629"/></g><defs><clipPath id="clip0_1_762"><path fill="#fff" transform="matrix(1 0 0 -1 8 21.72)" d="M0 0h14v14H0z"/></clipPath><clipPath id="clip1_1_762"><path fill="#fff" transform="matrix(1 0 0 -1 54 21.72)" d="M0 0h14v14H0z"/></clipPath><clipPath id="clip2_1_762"><path fill="#fff" transform="matrix(1 0 0 -1 100 21.72)" d="M0 0h14v14H0z"/></clipPath><clipPath id="clip3_1_762"><path fill="#fff" transform="matrix(1 0 0 -1 146 21.72)" d="M0 0h14v14H0z"/></clipPath><clipPath id="clip4_1_762"><path fill="#fff" transform="matrix(1 0 0 -1 192 21.72)" d="M0 0h14v14H0z"/></clipPath><clipPath id="clip5_1_762"><path fill="#fff" transform="matrix(1 0 0 -1 238 21.72)" d="M0 0h14v14H0z"/></clipPath></defs></svg>