<svg width="600" height="160" fill="none" xmlns="http://www.w3.org/2000/svg"><path d="m21.936 39.996 10.149-4.517 5.842 3.388 1.18 11.115-7.2-.06 1.063-7.727-1.24-.713-6.077 4.755-3.717-6.24Z" fill="#B4C0D3"/><path d="m38.576 38.391 8.97 6.597 3.54-6.36-7.2-2.912V34.29l7.2-2.972-3.54-6.3-8.97 6.597v6.776Z" fill="#00D3AB"/><path d="m37.927 31.08 1.18-11.114-7.2.118 1.063 7.727-1.24.714-6.136-4.755-3.659 6.181 10.15 4.517 5.842-3.388Z" fill="#4876EF"/><path d="M75.103 33.642v10.412h3.874v-13.27h-5.642v2.858h1.768ZM74.982 28.92c.355.37.896.556 1.622.556.727 0 1.26-.185 1.598-.556.356-.388.533-.872.533-1.453 0-.598-.177-1.082-.533-1.453-.338-.388-.87-.581-1.598-.581-.726 0-1.267.193-1.622.58-.339.372-.508.856-.508 1.454 0 .58.17 1.065.508 1.453ZM61.615 43.764c1.098.5 2.446.75 4.044.75 1.502 0 2.793-.234 3.875-.702 1.081-.468 1.913-1.122 2.494-1.961.597-.856.896-1.849.896-2.979 0-1.097-.282-2.026-.847-2.785-.55-.775-1.316-1.38-2.301-1.816-.985-.452-2.123-.734-3.415-.847l-1.356-.121c-.807-.065-1.388-.283-1.743-.654a1.83 1.83 0 0 1-.533-1.308c0-.387.097-.742.29-1.065.194-.34.485-.606.872-.8.404-.193.896-.29 1.478-.29.613 0 1.122.113 1.525.339.089.048.173.099.253.153l.019.014a2.191 2.191 0 0 1 .673.73c.21.354.315.75.315 1.186h3.874c0-1.163-.267-2.172-.799-3.027-.533-.872-1.3-1.542-2.3-2.01-.986-.485-2.172-.727-3.56-.727-1.324 0-2.47.226-3.44.678-.968.436-1.726 1.066-2.275 1.889-.533.823-.8 1.8-.8 2.93 0 1.566.525 2.825 1.575 3.778 1.049.952 2.454 1.501 4.213 1.647l1.332.12c1.081.097 1.865.316 2.349.654.484.323.726.767.726 1.332 0 .26-.042.504-.127.731-.063.169-.15.329-.26.48-.259.339-.638.605-1.138.8-.5.193-1.122.29-1.865.29-.823 0-1.493-.113-2.01-.34-.516-.241-.904-.556-1.162-.944a2.333 2.333 0 0 1-.363-1.259h-3.85c0 1.146.282 2.163.847 3.051.565.872 1.396 1.566 2.494 2.083ZM87.622 44.224c-1.34 0-2.421-.162-3.245-.484-.823-.34-1.428-.896-1.816-1.671-.371-.791-.557-1.857-.557-3.197v-5.255h-2.01v-2.833h2.01V27.2h3.608v3.584h3.875v2.833h-3.875v5.4c0 .63.162 1.115.485 1.453.338.323.815.485 1.428.485h1.962v3.269h-1.865Z" fill="#4876EE"/><path fill-rule="evenodd" clip-rule="evenodd" d="M94.152 43.934c.871.387 1.873.58 3.002.58 1.114 0 2.1-.193 2.955-.58a5.77 5.77 0 0 0 2.131-1.623 5.59 5.59 0 0 0 1.138-2.373h-3.56c-.161.403-.468.742-.92 1.017-.452.274-1.033.412-1.743.412-.44 0-.834-.052-1.18-.156-.264-.08-.5-.189-.71-.328a2.803 2.803 0 0 1-1.065-1.357 4.65 4.65 0 0 1-.162-.519 5.48 5.48 0 0 1-.11-.57h9.692v-1.308c0-1.211-.258-2.325-.775-3.342a6.2 6.2 0 0 0-2.252-2.494c-.969-.646-2.163-.969-3.584-.969-1.082 0-2.05.194-2.906.581a5.96 5.96 0 0 0-2.106 1.526c-.565.646-1.001 1.38-1.308 2.204a7.451 7.451 0 0 0-.436 2.542v.484c0 .856.145 1.696.436 2.52a7.46 7.46 0 0 0 1.308 2.203 6.417 6.417 0 0 0 2.155 1.55Zm-.158-7.892a4.202 4.202 0 0 1 .23-.754c.242-.597.598-1.049 1.066-1.356.175-.114.364-.208.568-.28.343-.12.727-.18 1.15-.18.663 0 1.212.154 1.648.46.452.29.79.719 1.017 1.284a3.695 3.695 0 0 1 .127.37 4.996 4.996 0 0 1 .14.647h-5.983c.011-.065.024-.128.037-.191Z" fill="#4876EE"/><path d="M105.219 44.054v-13.27h3.075v3.343c.042-.2.09-.39.143-.573.045-.154.094-.302.148-.445.339-.904.847-1.582 1.525-2.034.678-.468 1.51-.702 2.495-.702h.169c1.001 0 1.832.234 2.494.702.678.452 1.187 1.13 1.526 2.034l.027.068.023.063c.015-.045.031-.088.047-.131.355-.904.872-1.582 1.55-2.034.678-.468 1.509-.702 2.494-.702h.17c1 0 1.84.234 2.518.702.694.452 1.219 1.13 1.574 2.034.355.904.533 2.034.533 3.39v7.555h-3.875v-7.773c0-.726-.193-1.316-.581-1.767-.371-.453-.904-.679-1.598-.679-.694 0-1.243.235-1.647.703-.403.452-.605 1.057-.605 1.816v7.7h-3.899v-7.773c0-.726-.194-1.316-.581-1.767-.372-.453-.896-.679-1.574-.679-.711 0-1.268.235-1.671.703-.404.452-.606 1.057-.606 1.816v7.7h-3.874Z" fill="#4876EE"/><path fill-rule="evenodd" clip-rule="evenodd" d="M136.08 41.498v2.556h3.075v-8.136c0-1.227-.242-2.228-.726-3.003-.484-.791-1.194-1.38-2.131-1.768-.92-.387-2.058-.58-3.414-.58a46.1 46.1 0 0 0-1.502.023 45.46 45.46 0 0 0-1.549.073l-.383.026a60.979 60.979 0 0 0-.925.071v3.27a136.856 136.856 0 0 1 2.181-.123 71.195 71.195 0 0 1 2.686-.072c.711 0 1.227.17 1.55.509.323.339.484.847.484 1.526v.048h-2.397c-1.178 0-2.22.153-3.124.46-.904.29-1.606.75-2.106 1.38-.501.614-.751 1.405-.751 2.374 0 .888.201 1.654.605 2.3.404.63.96 1.114 1.671 1.453.727.339 1.566.509 2.518.509.921 0 1.695-.17 2.325-.51a3.622 3.622 0 0 0 1.502-1.452 4.604 4.604 0 0 0 .38-.84l.031-.094Zm-.654-2.36v-1.065h-2.421c-.678 0-1.203.17-1.574.509-.355.323-.533.767-.533 1.332 0 .266.044.507.133.725.089.219.222.413.4.582.371.323.896.485 1.574.485a3.531 3.531 0 0 0 .66-.063c.178-.037.346-.088.502-.155.356-.162.646-.428.872-.8.226-.37.355-.888.387-1.55Z" fill="#4876EE"/><path d="M141.474 44.054v-13.27h3.075v4.38c.147-1.25.519-2.258 1.114-3.024.807-1.017 1.969-1.525 3.487-1.525h.509v3.341h-.969c-1.065 0-1.889.291-2.47.872-.581.565-.872 1.389-.872 2.47v6.756h-3.874ZM154.573 37.855h1.283l4.189 6.2h4.359l-5.312-7.614 4.368-5.657h-4.068l-4.819 6.31V26.377h-3.875v17.677h3.875v-6.199Z" fill="#4876EE"/><path d="M236.129 24.766c1.826-1.744 4.307-2.762 6.82-2.888.861 0 1.724.005 2.584-.003-.044.922 0 1.847-.026 2.77a10.171 10.171 0 0 1-2.167 5.694c-1.669 2.175-4.222 3.635-6.932 4.012-1.183.191-2.385.07-3.576.103.021-1.015-.044-2.033.037-3.046a10.523 10.523 0 0 1 3.26-6.642ZM246.33 21.875c.922.01 1.845-.005 2.77.005 2.302.163 4.572 1.047 6.306 2.579 1.912 1.64 3.222 3.986 3.558 6.492.147 1.163.054 2.338.111 3.506-.807-.003-1.61-.005-2.416 0-1.982-.054-3.93-.695-5.588-1.775-.765-.548-1.55-1.103-2.124-1.863a10.21 10.21 0 0 1-2.436-5.03c-.243-1.292-.145-2.61-.181-3.914ZM232.835 35.196c.819.046 1.64-.04 2.457.051 3.495.075 6.887 2.039 8.698 5.028 1.039 1.674 1.597 3.658 1.525 5.63-.003.645.007 1.288-.011 1.932-1.297-.039-2.606.067-3.89-.184-2.853-.48-5.475-2.178-7.053-4.6-1.197-1.763-1.793-3.915-1.731-6.041 0-.607 0-1.212.005-1.816ZM254.71 35.47c1.405-.313 2.854-.261 4.283-.261l.062.061c-.031 1.352.075 2.718-.196 4.054-.571 2.997-2.555 5.674-5.224 7.144-1.661.924-3.568 1.38-5.467 1.358-.607.003-1.217-.01-1.824.008 0-1.118-.046-2.242.08-3.356.295-2.694 1.752-5.203 3.847-6.898a10.89 10.89 0 0 1 4.439-2.11Z" fill="#FFC100"/><path d="M269.66 42.833c0 .455-.157.84-.472 1.154-.297.298-.673.447-1.128.447-.437 0-.805-.15-1.102-.447a1.616 1.616 0 0 1-.446-1.154V26.617c0-.455.148-.831.446-1.129.315-.315.7-.472 1.155-.472.454 0 .822.157 1.102.472.297.298.445.674.445 1.129v16.216ZM282.299 30.395c.455 0 .831.158 1.129.473.297.297.446.673.446 1.128v6.665c0 1.854-.516 3.324-1.548 4.408-1.033 1.085-2.519 1.627-4.461 1.627-1.942 0-3.429-.542-4.461-1.627-1.015-1.084-1.522-2.554-1.522-4.408v-6.665c0-.455.149-.831.446-1.128a1.485 1.485 0 0 1 1.128-.473c.455 0 .831.158 1.129.473.297.297.446.673.446 1.128v6.665c0 1.067.236 1.863.708 2.388.473.507 1.181.76 2.126.76.962 0 1.679-.253 2.152-.76.472-.525.708-1.321.708-2.388v-6.665c0-.455.149-.831.446-1.128.297-.315.673-.473 1.128-.473ZM293.344 30.133c1.4 0 2.432.34 3.097 1.023.664.665 1.102 1.53 1.311 2.598l-.445-.236.21-.42c.209-.402.533-.831.97-1.286a5.619 5.619 0 0 1 1.575-1.18 4.423 4.423 0 0 1 2.099-.5c1.26 0 2.213.272 2.86.814.665.542 1.119 1.268 1.364 2.178.245.892.368 1.89.368 2.991v6.718c0 .455-.149.84-.446 1.154-.298.298-.674.447-1.129.447-.454 0-.83-.15-1.128-.447a1.62 1.62 0 0 1-.446-1.154v-6.718a5.26 5.26 0 0 0-.21-1.548 2.137 2.137 0 0 0-.761-1.128c-.367-.28-.892-.42-1.574-.42-.665 0-1.233.14-1.706.42-.472.28-.831.656-1.076 1.128-.227.455-.341.971-.341 1.548v6.718c0 .455-.149.84-.446 1.154-.297.298-.673.447-1.128.447-.455 0-.831-.15-1.128-.447a1.616 1.616 0 0 1-.446-1.154v-6.718a5.26 5.26 0 0 0-.21-1.548 2.142 2.142 0 0 0-.761-1.128c-.368-.28-.893-.42-1.575-.42-.664 0-1.233.14-1.706.42a2.78 2.78 0 0 0-1.075 1.128c-.227.455-.341.971-.341 1.548v6.718c0 .455-.149.84-.446 1.154-.298.298-.674.447-1.129.447-.455 0-.831-.15-1.128-.447a1.616 1.616 0 0 1-.446-1.154V31.996c0-.455.148-.831.446-1.128.297-.315.673-.473 1.128-.473.455 0 .831.158 1.129.473.297.297.446.673.446 1.128v1.128l-.394-.079a5.49 5.49 0 0 1 .656-.944 5.427 5.427 0 0 1 2.361-1.68 4.344 4.344 0 0 1 1.601-.288ZM311.813 42.833c0 .455-.148.84-.446 1.154-.297.298-.673.447-1.128.447-.455 0-.831-.15-1.129-.447a1.62 1.62 0 0 1-.445-1.154V31.996c0-.455.148-.831.445-1.128a1.488 1.488 0 0 1 1.129-.473c.455 0 .831.158 1.128.473.298.297.446.673.446 1.128v10.837Zm-1.6-14.143c-.595 0-1.015-.097-1.26-.29-.245-.191-.367-.533-.367-1.022v-.499c0-.507.131-.848.393-1.023.28-.193.7-.289 1.26-.289.612 0 1.041.096 1.286.289.245.192.367.533.367 1.023v.499c0 .507-.131.857-.394 1.05-.262.174-.69.262-1.285.262ZM321.242 30.133c1.295 0 2.274.271 2.939.813.682.542 1.146 1.268 1.391 2.178.262.892.393 1.89.393 2.991v6.718c0 .455-.148.84-.446 1.154-.297.298-.673.447-1.128.447-.455 0-.831-.15-1.129-.447a1.62 1.62 0 0 1-.446-1.154v-6.718c0-.577-.078-1.093-.236-1.548a2.086 2.086 0 0 0-.787-1.128c-.385-.28-.936-.42-1.653-.42-.7 0-1.295.14-1.785.42-.472.28-.839.656-1.102 1.128-.245.455-.367.971-.367 1.548v6.718c0 .455-.148.84-.446 1.154-.297.298-.674.447-1.128.447-.455 0-.831-.15-1.128-.447a1.617 1.617 0 0 1-.447-1.154V31.996c0-.455.149-.831.447-1.128.297-.315.673-.473 1.128-.473.454 0 .831.158 1.128.473.298.297.446.673.446 1.128v1.128l-.393-.079c.157-.297.384-.612.682-.944.297-.35.647-.674 1.049-.971a5.064 5.064 0 0 1 1.365-.709 4.622 4.622 0 0 1 1.653-.288ZM341.544 37.428c0 1.434-.324 2.702-.971 3.804a6.781 6.781 0 0 1-2.571 2.545c-1.067.613-2.266.92-3.595.92-1.33 0-2.537-.307-3.621-.92a7.039 7.039 0 0 1-2.572-2.545c-.629-1.102-.944-2.37-.944-3.804 0-1.435.315-2.694.944-3.779.648-1.102 1.505-1.96 2.572-2.572 1.084-.63 2.291-.944 3.621-.944 1.329 0 2.528.315 3.595.945a6.729 6.729 0 0 1 2.571 2.571c.647 1.084.971 2.344.971 3.779Zm-3.149 0c0-.893-.183-1.662-.551-2.31a3.859 3.859 0 0 0-1.443-1.548 3.72 3.72 0 0 0-1.994-.55c-.735 0-1.408.183-2.021.55-.595.368-1.076.884-1.443 1.548-.35.648-.525 1.417-.525 2.31 0 .874.175 1.644.525 2.309a4.16 4.16 0 0 0 1.443 1.521 3.856 3.856 0 0 0 2.021.552 3.72 3.72 0 0 0 1.994-.552 3.902 3.902 0 0 0 1.443-1.521c.368-.665.551-1.435.551-2.31ZM353.28 30.395c.455 0 .832.158 1.129.473.297.297.446.673.446 1.128v6.665c0 1.854-.516 3.324-1.548 4.408-1.032 1.085-2.519 1.627-4.461 1.627-1.942 0-3.429-.542-4.461-1.627-1.014-1.084-1.522-2.554-1.522-4.408v-6.665c0-.455.149-.831.447-1.128.297-.315.673-.473 1.128-.473.455 0 .831.158 1.128.473.298.297.446.673.446 1.128v6.665c0 1.067.236 1.863.709 2.388.472.507 1.18.76 2.125.76.962 0 1.68-.253 2.152-.76.472-.525.708-1.321.708-2.388v-6.665c0-.455.149-.831.446-1.128a1.487 1.487 0 0 1 1.128-.473ZM356.138 42.256c-.175-.245-.254-.56-.236-.945.017-.385.245-.717.682-.997.28-.175.577-.245.892-.21.315.017.621.175.919.472.507.508 1.04.901 1.6 1.181s1.26.42 2.1.42c.262-.018.55-.053.865-.105.315-.07.587-.21.814-.42.245-.227.367-.568.367-1.023 0-.385-.131-.691-.394-.919-.262-.227-.612-.42-1.049-.577-.42-.157-.892-.306-1.417-.446a44.72 44.72 0 0 1-1.679-.525 7.437 7.437 0 0 1-1.549-.734 3.716 3.716 0 0 1-1.154-1.234c-.297-.507-.446-1.146-.446-1.915 0-.875.245-1.618.735-2.23a4.814 4.814 0 0 1 1.889-1.418 6.275 6.275 0 0 1 2.466-.498c.543 0 1.111.07 1.706.21a6.07 6.07 0 0 1 1.705.63c.543.28.998.655 1.365 1.128.192.262.306.577.341.944.035.368-.131.7-.499.998-.262.21-.568.306-.918.288a1.454 1.454 0 0 1-.866-.367c-.297-.385-.699-.691-1.207-.919-.49-.227-1.058-.34-1.705-.34-.263 0-.551.034-.866.104-.298.053-.56.184-.787.394-.228.192-.342.507-.342.944 0 .403.132.727.394.971.263.228.612.42 1.05.578.454.14.936.28 1.443.42.525.14 1.058.306 1.6.498a6.326 6.326 0 0 1 1.496.761c.455.315.822.726 1.102 1.233.28.49.42 1.12.42 1.89 0 .892-.262 1.653-.787 2.283a5.105 5.105 0 0 1-1.968 1.443 6.444 6.444 0 0 1-2.414.472 9.588 9.588 0 0 1-3.096-.525c-1.032-.367-1.89-1.006-2.572-1.915Z" fill="#000"/><path d="M478.131 25.353a4.267 4.267 0 1 1-8.534 0 4.267 4.267 0 0 1 8.534 0ZM471.564 44.135c-7.762 0-14.054-6.292-14.054-14.054v-6.746c7.762 0 14.055 6.292 14.055 14.054l-.001 6.746ZM487.024 27.832c-7.762 0-14.054 6.293-14.054 14.055v6.746c7.762 0 14.054-6.293 14.054-14.055v-6.746Z" fill="#34BC85"/><path d="M513.012 25.279V42.2h-3.394V31.194L505.085 42.2h-2.57l-4.557-11.006V42.2h-3.395V25.28h3.855L503.8 37.86l5.382-12.582h3.83ZM517.119 27.17c-.598 0-1.099-.186-1.503-.558a1.944 1.944 0 0 1-.582-1.43c0-.566.194-1.034.582-1.406.404-.388.905-.582 1.503-.582.598 0 1.091.194 1.479.582.404.372.606.84.606 1.406s-.202 1.042-.606 1.43c-.388.372-.881.558-1.479.558Zm1.673 1.6V42.2h-3.394V28.77h3.394ZM528.618 28.576c1.6 0 2.893.509 3.879 1.527.986 1.002 1.479 2.408 1.479 4.218v7.88h-3.394v-7.419c0-1.067-.267-1.883-.8-2.448-.533-.582-1.261-.873-2.182-.873-.937 0-1.681.29-2.23.873-.534.565-.8 1.381-.8 2.448V42.2h-3.394V28.77h3.394v1.673a4.596 4.596 0 0 1 1.721-1.358 5.332 5.332 0 0 1 2.327-.51ZM540.185 31.558v6.497c0 .452.105.784.315.994.226.194.598.29 1.115.29h1.576V42.2h-2.133c-2.861 0-4.291-1.39-4.291-4.17v-6.472h-2.519V28.77h2.519v-3.321h3.418v6.109Z" fill="#0F5156"/><path d="m555.916 28.77-8.315 19.782h-3.612l2.908-6.691-5.381-13.091h3.806l3.467 9.382 3.515-9.382h3.612Z" fill="#0F5156"/><path d="M87.154 133.54c-1.17 0-2.258-.2-3.265-.6a8.251 8.251 0 0 1-2.621-1.732 8.068 8.068 0 0 1-1.733-2.577 8.21 8.21 0 0 1-.622-3.199c0-1.14.208-2.199.622-3.177a7.737 7.737 0 0 1 1.733-2.576 7.881 7.881 0 0 1 2.599-1.689 8.504 8.504 0 0 1 3.265-.622c1.244 0 2.348.2 3.31.6a8.164 8.164 0 0 1 2.21 1.331.439.439 0 0 1 .017.644L91 121.628c-.183.185-.482.178-.68.009a4.476 4.476 0 0 0-1.166-.715c-.578-.251-1.251-.377-2.022-.377-.68 0-1.31.118-1.888.355a4.105 4.105 0 0 0-1.466.978 4.83 4.83 0 0 0-.955 1.555 5.774 5.774 0 0 0-.333 1.999c0 .74.11 1.414.333 2.022.237.606.555 1.125.955 1.554.415.43.903.763 1.466 1a4.927 4.927 0 0 0 1.888.355c.8 0 1.496-.126 2.088-.377a4.68 4.68 0 0 0 1.192-.726.497.497 0 0 1 .671.012l1.687 1.686a.44.44 0 0 1-.022.652 8.664 8.664 0 0 1-2.239 1.33c-.963.4-2.081.6-3.355.6ZM74.774 133.296a.46.46 0 0 1-.459-.459v-14.766c0-.253.206-.458.46-.458h2.57c.252 0 .458.205.458.458v14.766a.46.46 0 0 1-.459.459h-2.57ZM93.918 132.837a.46.46 0 0 0 .459.459h2.57a.383.383 0 0 0 .048-.003.375.375 0 0 0 .048.003h7.679a.46.46 0 0 0 .459-.459v-2.104a.46.46 0 0 0-.459-.459h-7.316v-3.531h6.538a.459.459 0 0 0 .459-.459v-1.993a.458.458 0 0 0-.459-.458h-6.538v-3.221h7.205a.459.459 0 0 0 .458-.459v-2.082a.458.458 0 0 0-.458-.458h-7.568c-.017 0-.033 0-.048.002-.016-.002-.032-.002-.048-.002h-2.57a.458.458 0 0 0-.459.458v14.766Z" fill="#034369"/><path fill-rule="evenodd" clip-rule="evenodd" d="M109.598 133.296a.536.536 0 0 1-.07-.005.536.536 0 0 1-.07.005h-2.526a.459.459 0 0 1-.458-.459v-14.766c0-.253.205-.458.458-.458h2.526c.024 0 .047.001.07.005a.405.405 0 0 1 .07-.005h3.606c1.007 0 1.859.185 2.555.555.711.37 1.251.866 1.622 1.488.37.622.555 1.311.555 2.066 0 .963-.311 1.777-.933 2.444a3.937 3.937 0 0 1-.969.746c.53.259.979.588 1.347.986.725.771 1.088 1.718 1.088 2.844 0 .859-.215 1.636-.644 2.332-.415.681-1.022 1.222-1.822 1.622-.784.4-1.732.6-2.843.6h-3.562Zm.319-2.71h2.91c.681 0 1.214-.2 1.599-.6.385-.4.578-.889.578-1.466 0-.4-.089-.755-.267-1.066a1.892 1.892 0 0 0-.755-.734c-.311-.177-.696-.266-1.155-.266h-2.91v4.132Zm2.621-6.776h-2.621v-3.487h2.621c.577 0 1.044.148 1.4.444.355.281.532.711.532 1.288 0 .593-.177 1.037-.532 1.333-.356.282-.823.422-1.4.422Z" fill="#034369"/><path d="M119.594 132.837c0 .253.205.459.459.459h2.57a.387.387 0 0 0 .048-.003.36.36 0 0 0 .047.003h7.679a.459.459 0 0 0 .459-.459v-2.104a.459.459 0 0 0-.459-.459h-7.315v-3.531h6.538a.46.46 0 0 0 .459-.459v-1.993a.459.459 0 0 0-.459-.458h-6.538v-3.221h7.204a.459.459 0 0 0 .459-.459v-2.082a.458.458 0 0 0-.459-.458h-7.568c-.016 0-.032 0-.047.002-.016-.002-.032-.002-.048-.002h-2.57a.458.458 0 0 0-.459.458v14.766Z" fill="#034369"/><path fill-rule="evenodd" clip-rule="evenodd" d="M135.638 132.837v-6.006h.458a.45.45 0 0 0 .087.25l4.36 6.025a.46.46 0 0 0 .372.19h2.969a.46.46 0 0 0 .365-.738l-4.461-5.839a5.645 5.645 0 0 0 1.47-.465c.8-.385 1.422-.918 1.866-1.6.445-.696.667-1.503.667-2.421 0-.903-.222-1.703-.667-2.399-.444-.696-1.059-1.237-1.843-1.622-.786-.399-1.696-.599-2.733-.599h-3.273c-.016 0-.032 0-.048.002-.016-.002-.032-.002-.048-.002h-2.57a.459.459 0 0 0-.459.458v14.766a.46.46 0 0 0 .459.459h2.57a.459.459 0 0 0 .459-.459Zm2.488-8.582h-2.488v-3.932h2.51c.696 0 1.229.185 1.6.555.37.37.555.837.555 1.4 0 .607-.192 1.088-.578 1.443-.37.356-.903.534-1.599.534Z" fill="#034369"/><path d="M149.338 132.918a8.37 8.37 0 0 0 3.221.622c1.555 0 2.925-.326 4.11-.977 1.199-.652 2.132-1.615 2.799-2.888.681-1.289 1.021-2.873 1.021-4.754v-.052a.459.459 0 0 0-.458-.459h-7.324a.46.46 0 0 0-.459.459v2.044c0 .251.201.455.452.459l4.054.064a4.234 4.234 0 0 1-.352.906 3.578 3.578 0 0 1-1.488 1.511c-.637.34-1.415.51-2.333.51-.903 0-1.703-.207-2.399-.622a4.41 4.41 0 0 1-1.644-1.732c-.399-.741-.599-1.6-.599-2.577 0-.977.2-1.829.599-2.555.415-.74.985-1.31 1.711-1.71.725-.415 1.548-.622 2.466-.622.859 0 1.628.163 2.31.489a4.762 4.762 0 0 1 1.44 1.068c.188.202.51.225.706.029l1.71-1.71a.438.438 0 0 0 .016-.612c-.677-.711-1.501-1.28-2.473-1.708-1.095-.488-2.317-.733-3.665-.733-1.17 0-2.266.208-3.288.622-1.022.4-1.917.97-2.687 1.711a7.921 7.921 0 0 0-1.778 2.554 7.821 7.821 0 0 0-.644 3.177c0 1.14.207 2.207.622 3.199a8.384 8.384 0 0 0 1.755 2.577 8.185 8.185 0 0 0 2.599 1.71Z" fill="#034369"/><path d="M28.43 112.026c-1.965 2.499-1.965 6.156-1.965 13.47 0 7.314 0 10.971 1.965 13.469.45.574.968 1.091 1.542 1.542.219.173.447.33.686.474l9.672-21.353a1.948 1.948 0 0 1 2.443-1.027l6.146 2.244c.58.212 1.026.687 1.2 1.28l5.63 19.116c.416-.208.8-.45 1.161-.734a9.16 9.16 0 0 0 1.542-1.542c1.965-2.498 1.965-6.155 1.965-13.469 0-7.314 0-10.971-1.965-13.47a9.155 9.155 0 0 0-1.542-1.541c-2.498-1.965-6.155-1.965-13.469-1.965-7.314 0-10.97 0-13.47 1.965a9.158 9.158 0 0 0-1.541 1.541Z" fill="url('#paint0_linear_7_1641')"/><path d="M254.646 114.664a6.528 6.528 0 1 1 13.056 0 6.528 6.528 0 0 1-13.056 0Z" fill="#FF2C2C"/><path d="M261.569 124.085v4.698c0 2.081-.002 3.553-.097 4.704-.094 1.132-.272 1.823-.553 2.364a5.773 5.773 0 0 1-2.462 2.461c-.541.282-1.231.46-2.364.554-1.15.095-2.623.097-4.704.097h-4.334c-2.082 0-3.554-.002-4.704-.097-1.133-.094-1.823-.272-2.364-.554a5.768 5.768 0 0 1-2.462-2.461c-.281-.541-.459-1.232-.553-2.364-.096-1.151-.097-2.623-.097-4.704v-4.335c0-2.081.001-3.553.097-4.703.094-1.133.272-1.823.553-2.364a5.765 5.765 0 0 1 2.462-2.462c.541-.281 1.231-.459 2.364-.554 1.15-.095 2.622-.096 4.704-.096h4.697a9.405 9.405 0 0 1 .584-2.902h-5.346c-2.002 0-3.595 0-4.879.107-1.316.109-2.437.338-3.462.87a8.678 8.678 0 0 0-3.699 3.699c-.532 1.025-.76 2.146-.87 3.462-.106 1.284-.106 2.877-.106 4.879v4.463c0 2.002 0 3.595.106 4.88.11 1.315.338 2.437.87 3.461a8.678 8.678 0 0 0 3.699 3.699c1.025.532 2.146.761 3.462.87 1.284.107 2.877.107 4.879.107h4.464c2.002 0 3.594 0 4.879-.107 1.315-.109 2.437-.338 3.461-.87a8.685 8.685 0 0 0 3.7-3.699c.532-1.024.76-2.146.87-3.461.106-1.285.106-2.878.106-4.879v-5.347a9.399 9.399 0 0 1-2.901.584ZM286.373 123.836c0 .891-.214 1.726-.644 2.506-.413.779-1.073 1.407-1.98 1.884-.891.477-2.02.716-3.388.716h-2.791v6.394h-3.341v-16.653h6.132c1.289 0 2.386.223 3.293.668.906.445 1.582 1.058 2.027 1.837.462.779.692 1.662.692 2.648Zm-6.155 2.41c.922 0 1.606-.207 2.052-.62.445-.43.668-1.026.668-1.79 0-1.622-.907-2.433-2.72-2.433h-2.648v4.843h2.648ZM291.131 124.17c.43-.7.986-1.248 1.67-1.646.7-.398 1.495-.596 2.386-.596v3.507h-.883c-1.049 0-1.845.246-2.385.739-.526.494-.788 1.352-.788 2.577v6.585h-3.34v-13.218h3.34v2.052ZM302.351 135.551c-1.272 0-2.417-.279-3.435-.836a6.261 6.261 0 0 1-2.41-2.409c-.572-1.034-.859-2.227-.859-3.579 0-1.352.295-2.545.883-3.579a6.213 6.213 0 0 1 2.458-2.385c1.033-.573 2.187-.859 3.459-.859 1.272 0 2.426.286 3.46.859a6.062 6.062 0 0 1 2.433 2.385c.604 1.034.907 2.227.907 3.579 0 1.352-.311 2.545-.931 3.579a6.328 6.328 0 0 1-2.481 2.409c-1.034.557-2.195.836-3.484.836Zm0-2.911c.605 0 1.17-.143 1.694-.429a3.268 3.268 0 0 0 1.289-1.337c.318-.588.477-1.304.477-2.147 0-1.257-.334-2.219-1.002-2.887-.652-.684-1.456-1.026-2.41-1.026-.954 0-1.757.342-2.409 1.026-.637.668-.955 1.63-.955 2.887 0 1.257.31 2.227.931 2.911.636.668 1.431 1.002 2.385 1.002ZM309.883 128.68c0-1.336.262-2.522.787-3.555.541-1.034 1.272-1.83 2.195-2.386.923-.557 1.948-.835 3.078-.835.859 0 1.678.191 2.457.572.779.366 1.4.859 1.861 1.48v-6.275h3.388v17.655h-3.388v-1.957c-.414.652-.994 1.178-1.742 1.575-.747.398-1.614.597-2.6.597a5.682 5.682 0 0 1-3.054-.859c-.923-.573-1.654-1.376-2.195-2.41-.525-1.05-.787-2.251-.787-3.602Zm10.402.047c0-.811-.159-1.503-.477-2.075-.319-.589-.748-1.034-1.289-1.337a3.375 3.375 0 0 0-1.741-.477c-.621 0-1.193.151-1.718.454-.525.302-.954.747-1.288 1.336-.318.572-.478 1.256-.478 2.052 0 .795.16 1.495.478 2.099.334.588.763 1.042 1.288 1.36a3.336 3.336 0 0 0 1.718.477c.62 0 1.201-.151 1.741-.453a3.48 3.48 0 0 0 1.289-1.336c.318-.589.477-1.289.477-2.1ZM338.435 122.118v13.218h-3.364v-1.67c-.429.573-.994 1.026-1.694 1.36a5.252 5.252 0 0 1-2.243.477c-1.033 0-1.948-.215-2.743-.644-.796-.446-1.424-1.09-1.885-1.933-.445-.859-.668-1.877-.668-3.054v-7.754h3.34v7.277c0 1.05.262 1.861.787 2.434.525.556 1.241.835 2.147.835.923 0 1.647-.279 2.172-.835.524-.573.787-1.384.787-2.434v-7.277h3.364ZM339.917 128.727c0-1.368.279-2.561.835-3.579.557-1.033 1.328-1.829 2.314-2.385.986-.573 2.116-.859 3.388-.859 1.639 0 2.99.413 4.056 1.24 1.082.812 1.805 1.957 2.171 3.436h-3.602c-.191-.573-.517-1.018-.978-1.336-.446-.334-1.002-.501-1.671-.501-.954 0-1.709.35-2.266 1.05-.557.683-.835 1.662-.835 2.934 0 1.257.278 2.235.835 2.935.557.684 1.312 1.026 2.266 1.026 1.352 0 2.235-.605 2.649-1.814h3.602c-.366 1.432-1.089 2.569-2.171 3.412-1.081.843-2.433 1.265-4.056 1.265-1.272 0-2.402-.279-3.388-.836a6.068 6.068 0 0 1-2.314-2.385c-.556-1.034-.835-2.235-.835-3.603ZM358.063 124.862v6.394c0 .445.104.771.311.978.222.191.588.287 1.097.287h1.551v2.815h-2.1c-2.815 0-4.223-1.368-4.223-4.104v-6.37h-1.574v-2.744h1.574v-3.268h3.364v3.268h2.959v2.744h-2.959Z" fill="#000"/><path d="M363.949 135.503c-.605 0-1.106-.183-1.503-.548a1.915 1.915 0 0 1-.573-1.408c0-.557.191-1.018.573-1.384.397-.382.898-.573 1.503-.573.588 0 1.073.191 1.455.573.382.366.573.827.573 1.384 0 .556-.191 1.026-.573 1.408-.382.365-.867.548-1.455.548Z" fill="#FF2C2C"/><path d="m470.123 136.572 1.786-.447v-19.043l-1.786-.446v-.446h8.034c3.015 0 5.227.486 6.635 1.458 1.429.952 2.143 2.201 2.143 3.749 0 1.071-.308 1.934-.923 2.588-.615.655-1.398 1.141-2.35 1.458a10.307 10.307 0 0 1-3.273.566v.148c1.448.06 2.707.278 3.779.655 1.09.357 1.993.913 2.707 1.666.734.754 1.101 1.716 1.101 2.887 0 1.765-.724 3.154-2.172 4.165-1.448.992-3.799 1.488-7.052 1.488h-8.629v-.446Zm8.034-10.861c.655 0 1.26-.178 1.815-.535a3.994 3.994 0 0 0 1.369-1.548 4.692 4.692 0 0 0 .535-2.231c0-.873-.178-1.647-.535-2.321-.337-.675-.794-1.2-1.369-1.577a3.165 3.165 0 0 0-1.815-.566h-1.339v8.778h1.339Zm.595 10.563c1.23 0 2.232-.436 3.005-1.309.774-.873 1.161-2.073 1.161-3.6 0-1.528-.387-2.728-1.161-3.601-.773-.873-1.775-1.309-3.005-1.309h-1.934v9.819h1.934ZM488.562 136.572l1.785-.447v-19.043l-1.785-.446v-.446h3.868c1.785 0 2.678.892 2.678 2.678v17.257l1.785.447v.446h-8.331v-.446ZM505.071 137.464c-2.46 0-4.394-.694-5.803-2.082-1.388-1.409-2.082-3.343-2.082-5.803 0-2.459.694-4.384 2.082-5.772 1.409-1.409 3.343-2.113 5.803-2.113 2.459 0 4.383.704 5.772 2.113 1.408 1.388 2.113 3.313 2.113 5.772 0 2.46-.705 4.394-2.113 5.803-1.389 1.388-3.313 2.082-5.772 2.082Zm0-.595c.793 0 1.457-.555 1.993-1.666.556-1.111.833-2.985.833-5.624 0-2.638-.277-4.512-.833-5.623-.536-1.111-1.2-1.667-1.993-1.667-.794 0-1.468.556-2.024 1.667-.536 1.111-.803 2.985-.803 5.623 0 2.639.267 4.513.803 5.624.556 1.111 1.23 1.666 2.024 1.666ZM520.852 137.464c-1.23 0-2.331-.267-3.303-.803a5.03 5.03 0 0 1-1.161-.833c-.317.436-.664.774-1.041 1.011a4.238 4.238 0 0 1-.595.328h-.744v-5.058h1.19a8.395 8.395 0 0 0 1.131 2.32c1.051 1.528 2.36 2.291 3.928 2.291.833 0 1.457-.198 1.874-.595.436-.416.655-1.011.655-1.785 0-.654-.298-1.2-.893-1.637-.575-.456-1.488-1.011-2.737-1.666-1.072-.535-1.945-1.011-2.619-1.428a6.85 6.85 0 0 1-1.696-1.607c-.456-.654-.684-1.418-.684-2.291 0-1.19.506-2.152 1.517-2.886 1.032-.754 2.609-1.131 4.731-1.131 1.051 0 2.024.278 2.916.833.437.258.814.526 1.131.804a4.637 4.637 0 0 1 1.041-1.012c.338-.198.536-.307.595-.327h.744v5.058h-1.19a10.6 10.6 0 0 0-1.101-2.291c-.992-1.547-2.172-2.321-3.541-2.321a1.82 1.82 0 0 0-1.368.595c-.377.397-.566.893-.566 1.488 0 .754.318 1.389.952 1.904.635.496 1.597 1.071 2.887 1.726 1.051.536 1.884 1.012 2.499 1.428.635.397 1.17.893 1.607 1.488.456.595.684 1.289.684 2.083 0 2.876-2.281 4.314-6.843 4.314ZM535.433 137.464c-1.23 0-2.331-.267-3.303-.803a5.03 5.03 0 0 1-1.161-.833c-.317.436-.664.774-1.041 1.011a4.238 4.238 0 0 1-.595.328h-.744v-5.058h1.19a8.395 8.395 0 0 0 1.131 2.32c1.051 1.528 2.36 2.291 3.927 2.291.833 0 1.458-.198 1.875-.595.436-.416.654-1.011.654-1.785 0-.654-.297-1.2-.892-1.637-.575-.456-1.488-1.011-2.737-1.666-1.072-.535-1.944-1.011-2.619-1.428a6.868 6.868 0 0 1-1.696-1.607c-.456-.654-.684-1.418-.684-2.291 0-1.19.506-2.152 1.517-2.886 1.032-.754 2.609-1.131 4.731-1.131a5.42 5.42 0 0 1 2.916.833c.437.258.814.526 1.131.804a4.637 4.637 0 0 1 1.041-1.012c.338-.198.536-.307.595-.327h.744v5.058h-1.19a10.6 10.6 0 0 0-1.101-2.291c-.992-1.547-2.172-2.321-3.541-2.321a1.82 1.82 0 0 0-1.368.595c-.377.397-.566.893-.566 1.488 0 .754.318 1.389.952 1.904.635.496 1.597 1.071 2.887 1.726 1.051.536 1.884 1.012 2.499 1.428a5.753 5.753 0 0 1 1.607 1.488c.456.595.684 1.289.684 2.083 0 2.876-2.281 4.314-6.843 4.314ZM550.907 137.464c-2.46 0-4.394-.694-5.803-2.082-1.388-1.409-2.083-3.343-2.083-5.803 0-2.459.695-4.384 2.083-5.772 1.409-1.409 3.343-2.113 5.803-2.113 2.459 0 4.383.704 5.772 2.113 1.409 1.388 2.113 3.313 2.113 5.772 0 2.46-.704 4.394-2.113 5.803-1.389 1.388-3.313 2.082-5.772 2.082Zm0-.595c.793 0 1.458-.555 1.993-1.666.556-1.111.833-2.985.833-5.624 0-2.638-.277-4.512-.833-5.623-.535-1.111-1.2-1.667-1.993-1.667-.794 0-1.468.556-2.024 1.667-.535 1.111-.803 2.985-.803 5.623 0 2.639.268 4.513.803 5.624.556 1.111 1.23 1.666 2.024 1.666ZM559.694 136.572l1.786-.447v-13.092l-1.786-.446v-.447h2.678c1.171 0 2.093.377 2.767 1.131.258.298.476.665.655 1.101.298-.555.615-1.002.952-1.339.893-.893 1.915-1.339 3.065-1.339s2.162.258 3.035.774a5.161 5.161 0 0 1 2.023 2.053c.298-.575.615-1.041.952-1.399.913-.952 1.935-1.428 3.065-1.428 1.052 0 1.994.218 2.827.655.853.436 1.508 1.031 1.964 1.785.476.754.714 1.577.714 2.47v9.521l1.785.447v.446h-3.868c-1.785 0-2.678-.893-2.678-2.678v-7.736c0-1.29-.198-2.252-.595-2.887-.397-.654-.843-.981-1.339-.981-.575 0-1.16.396-1.756 1.19a8.566 8.566 0 0 0-.624 1.19v11.009l1.785.447v.446h-8.331v-.446l1.785-.447v-9.521c0-1.29-.198-2.252-.595-2.887-.397-.654-.843-.981-1.339-.981-.576 0-1.161.396-1.756 1.19a8.571 8.571 0 0 0-.625 1.19v11.009l1.786.447v.446h-8.332v-.446Z" fill="#1A1B6C"/><path fill-rule="evenodd" clip-rule="evenodd" d="M445.903 142.699a2.209 2.209 0 0 1-.593.036c-6.232-.473-12.132-3.916-15.493-9.738-3.361-5.822-3.393-12.652-.686-18.287a2.198 2.198 0 0 1 2.15-1.241c2.322.176 4.599.765 6.715 1.736a20.79 20.79 0 0 1 6.838-7.719 2.215 2.215 0 0 1 2.486 0 20.787 20.787 0 0 1 6.772 7.592 19.717 19.717 0 0 1 6.434-1.609 2.195 2.195 0 0 1 2.149 1.241c2.707 5.635 2.676 12.465-.685 18.287-3.362 5.822-9.261 9.265-15.494 9.738a2.209 2.209 0 0 1-.593-.036Zm4.567-3.529a16.792 16.792 0 0 0 9.166-7.531c2.83-4.902 2.923-10.634.741-15.43a16.99 16.99 0 0 0-5.19 1.355 20.656 20.656 0 0 1 1.24 7.074 20.634 20.634 0 0 1-5.957 14.532Zm1.217-22.829a18.076 18.076 0 0 0-5.61-6.412 18.074 18.074 0 0 0-5.695 6.577 19.457 19.457 0 0 1 5.521 5.325 19.465 19.465 0 0 1 5.784-5.49Zm-4.244 8.125a16.783 16.783 0 0 1 5.324-5.592c.612 1.809.944 3.748.944 5.764 0 4.655-1.767 8.898-4.672 12.093.786-4.037.31-8.336-1.596-12.265Zm-3.079 0a16.802 16.802 0 0 0-5.04-5.403 17.966 17.966 0 0 0-.881 5.575c0 4.416 1.591 8.461 4.234 11.594a19.5 19.5 0 0 1 1.687-11.766Zm1.539 13.593a16.838 16.838 0 0 0 0-10.136 16.838 16.838 0 0 0 0 10.136Zm-13.733-6.42a16.8 16.8 0 0 0 9.679 7.696 20.636 20.636 0 0 1-6.123-14.697c0-2.434.42-4.77 1.192-6.939a16.969 16.969 0 0 0-5.489-1.49c-2.181 4.796-2.089 10.528.741 15.43Z" fill="#EF898B"/><defs><linearGradient id="paint0_linear_7_1641" x1="43.441" y1="99.573" x2="43.441" y2="156.236" gradientUnits="userSpaceOnUse"><stop stop-color="#0BF7FE"/><stop offset="1" stop-color="#38C6FB"/></linearGradient></defs></svg>