<svg width="350" height="260" fill="none" xmlns="http://www.w3.org/2000/svg"><g clip-path="url('#clip0_1_703')"><g clip-path="url('#clip1_1_703')"><path d="M167 .848H0v74.888h167V.847Z" fill="#F0FBF6"/><path d="M110.453 40.86c0-2.16-1.732-3.86-3.917-3.86-2.154 0-3.917 1.7-3.917 3.86 0 2.162 1.763 3.86 3.917 3.86 2.185 0 3.917-1.698 3.917-3.86Zm3.195-6.319v12.65h-3.257v-1.143a6.421 6.421 0 0 1-4.123 1.461c-3.855 0-6.865-2.953-6.865-6.648 0-3.685 3.02-6.65 6.865-6.65 1.556 0 2.989.526 4.123 1.462v-1.132h3.257Zm10.823 9.778h-2.453c-.742 0-1.227-.32-1.227-.999v-5.918h3.67v-2.86h-3.67v-3.603h-3.288v3.602h-2.474v2.872h2.474v6.72c0 1.699 1.227 3.047 3.433 3.047h3.525v-2.861h.01Zm7.422 3.19c3.761 0 5.885-1.76 5.885-4.189 0-1.729-1.257-3.015-3.886-3.571l-2.783-.556c-1.608-.288-2.124-.587-2.124-1.173 0-.762.774-1.225 2.207-1.225 1.556 0 2.69.412 3.02 1.811h3.257c-.176-2.634-2.123-4.394-6.061-4.394-3.401 0-5.793 1.379-5.793 4.045 0 1.842 1.319 3.046 4.154 3.633l3.102.7c1.227.236 1.557.555 1.557 1.05 0 .792-.928 1.286-2.422 1.286-1.876 0-2.958-.412-3.371-1.812h-3.288c.485 2.635 2.484 4.395 6.546 4.395ZM86.261 30.054h12.276v2.923H89.58v4.189h8.72v2.84h-8.72v4.24h8.957v2.924H86.261V30.054Z" fill="#06C167"/><path d="M80.427 36.899v-2.296h-.877c-1.391 0-2.422.639-3.04 1.637v-1.544h-2.495V47.16h2.515v-7.081c0-1.935 1.196-3.18 2.845-3.18h1.052Zm-18.1 2.881c.453-1.904 2.02-3.18 3.885-3.18 1.866 0 3.443 1.266 3.866 3.18h-7.752Zm3.937-5.32c-3.71 0-6.535 2.953-6.535 6.473 0 3.716 2.938 6.505 6.762 6.505 2.319 0 4.215-.999 5.483-2.666l-1.824-1.317c-.948 1.245-2.196 1.832-3.67 1.832a4.24 4.24 0 0 1-4.215-3.54h10.348v-.804c.01-3.725-2.68-6.484-6.35-6.484Zm-14.39 10.827c-2.442 0-4.39-1.935-4.39-4.323 0-2.419 1.968-4.323 4.39-4.323 2.392 0 4.36 1.904 4.36 4.323.011 2.388-1.958 4.323-4.36 4.323ZM45.02 47.17h2.495v-1.564c1.144 1.152 2.772 1.852 4.535 1.852 3.742 0 6.68-2.912 6.68-6.504 0-3.613-2.938-6.526-6.68-6.526-1.773 0-3.37.71-4.515 1.853v-6.227H45.02V47.17Zm-8.854-2.007c2.422 0 4.288-1.832 4.288-4.549v-10.56h2.618V47.16h-2.597v-1.585c-1.175 1.194-2.794 1.883-4.618 1.883-3.742 0-6.607-2.665-6.607-6.7V30.054h2.628v10.56c0 2.769 1.845 4.55 4.288 4.55Z" fill="#142328"/></g></g><g clip-path="url('#clip2_1_703')"><g clip-path="url('#clip3_1_703')"><path d="M350 .73H183v74.888h167V.73Z" fill="#F6F6F6"/><path d="M208.5 47.64V29.189h7.684c3.313 0 5.46 2.436 5.46 5.608 0 3.22-2.153 5.604-5.46 5.604h-4.746v7.24H208.5Zm2.935-15.953v6.26h4.623c1.469 0 2.65-1.504 2.65-3.142 0-1.639-1.181-3.118-2.65-3.118h-4.623Zm25.039 12.045c.946-.183 1.864-.367 2.783-.526.183 1.05.813 2.306 2.936 2.306.472 0 2.809-.183 2.809-1.858 0-3.172-8.13.102-8.13-5.58 0-2.256 2.255-3.958 5.089-3.958 2.833 0 5.248 1.179 5.64 4.14-.943.157-1.861.34-2.78.524-.183-1.651-1.204-2.252-2.782-2.252-1.391 0-2.334.733-2.334 1.545 0 1.074.997 1.362 2.572 1.519 2.99.315 5.535.968 5.535 4.062 0 2.775-2.439 4.242-5.616 4.242-3.409 0-5.351-1.78-5.722-4.164Zm12.075-7.216v-2.15h2.283V30.55h2.837v3.825h2.755v2.14h-2.755v7.518c0 1.049.316 1.362 1.234 1.362.392 0 1.259-.051 1.259-.051v2.297s-1.015.105-2.021.105c-2.493 0-3.312-1.338-3.312-3.879v-7.351h-2.28Zm17.74 3.728c0-2.017-.446-3.72-2.572-3.72-2.02 0-2.572 1.703-2.572 3.72v7.397h-2.833V34.375h2.583l.262 1.44c.395-.734 1.97-1.702 3.518-1.702 2.201 0 3.252 1.203 3.698 1.99.708-1.178 2.439-1.99 3.987-1.99 3.613 0 4.725 2.201 4.725 6.131v7.397h-2.819v-7.397c0-1.99-.551-3.746-2.572-3.746-2.126 0-2.571 1.701-2.571 3.746v7.397h-2.834v-7.397Zm15.926-1.323c-.903-.156-1.861-.367-2.806-.523.301-2.935 2.71-4.297 5.483-4.297 3.752 0 5.695 1.834 5.695 5.449v4.612c0 .785.156 1.23.708 1.23a2.41 2.41 0 0 0 .68-.106v2.307a6.069 6.069 0 0 1-1.677.21 2.189 2.189 0 0 1-2.31-1.885 5.515 5.515 0 0 1-4.146 1.963c-3.069 0-4.905-1.702-4.905-4.21 0-2.068 1.914-3.953 5.419-3.953h3.412v-.797c0-1.022-.421-2.405-2.861-2.405-1.625 0-2.622.812-2.676 2.405h-.016Zm5.553 3.563v-.655h-3.138c-2.336 0-2.806 1.178-2.806 1.834 0 .902.602 1.834 2.334 1.834 2.309 0 3.595-1.573 3.595-3.007l.015-.006Zm-59.219 5.433a6.904 6.904 0 0 1-6.38-4.257 6.887 6.887 0 0 1 1.498-7.514 6.91 6.91 0 0 1 10.624 1.049 6.888 6.888 0 0 1-.862 8.704 6.913 6.913 0 0 1-4.88 2.018Zm0-11.16a4.28 4.28 0 0 0-3.951 2.635 4.26 4.26 0 0 0 .927 4.653 4.279 4.279 0 0 0 7.3-3.02 4.28 4.28 0 0 0-4.276-4.27Zm81.06 6.265c.864.235 1.732.497 2.596.761-.602 1.913-2.409 4.113-6.023 4.113-3.613 0-6.242-2.805-6.242-6.891 0-4.087 2.409-6.892 6.113-6.892 3.704 0 5.98 2.463 5.98 6.474.008.42-.009.84-.051 1.257h-9.115c.051 1.94 1.388 3.668 3.312 3.668 1.392 0 2.755-.655 3.439-2.49h-.009Zm-.593-3.307c-.079-1.964-1.021-3.223-2.963-3.223-1.891 0-2.967 1.572-3.044 3.223h6.007Zm4.239 4.017c.946-.183 1.861-.367 2.78-.523.184 1.046.817 2.306 2.939 2.306.473 0 2.81-.183 2.81-1.861 0-3.17-8.131.105-8.131-5.58 0-2.253 2.256-3.958 5.09-3.958 2.833 0 5.245 1.182 5.639 4.14-.945.157-1.864.34-2.779.524-.184-1.651-1.205-2.252-2.783-2.252-1.39 0-2.333.733-2.333 1.545 0 1.074.997 1.362 2.569 1.519 2.993.315 5.538.97 5.538 4.062 0 2.778-2.443 4.242-5.617 4.242-3.408 0-5.351-1.78-5.722-4.164Zm-21.698-7.216v-2.15h2.282V30.55h2.834v3.825h2.767v2.14h-2.755v7.518c0 1.049.316 1.362 1.234 1.362.392 0 1.259-.051 1.259-.051v2.297s-1.015.105-2.02.105c-2.494 0-3.313-1.338-3.313-3.879v-7.351h-2.288Z" fill="#000"/></g></g><g clip-path="url('#clip4_1_703')"><g clip-path="url('#clip5_1_703')"><path d="M167.828 92.13H-.827v75.63h168.655V92.13Z" fill="#FFE6E3"/><path d="M57.895 127.221v6.329h1.58a3.025 3.025 0 0 0 2.15-.945c.567-.6.878-1.398.865-2.225a3.11 3.11 0 0 0-.854-2.234 2.973 2.973 0 0 0-2.161-.926h-1.58v.001Zm1.58-1.984c2.945 0 5.174 2.279 5.174 5.143 0 2.865-2.229 5.157-5.174 5.157h-3.486a.261.261 0 0 1-.178-.076.254.254 0 0 1-.071-.18v-9.778c0-.141.112-.257.25-.257l3.485-.009Zm12.766 8.534c1.338.004 2.546-.818 3.06-2.082a3.446 3.446 0 0 0-.707-3.691 3.245 3.245 0 0 0-3.602-.742c-1.237.521-2.044 1.755-2.046 3.124 0 1.867 1.472 3.382 3.295 3.391Zm0-8.768c3.1 0 5.471 2.44 5.471 5.377 0 2.938-2.37 5.377-5.471 5.377-3.1 0-5.45-2.427-5.45-5.377 0-2.949 2.37-5.377 5.45-5.377Zm13.002 8.768c1.824-.005 3.3-1.521 3.298-3.388-.003-1.869-1.482-3.381-3.304-3.382-1.825 0-3.305 1.512-3.307 3.379 0 .9.349 1.763.97 2.398a3.274 3.274 0 0 0 2.342.993Zm-.001-8.768c3.09 0 5.461 2.428 5.461 5.377 0 2.95-2.38 5.377-5.461 5.377-3.08 0-5.47-2.427-5.47-5.377 0-2.949 2.37-5.377 5.47-5.377Zm12.69 2.218h-2.229v2.724h2.229a1.285 1.285 0 0 0 .956-.364c.258-.25.405-.596.409-.96a1.37 1.37 0 0 0-.387-1.002 1.289 1.289 0 0 0-.978-.395v-.003Zm-4.385-1.718c0-.141.113-.257.25-.257h4.197c2 0 3.447 1.501 3.447 3.386a3.337 3.337 0 0 1-1.795 3.016l1.936 3.503a.27.27 0 0 1 .043.135.267.267 0 0 1-.034.138.248.248 0 0 1-.237.126h-1.698a.253.253 0 0 1-.228-.139l-1.864-3.466h-1.869v3.328a.248.248 0 0 1-.154.236.267.267 0 0 1-.096.021H93.81a.27.27 0 0 1-.097-.021.261.261 0 0 1-.135-.139.252.252 0 0 1-.017-.097l-.012-9.769v-.001Zm13.513 1.767v6.329h1.58a3.007 3.007 0 0 0 2.15-.941c.568-.6.879-1.398.867-2.224a3.118 3.118 0 0 0-.851-2.238 2.971 2.971 0 0 0-2.166-.926h-1.58Zm1.58-1.987c2.945 0 5.173 2.281 5.173 5.151 0 2.871-2.228 5.152-5.173 5.152h-3.476a.228.228 0 0 1-.096-.021.244.244 0 0 1-.082-.056.243.243 0 0 1-.071-.18v-9.777c0-.142.112-.257.249-.257l3.476-.012Zm11.746 2.517-1.223 3.384h2.443l-1.22-3.384Zm-1.94 5.297-.8 2.253a.25.25 0 0 1-.25.177h-1.736a.261.261 0 0 1-.129-.022.266.266 0 0 1-.144-.211.258.258 0 0 1 .024-.131l3.75-9.768a.249.249 0 0 1 .25-.169h1.942a.246.246 0 0 1 .153.043c.046.03.08.075.097.126l3.751 9.768a.258.258 0 0 1 .022.131.254.254 0 0 1-.144.21.24.24 0 0 1-.129.022h-1.735a.245.245 0 0 1-.249-.177l-.801-2.253-3.872.001Zm8.92-5.078c0-1.617 1.365-3.016 3.522-3.016a4.403 4.403 0 0 1 3.126 1.207.253.253 0 0 1 .081.188.253.253 0 0 1-.081.188l-.961.978a.262.262 0 0 1-.081.056.27.27 0 0 1-.097.019.265.265 0 0 1-.096-.019.25.25 0 0 1-.081-.056 2.493 2.493 0 0 0-1.668-.673c-.862 0-1.5.512-1.5 1.103 0 1.912 5.096.809 5.096 4.488-.003 1.865-1.378 3.275-3.81 3.275a5.04 5.04 0 0 1-3.636-1.495.255.255 0 0 1-.06-.291.253.253 0 0 1 .06-.085l.93-.953a.23.23 0 0 1 .083-.058.237.237 0 0 1 .197 0 .24.24 0 0 1 .083.058 3.173 3.173 0 0 0 2.198.917c1.077 0 1.787-.589 1.787-1.327 0-1.912-5.093-.808-5.093-4.488l.001-.016Zm16.5-2.529v3.866h-4.313v-3.866a.269.269 0 0 0-.018-.097.266.266 0 0 0-.135-.138.272.272 0 0 0-.097-.021h-1.636a.25.25 0 0 0-.231.159.25.25 0 0 0-.019.097v9.767c0 .141.113.257.25.257h1.636c.137 0 .25-.116.25-.257v-3.927h4.31v3.927c0 .141.112.257.249.257h1.637a.253.253 0 0 0 .249-.257v-9.767a.246.246 0 0 0-.153-.235.267.267 0 0 0-.096-.021h-1.637a.253.253 0 0 0-.246.256Zm-97.31 1.048c-1.134-2.1-3.354-3.408-5.769-3.4H22.52a.628.628 0 0 0-.578.385.613.613 0 0 0 .136.673l3.98 3.943c.35.349.83.544 1.327.544h12.878a1.65 1.65 0 0 1 1.678 1.62 1.647 1.647 0 0 1-1.644 1.653H31.42a.63.63 0 0 0-.579.383.615.615 0 0 0 .135.674l3.982 3.947c.353.349.83.544 1.328.544H40.3c5.224 0 9.174-5.505 6.256-10.968" fill="#EB1700"/></g></g><g clip-path="url('#clip6_1_703')"><g clip-path="url('#clip7_1_703')"><path d="M350 92.536H183v74.888h167V92.536Z" fill="#FFF0ED"/><path d="M289.431 121.638a2.888 2.888 0 0 1 1.943.685 3.573 3.573 0 0 1 1.095 1.866c.208.911.25 1.85.123 2.775a15.195 15.195 0 0 1-.93 3.586 17.43 17.43 0 0 1-1.604 3.253 17.2 17.2 0 0 1-.883 1.251.06.06 0 0 0 .003.07.06.06 0 0 0 .071.014c.175-.094.346-.196.512-.304.394-.251.773-.522 1.136-.813a6.116 6.116 0 0 0 2.045-3.068c.21-.726.438-1.444.693-2.151a36.71 36.71 0 0 1 1.313-3.237c.335-.745.711-1.472 1.126-2.176a2.088 2.088 0 0 1 1.381-.987 3.363 3.363 0 0 1 1.555.023c.464.115.881.365 1.196.719.325.335.407.832.205 1.251-.059.152-.198.49-.453 1.023-.256.533-.525 1.179-.829 1.897a74.092 74.092 0 0 0-.93 2.31c-.283.724-.52 1.466-.712 2.219a5.22 5.22 0 0 0-.188 1.616c.033.4.19.4.27.4a1.11 1.11 0 0 0 .653-.318c.346-.285.675-.592.982-.918.346-.362.671-.743.972-1.141.275-.365.513-.687.705-.961a.882.882 0 0 1 .731-.373.94.94 0 0 1 .767.396l-.046.015a.68.68 0 0 1-.012.768c-.205.315-.563.846-1.095 1.621a22.991 22.991 0 0 1-1.874 2.351c-.709.788-1.502 1.5-2.365 2.123a4.56 4.56 0 0 1-2.662.958c-.795 0-1.386-.27-1.762-.807a3.396 3.396 0 0 1-.511-1.958v-.127a.113.113 0 0 0-.129-.116.117.117 0 0 0-.06.026l-.511.393a15.325 15.325 0 0 1-3.542 1.914 10.6 10.6 0 0 1-3.857.69c-.185 0-.373-.012-.563-.012-.941-.003-1.64-.295-2.077-.868a2.957 2.957 0 0 1-.211-.313.123.123 0 0 0-.049-.047.126.126 0 0 0-.067-.012.118.118 0 0 0-.061.028.105.105 0 0 0-.036.056c-.145.465-.276.918-.401 1.349-.271.928-.509 1.739-.701 2.455-.191.715-.373 1.408-.512 1.966a16.051 16.051 0 0 0-.285 1.348v.013c-.068.47-.432.847-.908.939a2.236 2.236 0 0 1-.476.049 2.797 2.797 0 0 1-.915-.165 3.15 3.15 0 0 1-1.279-.861 2.222 2.222 0 0 1-.58-1.558 7.38 7.38 0 0 1 .281-1.402c.184-.75.432-1.673.742-2.752.199-.731.455-1.526.711-2.377a.105.105 0 0 0 0-.07.115.115 0 0 0-.177-.057 15.602 15.602 0 0 1-3.069 1.588 10.596 10.596 0 0 1-3.857.691c-.184 0-.373-.013-.562-.013-.942-.002-1.639-.294-2.077-.868a3.316 3.316 0 0 1-.213-.313.125.125 0 0 0-.048-.046.119.119 0 0 0-.128.015.114.114 0 0 0-.035.056c-.146.468-.277.918-.402 1.35-.271.93-.499 1.736-.701 2.454a63.955 63.955 0 0 0-.523 1.969c-.115.445-.211.895-.287 1.348v.013a1.125 1.125 0 0 1-.908.939c-.155.033-.314.05-.473.049a2.775 2.775 0 0 1-.915-.165 3.164 3.164 0 0 1-1.279-.86 2.231 2.231 0 0 1-.58-1.559c.048-.475.143-.944.281-1.402.411-1.61.861-3.211 1.35-4.801a.108.108 0 0 0-.002-.073.112.112 0 0 0-.046-.057.117.117 0 0 0-.073-.015.112.112 0 0 0-.067.03c-.38.343-.778.666-1.193.968a4.47 4.47 0 0 1-2.633.968c-.793 0-1.386-.269-1.762-.807a2.696 2.696 0 0 1-.356-.751.342.342 0 0 0-.251-.234.344.344 0 0 0-.333.096c-.26.266-.543.508-.849.72a6.04 6.04 0 0 1-1.32.692 4.508 4.508 0 0 1-1.59.277 3.047 3.047 0 0 1-1.977-.678 3.783 3.783 0 0 1-1.201-1.83 7.687 7.687 0 0 1-.256-2.774c.098-1.216.347-2.418.743-3.576.894-2.694 2.031-4.661 3.464-5.936 1.431-1.277 2.886-1.925 4.321-1.925a2.982 2.982 0 0 1 1.533.358c.385.219.702.539.913.922.139.257.241.532.302.817a.053.053 0 0 0 .018.028c.008.008.02.012.031.014.011.001.023 0 .034-.005a.074.074 0 0 0 .025-.022 7.95 7.95 0 0 1 .206-.349 2.095 2.095 0 0 1 1.361-.983 3.359 3.359 0 0 1 1.554.02c.473.112.899.364 1.22.721a1.1 1.1 0 0 1 .203 1.251c-.057.15-.211.495-.451 1.023a74.07 74.07 0 0 0-1.765 4.209 18.79 18.79 0 0 0-.71 2.22 5.191 5.191 0 0 0-.19 1.616c.034.4.19.4.272.4.248-.03.478-.143.652-.318.179-.155.366-.319.554-.5a5.887 5.887 0 0 0 1.563-2.425 94.8 94.8 0 0 1 1.372-3.715 57.793 57.793 0 0 1 1.468-3.418 1.87 1.87 0 0 1 1.146-1.021 2.969 2.969 0 0 1 1.464-.097c.464.08.9.276 1.266.567.147.115.274.253.376.409.026.027.054.031.089 0a9.636 9.636 0 0 1 1.376-1.044 4.52 4.52 0 0 1 2.453-.685 2.885 2.885 0 0 1 1.941.685c.551.498.931 1.15 1.091 1.866.208.911.25 1.851.122 2.775a15.101 15.101 0 0 1-.931 3.586 17.39 17.39 0 0 1-1.602 3.253 16.35 16.35 0 0 1-.88 1.251.057.057 0 0 0-.011.036.06.06 0 0 0 .014.034.06.06 0 0 0 .071.014 7.62 7.62 0 0 0 .511-.304c.284-.183.55-.371.801-.566a6.135 6.135 0 0 0 2.125-2.922 91.992 91.992 0 0 1 1.616-4.432 56.48 56.48 0 0 1 1.467-3.418 1.87 1.87 0 0 1 1.146-1.021 2.969 2.969 0 0 1 1.464-.097c.464.081.899.276 1.266.567.152.12.284.261.389.422.025.027.054.031.09 0a9.525 9.525 0 0 1 1.376-1.044 4.509 4.509 0 0 1 2.448-.685Zm-47.617-6.407a14.34 14.34 0 0 1 3.251.37 10.21 10.21 0 0 1 2.882 1.121 6.685 6.685 0 0 1 2.081 1.874c.544.773.826 1.693.81 2.629a6.327 6.327 0 0 1-.711 2.973 8.652 8.652 0 0 1-1.911 2.438 12.552 12.552 0 0 1-2.798 1.872c-.893.44-1.82.81-2.774 1.103a.096.096 0 0 0-.064.039.096.096 0 0 0-.018.073 21.25 21.25 0 0 0 .317 2.888c.143.789.35 1.567.619 2.324.314.884.744 1.724 1.28 2.498.189.262.395.513.618.75a6.016 6.016 0 0 0 1.359 1.099c.463.273.968.469 1.497.581.259.058.523.095.79.111.274.02.549.02.823 0 .289-.024.576-.07.858-.134.303-.07.6-.16.89-.268.315-.117.621-.252.918-.406.118-.06.233-.122.351-.187a.865.865 0 0 1 1.124.232.82.82 0 0 1-.138 1.117c-.526.45-1.076.873-1.649 1.265-.354.243-.72.469-1.096.678a11.609 11.609 0 0 1-1.696.789 9.614 9.614 0 0 1-1.117.332 7.9 7.9 0 0 1-1.856.223h-.302a6.964 6.964 0 0 1-1.519-.235 6.955 6.955 0 0 1-2.237-1.093c-.5-.37-.952-.799-1.345-1.277a8.953 8.953 0 0 1-.633-.846 11.281 11.281 0 0 1-1.047-1.979 16.013 16.013 0 0 1-.744-2.329c-.1-.418-.183-.851-.255-1.286a18.394 18.394 0 0 1-.159-1.194.112.112 0 0 0-.031-.073.114.114 0 0 0-.152-.014.105.105 0 0 0-.044.068h-.006a28.394 28.394 0 0 0-.408 1.535 61.85 61.85 0 0 0-.437 1.692c-.129.501-.218.891-.257 1.181a1.155 1.155 0 0 1-.996.946 3.05 3.05 0 0 1-1.522-.125 3.551 3.551 0 0 1-1.391-.846 2.145 2.145 0 0 1-.491-.72 2.092 2.092 0 0 1-.159-.852c.048-.825.18-1.643.395-2.444.255-1.11.633-2.432 1.114-3.921a95.946 95.946 0 0 1 1.718-4.841 64.819 64.819 0 0 1 1.902-4.467 1.557 1.557 0 0 1 1.238-.878 9.523 9.523 0 0 1 3.186.102.9.9 0 0 1 .59.46.845.845 0 0 1 .016.739 70.227 70.227 0 0 0-1.593 3.768c-.386 1.001-.767 1.987-1.108 2.946a.12.12 0 0 0-.003.065.117.117 0 0 0 .035.057.12.12 0 0 0 .128.018c.476-.219.936-.47 1.377-.751a10.073 10.073 0 0 0 2-1.649 8.189 8.189 0 0 0 1.417-2.094c.36-.771.544-1.609.542-2.457 0-1.124-.318-1.952-.944-2.465-.626-.513-1.529-.788-2.667-.788a6.497 6.497 0 0 0-3.263.828 9.714 9.714 0 0 0-2.544 2.061 10.032 10.032 0 0 0-1.647 2.573 6.026 6.026 0 0 0-.579 2.317.922.922 0 0 1-.183.594.963.963 0 0 1-.523.352c-.42.124-.872.103-1.279-.058a2.753 2.753 0 0 1-1.196-.928 2.935 2.935 0 0 1-.548-1.847c0-.67.257-1.461.793-2.414a10.179 10.179 0 0 1 2.276-2.692 13.465 13.465 0 0 1 8.844-3.122l.001-.001Zm31.242 9.383-.024.003a.707.707 0 0 0-.373.167c-.357.27-.676.586-.949.938a13.828 13.828 0 0 0-1.105 1.614 18.474 18.474 0 0 0-1.073 2.114 20.983 20.983 0 0 0-.816 2.232 16.843 16.843 0 0 0-.479 1.927 4.573 4.573 0 0 0-.075 1.361c.05.383.171.463.206.478a.11.11 0 0 0 .051 0 .722.722 0 0 0 .374-.165c.359-.272.677-.592.945-.95.402-.518.765-1.062 1.088-1.63a28.37 28.37 0 0 0 1.097-2.124c.315-.726.589-1.469.823-2.224.195-.628.355-1.266.477-1.913l-.009-.004a4.46 4.46 0 0 0 .076-1.344c-.053-.38-.173-.462-.21-.478a.13.13 0 0 0-.048 0l.024-.002Zm14.491 0a.734.734 0 0 0-.373.167 5.029 5.029 0 0 0-.941.931 13.504 13.504 0 0 0-1.105 1.614c-.403.688-.76 1.401-1.071 2.134a21.02 21.02 0 0 0-.826 2.222 16.183 16.183 0 0 0-.477 1.927 4.443 4.443 0 0 0-.077 1.361c.05.383.17.463.207.478a.11.11 0 0 0 .051 0 .715.715 0 0 0 .373-.165c.359-.273.677-.593.946-.95.401-.518.762-1.062 1.084-1.63.374-.643.741-1.358 1.099-2.124.313-.727.584-1.472.814-2.229.195-.628.355-1.266.477-1.913a4.47 4.47 0 0 0 .075-1.345c-.051-.381-.172-.463-.208-.478a.13.13 0 0 0-.048 0Zm-30.344-.068a.66.66 0 0 0-.351.163c-.341.271-.64.591-.886.948-.373.516-.702 1.06-.988 1.627a24.84 24.84 0 0 0-.962 2.124 17.391 17.391 0 0 0-.727 2.216 12.55 12.55 0 0 0-.343 1.903c-.051.451-.046.908.017 1.358.067.386.192.471.228.485a.135.135 0 0 0 .049 0 .638.638 0 0 0 .349-.162c.341-.269.641-.583.89-.933a11.28 11.28 0 0 0 .987-1.607c.336-.65.657-1.374.962-2.124.291-.723.535-1.464.728-2.217.163-.63.282-1.269.358-1.915a4.37 4.37 0 0 0-.01-1.365c-.086-.398-.217-.483-.255-.501a.119.119 0 0 0-.046 0Zm42.657-9.932c.426-.001.847.081 1.24.241a3.23 3.23 0 0 1 1.053.687 3.155 3.155 0 0 1 .95 2.244c0 .417-.084.83-.247 1.215a3.178 3.178 0 0 1-.703 1.03 3.276 3.276 0 0 1-2.293.928 3.292 3.292 0 0 1-1.257-.225 3.24 3.24 0 0 1-1.07-.684 3.122 3.122 0 0 1-.001-4.527 3.257 3.257 0 0 1 2.328-.909Z" fill="#FF441F"/></g></g><g clip-path="url('#clip8_1_703')"><g clip-path="url('#clip9_1_703')"><path d="M167.243 184.382H.258v74.881h166.985v-74.881Z" fill="#FFF0F1"/><path d="M103.214 211.672h-3.483a.337.337 0 0 0-.347.341v7.492h-3.535v-7.492a.33.33 0 0 0-.1-.242.336.336 0 0 0-.246-.099h-3.471a.339.339 0 0 0-.32.21.342.342 0 0 0-.027.131v19.299c0 .19.154.342.347.342h3.483a.353.353 0 0 0 .246-.1.335.335 0 0 0 .101-.242v-7.757h3.535v7.757c0 .19.154.342.347.342h3.483a.343.343 0 0 0 .245-.1.328.328 0 0 0 .102-.242v-19.299a.348.348 0 0 0-.026-.131.349.349 0 0 0-.321-.21h-.013Zm-29.574 0h-3.56c-.18 0-.334.126-.347.303v13.769a2.358 2.358 0 0 1-.489 1.569l.013-.013a1.595 1.595 0 0 1-2.223.115.489.489 0 0 1-.116-.115 2.35 2.35 0 0 1-.463-1.53v-13.795a.303.303 0 0 0-.208-.287.298.298 0 0 0-.126-.016h-3.573a.312.312 0 0 0-.236.073.31.31 0 0 0-.112.218v13.819-.038a6.338 6.338 0 0 0 1.505 4.556l-.013-.013a5.872 5.872 0 0 0 2.004 1.298 5.929 5.929 0 0 0 2.366.398h.051a5.929 5.929 0 0 0 2.365-.398 5.873 5.873 0 0 0 2.005-1.298l-.013.013a6.336 6.336 0 0 0 1.504-4.556v-13.769a.332.332 0 0 0-.334-.303Zm-34.432-.329h-.026a5.946 5.946 0 0 0-2.365.397 5.873 5.873 0 0 0-2.005 1.298l.039-.05a6.347 6.347 0 0 0-1.581 4.543v8.263-.037a6.334 6.334 0 0 0 1.504 4.555l-.013-.012a5.872 5.872 0 0 0 2.005 1.298 5.947 5.947 0 0 0 2.365.398h.064a5.947 5.947 0 0 0 2.365-.398 5.873 5.873 0 0 0 2.005-1.298 6.337 6.337 0 0 0 1.504-4.556v-4.493a.359.359 0 0 0-.111-.241.375.375 0 0 0-.25-.101h-5.14a.382.382 0 0 0-.254.1.37.37 0 0 0-.119.242v3.366a.368.368 0 0 0 .373.355h1.414v.772a2.522 2.522 0 0 1-.489 1.62l.013-.013c-.308.38-.784.595-1.272.557h-.026a1.481 1.481 0 0 1-1.272-.532 2.414 2.414 0 0 1-.514-1.607v-8.188.013a2.467 2.467 0 0 1 .54-1.644c.308-.38.783-.595 1.272-.557h.026c.488-.038.963.152 1.272.531l.026.026c.324.481.474 1.056.424 1.632v.759c.013.178.167.304.346.304h3.484c.18 0 .334-.127.347-.304v-.797.025a6.273 6.273 0 0 0-1.594-4.53h.013a5.904 5.904 0 0 0-2.007-1.294 5.977 5.977 0 0 0-2.363-.402Zm47.85 9.997.026-.025a5.31 5.31 0 0 0 1.226-1.751 5.24 5.24 0 0 0 .432-2.084v.051a5.908 5.908 0 0 0-1.491-4.024v.012a5.648 5.648 0 0 0-1.942-1.383 5.712 5.712 0 0 0-2.35-.464h-5.554a.34.34 0 0 0-.245.099.335.335 0 0 0-.102.242v19.299c0 .19.155.342.347.342h5.837a5.892 5.892 0 0 0 4.575-2.05l-.013.012a6.236 6.236 0 0 0 1.285-4.138v.051a5.346 5.346 0 0 0-2.03-4.189Zm-5.848-5.606h1.761-.013a1.493 1.493 0 0 1 1.17.443l.025.025c.307.408.453.911.412 1.417v-.025c.052.532-.116 1.076-.437 1.519v-.013a1.428 1.428 0 0 1-1.157.481h-1.76v-3.847Zm3.265 11.389.013-.012a1.54 1.54 0 0 1-1.299.531H81.21v-4.176h2.005-.013a1.547 1.547 0 0 1 1.298.532l-.012-.013c.343.432.516.971.488 1.519v.013a2.437 2.437 0 0 1-.514 1.581l.013.025Zm-27.286-4.075.013-.012c.36-.241.68-.531.976-.848l-.012.025a6.307 6.307 0 0 0 1.568-4.379v-.037a6.186 6.186 0 0 0-1.633-4.29l.065.075a5.834 5.834 0 0 0-1.898-1.396 5.917 5.917 0 0 0-2.305-.54h-5.848a.356.356 0 0 0-.246.1.339.339 0 0 0-.101.242v19.324c0 .19.154.342.347.342h3.483a.34.34 0 0 0 .347-.342v-7.149h1.285l2.198 7.289c.038.139.18.241.334.241h3.702a.356.356 0 0 0 .283-.14.32.32 0 0 0 0-.303l-2.558-8.202Zm-2.146-3.555a1.79 1.79 0 0 1-1.389.556h-1.709v-4.315h1.697a1.808 1.808 0 0 1 1.387.557v-.013c.362.429.55.974.527 1.531v.025a2.341 2.341 0 0 1-.527 1.658l.014.001Zm76.472 1.847.026-.025a5.315 5.315 0 0 0 1.226-1.751 5.229 5.229 0 0 0 .432-2.084v.076a5.893 5.893 0 0 0-1.491-4.125l.026.037a5.64 5.64 0 0 0-1.942-1.383 5.715 5.715 0 0 0-2.351-.464h-5.578a.357.357 0 0 0-.133.025.355.355 0 0 0-.188.186.344.344 0 0 0-.026.131v19.349c0 .19.154.342.347.342h5.809a5.89 5.89 0 0 0 4.576-2.05l-.013.012a6.245 6.245 0 0 0 1.286-4.138v.026c0-1.62-.746-3.164-2.031-4.177l.025.013Zm-5.847-5.606h1.76-.012a1.491 1.491 0 0 1 1.168.443l.027.025c.306.408.452.912.411 1.417v-.025a2.246 2.246 0 0 1-.438 1.519v-.013a1.412 1.412 0 0 1-1.156.481h-1.76v-3.847Zm3.264 11.389.013-.012a1.542 1.542 0 0 1-1.298.531h-1.979v-4.176h2.004-.012a1.542 1.542 0 0 1 1.298.532l-.013-.013c.343.432.517.971.489 1.519v.013a2.436 2.436 0 0 1-.515 1.581l.013.025Zm-10.835-15.451h-3.586a.322.322 0 0 0-.313.171.311.311 0 0 0-.033.12v13.781a2.37 2.37 0 0 1-.463 1.544 1.596 1.596 0 0 1-2.223.114.483.483 0 0 1-.116-.114 2.352 2.352 0 0 1-.463-1.531v-13.782c-.013-.177-.167-.303-.348-.303h-3.572c-.18 0-.334.126-.347.303v13.807a6.297 6.297 0 0 0 1.504 4.518l.038.038c2.506 2.214 6.324 2.189 8.791-.076l-.051.038a6.341 6.341 0 0 0 1.504-4.556v-13.769a.332.332 0 0 0-.322-.303Z" fill="#F2333D"/></g></g><g clip-path="url('#clip10_1_703')"><g clip-path="url('#clip11_1_703')"><path d="M350 184.378H183v74.888h167v-74.888Z" fill="#FFF2ED"/><path d="M277.381 218.664h-1.822v9.517h1.822v-9.517ZM262.033 228.181v-13.53h4.649c4.229 0 6.494 2.986 6.494 6.765 0 3.849-2.359 6.765-6.517 6.765h-4.626Zm4.299-1.61c3.271 0 5.022-1.702 5.022-5.155 0-3.522-1.868-5.155-4.952-5.155h-2.547v10.31h2.477ZM275.305 215.491c0-.653.515-1.166 1.169-1.166s1.168.513 1.168 1.166c0 .653-.514 1.167-1.168 1.167a1.172 1.172 0 0 1-1.169-1.167ZM258.88 218.664h-1.822v9.517h1.822v-9.517ZM243.462 228.181v-13.53h4.649c4.229 0 6.495 2.986 6.495 6.765 0 3.849-2.36 6.764-6.518 6.764l-4.626.001Zm4.299-1.61c3.27 0 5.022-1.703 5.022-5.155 0-3.523-1.869-5.156-4.952-5.156h-2.547v10.311h2.477ZM256.802 215.491c0-.653.514-1.166 1.168-1.166.654 0 1.168.513 1.168 1.166 0 .653-.514 1.167-1.168 1.167a1.186 1.186 0 0 1-1.168-1.167ZM295.349 218.383c-3.061 0-4.743 1.75-4.743 4.899 0 3.172 1.682 4.899 4.743 4.899 3.06 0 4.742-1.75 4.742-4.899-.023-3.173-1.705-4.899-4.742-4.899Zm0 8.678c-2.43 0-3.621-1.236-3.621-3.802s1.191-3.803 3.621-3.803c2.429 0 3.621 1.237 3.621 3.803s-1.192 3.802-3.621 3.802ZM305.769 218.383c-3.06 0-4.743 1.75-4.743 4.899 0 3.172 1.683 4.899 4.743 4.899 3.061 0 4.743-1.75 4.743-4.899-.024-3.173-1.706-4.899-4.743-4.899Zm0 8.678c-2.429 0-3.621-1.236-3.621-3.802s1.192-3.803 3.621-3.803c2.43 0 3.621 1.237 3.621 3.803s-1.192 3.802-3.621 3.802ZM283.738 215.421h7.102v-1.05h-8.247v13.81h1.145v-6.135h5.887v-1.073h-5.887v-5.552ZM319.434 214.558v5.202c-.771-.91-1.939-1.4-3.481-1.4-2.92 0-4.532 1.75-4.532 4.922 0 3.173 1.612 4.922 4.532 4.922 1.519 0 2.687-.49 3.458-1.376l.093 1.213h1.004v-13.716l-1.074.233Zm-3.458 12.503c-2.289 0-3.41-1.236-3.41-3.802s1.121-3.803 3.41-3.803c2.29 0 3.411 1.237 3.411 3.803s-1.121 3.802-3.411 3.802Z" fill="#363636"/><path d="M225.335 226.804c4.181-.14 7.522-3.452 7.569-7.604v-3.546h4.602v3.942c-.093 6.392-5.653 11.454-12.171 11.594-6.635-.047-12.241-5.132-12.335-11.594v-7.068c0-.723.467-1.19 1.168-1.19h18.713v4.316H218.21c-.374 0-.608.233-.608.606v2.87c.047 4.199 3.434 7.627 7.733 7.674Z" fill="#F47C46"/></g></g><defs><clipPath id="clip0_1_703"><rect y=".5" width="167" height="75.63" rx="8" fill="#fff"/></clipPath><clipPath id="clip1_1_703"><path fill="#fff" transform="translate(0 .497)" d="M0 0h167v75.637H0z"/></clipPath><clipPath id="clip2_1_703"><rect x="183" y=".5" width="167" height="75.63" rx="8" fill="#fff"/></clipPath><clipPath id="clip3_1_703"><path fill="#fff" transform="translate(183 .497)" d="M0 0h167v75.637H0z"/></clipPath><clipPath id="clip4_1_703"><rect y="92.13" width="167" height="75.63" rx="8" fill="#fff"/></clipPath><clipPath id="clip5_1_703"><path fill="#fff" transform="translate(-.827 92.13)" d="M0 0h168.655v75.63H0z"/></clipPath><clipPath id="clip6_1_703"><rect x="183" y="92.13" width="167" height="75.63" rx="8" fill="#fff"/></clipPath><clipPath id="clip7_1_703"><path fill="#fff" transform="translate(183 92.126)" d="M0 0h167v75.637H0z"/></clipPath><clipPath id="clip8_1_703"><rect y="183.75" width="167" height="75.63" rx="8" fill="#fff"/></clipPath><clipPath id="clip9_1_703"><path fill="#fff" transform="translate(-.367 183.75)" d="M0 0h167.734v75.63H0z"/></clipPath><clipPath id="clip10_1_703"><rect x="183" y="183.75" width="167" height="75.63" rx="8" fill="#fff"/></clipPath><clipPath id="clip11_1_703"><path fill="#fff" transform="translate(183 183.747)" d="M0 0h167v75.637H0z"/></clipPath></defs></svg>