<svg width="17" height="17" fill="none" xmlns="http://www.w3.org/2000/svg"><g clip-path="url('#clip0_1_512')"><path d="M7.652 14.642a.66.66 0 0 1-.368-.104.59.59 0 0 1-.232-.288.648.648 0 0 1-.032-.376.62.62 0 0 1 .168-.32l4.96-4.976-4.96-4.96a.64.64 0 0 1-.192-.464.603.603 0 0 1 .192-.448.64.64 0 0 1 .44-.192c.07 0 .157.021.264.064.075.032.144.08.208.144l5.408 5.408c.128.128.192.28.192.456a.623.623 0 0 1-.192.456L8.1 14.45a.614.614 0 0 1-.448.192Zm5.408-5.424H1.54a.62.62 0 0 1-.456-.184.61.61 0 0 1-.184-.448c0-.176.064-.328.192-.456a.614.614 0 0 1 .448-.192h11.52c.17 0 .32.064.448.192s.192.28.192.456a.61.61 0 0 1-.184.448.62.62 0 0 1-.456.184Z" fill="#FF7629"/></g><defs><clipPath id="clip0_1_512"><path fill="#fff" transform="matrix(1 0 0 -1 .89 16.61)" d="M0 0h15.38v16H0z"/></clipPath></defs></svg>