<svg width="19" height="19" fill="none" xmlns="http://www.w3.org/2000/svg"><g clip-path="url('#clip0_1_63')"><path d="M8.406 16.126a.743.743 0 0 1-.414-.117.665.665 0 0 1-.261-.324.73.73 0 0 1-.036-.423.697.697 0 0 1 .189-.36l5.58-5.598-5.58-5.58a.72.72 0 0 1-.216-.522.678.678 0 0 1 .216-.504.72.72 0 0 1 .495-.216.84.84 0 0 1 .297.072c.084.036.162.09.234.162L14.994 8.8a.7.7 0 0 1 .216.513.7.7 0 0 1-.216.513L8.91 15.91a.69.69 0 0 1-.504.216Zm6.084-6.102H1.53a.697.697 0 0 1-.513-.207.686.686 0 0 1-.207-.504.7.7 0 0 1 .216-.513.69.69 0 0 1 .504-.216h12.96a.69.69 0 0 1 .504.216.7.7 0 0 1 .216.513.686.686 0 0 1-.207.504.697.697 0 0 1-.513.207Z" fill="#FF7629"/></g><defs><clipPath id="clip0_1_63"><path fill="#fff" transform="matrix(1 0 0 -1 .81 18.34)" d="M0 0h17.28v18H0z"/></clipPath></defs></svg>