<svg width="56" height="57" fill="none" xmlns="http://www.w3.org/2000/svg"><rect y=".8" width="56" height="56" rx="28" fill="#FF7629"/><g clip-path="url('#clip0_1_566')"><path d="M18.332 37.16c-.205 0-.366-.051-.484-.154a.812.812 0 0 1-.33-.385.838.838 0 0 1 .198-.957l7.282-7.304-7.282-7.304a.66.66 0 0 1-.242-.616c0-.22.08-.425.242-.616.176-.147.389-.227.638-.242a.677.677 0 0 1 .594.242l7.92 7.92c.176.147.264.348.264.605a.811.811 0 0 1-.264.627l-7.92 7.92c-.146.176-.352.264-.616.264Z" fill="#fff"/></g><defs><clipPath id="clip0_1_566"><path fill="#fff" transform="matrix(1 0 0 -1 17.44 39.8)" d="M0 0h21.13v22H0z"/></clipPath></defs></svg>