<svg width="64" height="65" fill="none" xmlns="http://www.w3.org/2000/svg"><rect y=".83" width="64" height="64" rx="32" fill="#FF7629"/><g clip-path="url('#clip0_1_173')"><path d="M20.574 42.71c-.243 0-.434-.06-.572-.182a.959.959 0 0 1-.39-.455.99.99 0 0 1-.065-.611.932.932 0 0 1 .299-.52l8.606-8.632-8.606-8.632a.78.78 0 0 1-.286-.728c0-.26.095-.503.286-.728a1.26 1.26 0 0 1 .754-.286c.294-.018.528.078.702.286l9.36 9.36c.208.173.312.411.312.715 0 .303-.104.55-.312.74l-9.36 9.36c-.174.209-.416.313-.728.313Z" fill="#fff"/></g><defs><clipPath id="clip0_1_173"><path fill="#fff" transform="matrix(1 0 0 -1 19.52 45.83)" d="M0 0h24.97v26H0z"/></clipPath></defs></svg>