<svg width="132" height="132" fill="none" xmlns="http://www.w3.org/2000/svg"><path d="M62 60.822V71.18a1 1 0 0 0 1.537.843l8.137-5.177a.999.999 0 0 0 0-1.688l-8.137-5.18a1 1 0 0 0-1.537.844Z" fill="#fff"/><g clip-path="url('#clip0_7_1961')" fill="#fff"><path d="M50.294 22.197v3.418l.855.855-1.068.428-3.42-3.42c-1.067-1.068-1.495-1.495-2.35-1.709v-.213l2.137-.855v.214c-.213.427 0 .854.641 1.495l3.205 3.205v-3.418c0-1.496-.213-2.35-1.068-2.564v-.214l1.71-.641v.213c-.428.855-.642 1.71-.642 3.206ZM51.576 16.855c0-.428.214-.855.428-.855.427 0 .854.214.854.427 0 .428-.213.855-.427.855s-.641 0-.855-.427Zm4.06 8.333-1.923.641c.214-.214.214-.427 0-.855L52.43 20.06c-.214-.427-.214-.641-.427-.641l1.282-.641 1.495 5.983.855.427ZM63.329 21.555c0 1.069-.641 2.565-2.778 2.778-2.137.214-4.06-.427-4.487-2.991-.427-2.564 1.71-4.06 3.419-4.274 1.282-.213 2.991.214 3.419 1.923-.214 0-1.069.214-1.069.214h-.427c.855.214 1.71 1.069 1.923 2.35Zm-2.564-2.136-3.846.427c0 .855 0 1.71.427 2.35.855 1.496 1.923 1.924 3.419 1.71 1.282-.214 2.35-1.282 2.35-2.35 0-1.496-1.282-2.137-2.35-2.137Zm-3.846.427 4.7-.64c-.427-1.283-1.709-2.138-2.99-1.71-1.07.427-1.496 1.282-1.71 2.35ZM74.653 17.495c-.64.642-1.068 1.283-1.71 2.35l-1.495 3.42.428 1.282h-1.282s-1.496-4.915-1.496-5.128l-1.496 3.846.427 1.068h-1.282l-1.495-4.487c-.428-1.496-.855-2.137-1.496-2.778v-.213l2.35.213v.214c-.427.427-.213.855 0 1.71l1.496 4.273 1.496-3.846c-.214-1.282-.428-1.924-1.069-2.35v-.214l2.35.213v.214c-.427.427-.427.855 0 2.137l1.07 3.846 1.281-2.992c.641-1.282.855-2.136.214-2.777v-.214l1.71.213ZM86.192 24.974c-.855 2.137-3.42 2.992-5.128 2.137-1.924-.855-2.992-2.564-2.137-4.487.854-2.35 3.419-2.992 5.128-2.137 1.71.855 2.991 2.564 2.137 4.487Zm-.855-.855c.214-1.923-.641-3.632-2.35-3.632-1.71-.214-2.992 1.496-2.992 3.205-.214 1.923.641 3.633 2.35 3.633 1.496.213 2.778-1.496 2.992-3.206ZM91.534 32.667l-1.496-.855c.213 0 .427-.214.64-.641.215-.427 1.496-2.778 1.71-3.419.427-1.068.641-2.35-.427-2.778-1.496-.64-3.633 1.923-4.274 2.992l-.64.854c-.214.428-.214.642-.214.855l-1.496-.855c.214 0 .427-.213.855-.64l2.777-4.274c.214-.427.428-.641.214-.855l1.282.428-2.137 3.205c1.069-1.282 2.564-2.778 4.274-1.71 1.068.641 1.496 1.923.64 3.633-.64 1.282-1.281 2.778-1.709 3.205v.855ZM106.705 38.436c-.855 0-1.71 0-2.778.427l-3.419 1.282-.641 1.069-.855-.855s2.564-4.487 2.564-4.7l-3.846 1.709-.427 1.068-.855-.855 2.137-4.273c.641-1.496 1.068-2.137 1.068-2.992l1.496 1.71c-.641 0-.855.427-1.282 1.068l-2.137 4.06 3.846-1.71c.428-.854.641-1.495.641-2.136l1.71 1.923c-.641 0-.855.427-1.496 1.496l-1.923 3.419 2.992-1.069c1.495-.427 2.136-.855 2.136-1.71l1.069 1.07ZM106.491 48.265c-1.068.427-2.564.213-3.632-1.496-1.068-1.71-1.068-4.06 1.068-5.342 2.137-1.282 4.274.214 5.129 1.71.641 1.068 1.068 2.991-.428 4.06 0-.214-.427-.855-.427-.855l-.214-.214c.214.427-.213 1.496-1.496 2.137Zm1.069-2.992-1.923-3.419c-.855.214-1.496.642-2.137 1.282-1.068 1.283-1.282 2.565-.427 3.847.641 1.068 1.923 1.71 2.991 1.282 1.71-.641 2.137-2.137 1.496-2.992Zm-1.71-3.419 2.351 4.274c1.068-.855 1.496-2.35.427-3.419-.641-1.068-1.709-1.282-2.778-.855ZM110.978 55.743c-3.419 1.282-5.128-1.923-5.556-3.418-.213-.641 0-1.496-.213-1.71 0-.214-.214-.214-.428-.214l9.188-2.99c.428-.215.641-.215.641-.642h.214l.641 1.282-7.265 2.35c1.709-.213 4.274-.213 4.915 1.71.213 1.282-.428 2.991-2.137 3.632Zm-.214-1.068c1.282-.427 2.351-1.71 1.71-2.991-.855-1.496-4.06-1.282-5.342-.855l-1.923.64s0 .428.213.856c.428 1.282 1.71 3.632 5.342 2.35ZM114.183 58.521l-5.983.855c-.427 0-.641.214-.854.427l-.214-1.923c.214.214.427.214.855.214l4.914-.855c.855-.213 1.068-.427 1.068-1.068h.214v2.35c0-.854.641-2.136 1.496-2.35 1.068-.214 1.923.427 2.137 1.923 0 .641 0 1.496-.214 1.923h-1.496c.855-.427 2.137-1.71 1.496-2.564-.214-.427-1.068-.427-1.923-.214-.641.214-1.496.855-1.282 1.923l.213 2.137h-.213l-.214-2.778ZM107.773 64.718l-.213-1.923c.213.213.427.213.854.213l8.547-.427c.428 0 .641 0 .641-.427h.214l.427 1.282-9.829.64c-.213.215-.427.428-.641.642ZM111.192 73.478c-2.351-.213-3.846-2.35-3.633-4.273.214-1.923 1.496-3.632 3.633-3.419 2.564.214 3.846 2.35 3.632 4.274-.213 1.923-1.495 3.632-3.632 3.418Zm.641-1.282c1.923-.427 3.205-1.709 2.778-3.418-.428-1.71-2.137-2.35-4.06-1.923-1.923.427-3.205 1.709-2.778 3.418.427 1.71 2.137 2.35 4.06 1.923ZM111.406 85.444c-.428-.855-1.069-1.282-1.924-2.136l-2.991-2.351-1.282.214.427-1.069s5.129-.427 5.342-.427l-3.419-2.35-1.068.213.427-1.068 4.701-.641c1.496-.214 2.351-.214 2.992-.855h.213l-.641 2.137h-.213c-.214-.428-.641-.428-1.71-.428l-4.487.641 3.419 2.351c1.068 0 1.496-.214 2.137-.641h.213l-.641 2.137h-.213c-.214-.641-.855-.428-1.923-.428l-3.847.428 2.564 1.923c1.283.855 1.924 1.282 2.565.855h.213l-.854 1.495ZM82.773 109.59l-.213-3.419-.855-.854 1.069-.428 3.418 3.205c1.069 1.069 1.71 1.496 2.564 1.71v.213l-2.136.855v-.214c.213-.427 0-.854-.855-1.495l-3.419-2.992.427 3.419c.214 1.496.428 2.35 1.282 2.564v.214l-1.709.641v-.214c.427-.855.641-1.709.427-3.205ZM77.432 107.026c0-.214 0-.214 0 0l1.709-.641c-.214.213-.214.427 0 .854l1.496 4.915c.213.427.213.641.427.641l-1.282.641-1.923-5.983a.459.459 0 0 0-.427-.427Zm4.273 7.906c.214.427 0 .854-.427.854-.428.214-.855 0-.855-.427-.214-.427 0-.855.427-.855.428 0 .855.214.855.428ZM69.953 110.872c0-1.069.641-2.564 2.564-2.992 2.137-.427 4.274.214 4.701 2.778.641 2.564-1.496 4.06-3.205 4.487-1.282.214-2.992 0-3.633-1.709.214 0 1.069-.214 1.069-.214h.427c-.855-.213-1.71-1.068-1.923-2.35Zm2.564 1.923 3.846-.641c0-.855-.213-1.71-.64-2.351-.855-1.495-2.137-1.923-3.633-1.495-1.282.213-2.137 1.282-2.137 2.564.214 1.496 1.496 2.137 2.564 1.923Zm3.846-.427-4.7.854c.427 1.282 1.709 2.137 3.205 1.496.854-.427 1.282-1.282 1.495-2.35ZM58.628 115.573c.641-.641 1.068-1.282 1.496-2.351l1.495-3.418-.427-1.283h1.282s1.71 4.915 1.71 5.129l1.282-3.846-.428-1.069h1.282l1.71 4.487c.64 1.496.854 2.137 1.709 2.778v.214h-2.35V116c.427-.427.213-.855 0-1.709l-1.71-4.274-1.282 3.846c.427.855.641 1.496 1.282 1.923V116h-2.35v-.214c.427-.427.213-.854 0-2.136l-1.282-3.633-1.282 2.992c-.641 1.282-.641 2.136 0 2.777V116l-2.137-.427ZM46.876 108.735c.854-2.35 3.205-2.991 5.128-2.35s3.205 2.35 2.564 4.273c-.855 2.351-3.205 2.992-5.128 2.351s-3.205-2.351-2.564-4.274Zm1.068.855c0 1.923.855 3.419 2.564 3.633 1.71 0 2.778-1.496 2.992-3.419 0-1.923-.855-3.633-2.564-3.633-1.923-.213-2.992 1.496-2.992 3.419ZM41.106 101.043l1.71.855c-.214 0-.428.213-.641.641-.214.427-1.282 2.777-1.496 3.418-.427 1.069-.641 2.351.64 2.778 1.71.641 3.42-1.923 4.06-2.991l.642-1.069c.213-.427.213-.641.213-.854l1.71.854c-.214 0-.428.214-.641.641l-2.564 4.488c-.214.427-.214.641 0 .854l-1.282-.427 1.923-3.205c-1.069 1.282-2.564 2.778-4.06 1.923-1.068-.641-1.496-1.923-.855-3.419.641-1.282 1.282-2.778 1.496-3.205-.641-.641-.641-1.068-.855-1.282ZM25.722 96.129c.854 0 1.71-.214 2.777-.642l3.42-1.495.64-1.069.855.855s-2.35 4.7-2.35 4.915l3.632-1.71.427-1.068.855.854-1.923 4.274c-.641 1.496-.855 2.137-.855 2.991l-1.495-1.709c.64 0 .854-.427 1.068-1.282l1.923-4.274-3.632 1.71c-.428.855-.642 1.496-.642 2.137l-1.709-1.282c.641 0 .855-.428 1.282-1.496l1.71-3.419-2.992 1.282c-1.282.641-2.137 1.069-1.923 1.923l-1.068-1.495ZM25.508 86.3c.855-.428 2.564-.428 3.847 1.495 1.068 1.71 1.282 4.06-.855 5.342-2.137 1.496-4.274 0-5.342-1.282-.641-1.069-1.069-2.778.427-4.06 0 .214.641.855.641.855l.214.213c-.427-.854-.214-1.923 1.068-2.564Zm.855 6.41-2.35-4.06c-1.069.854-1.282 2.35-.214 3.418.427.855 1.71 1.069 2.564.642Zm-1.923-3.206 1.923 3.206c.855-.214 1.496-.855 1.923-1.282 1.069-1.283 1.069-2.565.214-3.847-.428-1.068-1.923-1.495-2.992-1.068-1.282.641-1.495 1.923-1.068 2.991ZM20.594 79.034c3.419-1.282 5.342 1.71 5.983 3.206.213.64.213 1.495.213 1.709 0 .213.214.213.428.213l-9.188 3.42c-.428.213-.641.213-.641.64h-.214l-.855-1.282 7.479-2.778c-1.71.428-4.274.428-4.915-1.495-.427-1.069 0-2.778 1.71-3.633Zm.213 1.282c-1.282.428-2.136 1.924-1.495 2.992.854 1.496 4.06 1.068 5.342.64l1.923-.64s0-.428-.214-.855c-.427-1.496-1.923-3.632-5.555-2.137ZM17.175 76.47l5.983-1.282c.427-.214.641-.214.855-.427l.427 1.71c-.213-.215-.427-.215-.855-.215l-4.7 1.069c-.855.213-1.069.64-1.069 1.068h-.213l-.428-1.923c0 .855-.427 2.137-1.496 2.35-1.068.214-1.923-.427-2.136-1.922-.214-.641-.214-1.496.213-1.924h1.496c-.855.641-2.137 1.71-1.496 2.778.428.214 1.282.214 2.137 0 .641-.213 1.496-.855 1.069-2.136l-.428-1.924h.214l.427 2.778ZM23.372 70.06l.213 1.923c-.213-.214-.427-.427-.855-.427l-8.547.855c-.427 0-.64.213-.64.427h-.214l-.428-1.282 9.83-1.069c.213 0 .427-.213.64-.427ZM19.525 61.513c2.35 0 3.846 2.137 3.846 4.06 0 1.923-1.282 3.632-3.418 3.632-2.564 0-3.847-2.137-3.847-4.06 0-1.923 1.282-3.846 3.42-3.632Zm-.64 1.282c-1.71.427-3.206 1.923-2.565 3.632.427 1.71 2.35 2.137 4.06 1.71 1.71-.427 3.205-1.923 2.564-3.633-.214-1.71-2.137-2.35-4.06-1.71ZM18.67 49.334c.428.64 1.069 1.281 2.137 2.136l2.992 2.137 1.282-.214-.214 1.069s-5.128.64-5.342.64l3.633 2.138 1.068-.214-.214 1.068-4.7.855c-1.496.214-2.35.427-2.992 1.068h-.214l.641-2.137h.214c.214.428.641.428 1.71.214l4.487-.855-3.633-2.136c-1.068.213-1.495.213-2.136.64h-.214l.64-2.136h.214c.428.641.855.427 1.924.427l3.846-.427-2.564-1.71c-1.282-.854-1.923-1.068-2.778-.64h-.214l.428-1.923ZM27.217 33.735l2.35.641 1.924-1.496v2.35l2.137 1.283-2.35 1.068-.428 2.35-1.71-1.922-2.35.213 1.282-2.136-.855-2.35ZM101.577 92.923l1.068 2.137 2.564.213-1.709 1.923.641 2.35-2.137-1.068-2.136 1.282.213-2.35-1.923-1.71 2.351-.427 1.068-2.35Z"/></g><defs><clipPath id="clip0_7_1961"><path fill="#fff" transform="translate(13.115 16)" d="M0 0h105.769v100H0z"/></clipPath></defs></svg>